<svg width="49" height="106" viewBox="0 0 49 106" fill="none" xmlns="http://www.w3.org/2000/svg">
<path d="M29.0019 52.7871L28.9337 52.6147C28.7415 52.8177 28.3483 52.9146 27.6192 52.7943C27.6192 52.7943 27.4163 53.5808 26.8184 54.6618C27.6067 54.7354 28.2441 54.8916 28.7272 55.0533L29.2138 53.1481C29.1294 53.0403 29.0576 52.92 29.0037 52.7871H29.0019Z" fill="white"/>
<path d="M32.9469 47.7486C32.9469 48.9158 32.3525 49.9429 31.4511 50.548L31.7527 51.9504C31.8928 52.6059 31.5624 53.2595 30.9788 53.5468L31.3397 54.9636C32.0329 54.2166 33.8483 53.1463 38.1507 54.5577L38.0914 54.7104L41.0345 54.1178L39.7111 45.4142L39.7399 45.3945C39.7435 44.9024 40.0757 43.9633 40.6305 42.9667L40.7257 42.8015L30.467 44.5056C31.8964 44.8953 32.9469 46.1989 32.9469 47.7504V47.7486Z" fill="white"/>
<path d="M16.5903 48.2171L17.2637 51.2913C17.5043 51.3452 17.7467 51.4062 17.9909 51.4798C17.9909 51.4798 20.7006 52.2951 21.9737 50.0774C22.6794 48.8474 24.4804 48.0214 26.2186 47.8849L26.2115 47.7502C26.2115 46.5938 26.795 45.5739 27.6839 44.9688L15.6242 46.9727C16.1001 47.4557 16.4341 47.9011 16.5562 48.2117L16.5885 48.2189L16.5903 48.2171Z" fill="white"/>
<path d="M13.9469 47.2494C12.7905 46.2707 12.0471 45.2634 12.2824 44.9832C12.5194 44.6995 13.6722 45.2724 14.8538 46.2636C15.1375 46.5006 15.396 46.7412 15.6241 46.9728L27.6838 44.9689C28.2243 44.599 28.8761 44.3835 29.5782 44.3835C29.8871 44.3835 30.1834 44.4284 30.4653 44.5056L40.7239 42.8015C41.4494 41.541 42.2628 40.6772 42.5717 40.8496C42.8051 40.9789 42.6884 41.6595 42.3275 42.534L48.4184 41.5212L41.5194 0L0 6.89895L6.89895 48.4202L13.9469 47.2494ZM38.4434 4.30242L44.1159 38.4434L44.0872 38.447L22.8104 41.9827L9.97313 44.1159L4.29882 9.97493L38.4416 4.30242H38.4434Z" fill="#E9E3D7"/>
<path d="M9.9751 44.1177L22.8123 41.9844L22.8482 41.9324L9.9751 44.1177Z" fill="#9EB6AB"/>
<path d="M20.7166 29.0952L28.201 34.4481L40.5534 17.1719L44.089 38.4488L44.1177 38.4452L38.4452 4.3042L4.30243 9.97671L9.97674 44.1177L20.7166 29.097V29.0952ZM14.3025 14.3204C16.7967 13.9056 19.1544 15.5918 19.5674 18.0841C19.9804 20.5783 18.2961 22.936 15.8019 23.3508C13.3077 23.7656 10.95 22.0795 10.537 19.5871C10.124 17.0929 11.8083 14.7352 14.3025 14.3222V14.3204Z" fill="#E3F1E9"/>
<path d="M28.2011 34.448L20.7168 29.0951L9.9751 44.1176L22.8482 41.9323L22.8123 41.9844L44.0892 38.4487L40.5535 17.1719L28.2011 34.448Z" fill="#408B4B"/>
<path d="M15.8019 23.3508C18.296 22.9378 19.9804 20.58 19.5674 18.0841C19.1526 15.5899 16.7966 13.9055 14.3025 14.3203C11.8083 14.7334 10.124 17.0911 10.537 19.5852C10.9518 22.0794 13.3077 23.7638 15.8019 23.349V23.3508Z" fill="#EAD558"/>
<path d="M17.6928 59.5478C16.9961 59.6663 16.3335 59.1959 16.2168 58.4974C16.1989 58.3968 16.1953 58.2962 16.2024 58.1975L15.3818 51.0777C12.0886 51.0687 9.51718 53.0744 9.98764 56.6748C10.5928 61.3022 16.1701 60.8856 16.1701 60.8856C18.878 60.6917 20.9699 59.959 22.5771 59.0055L22.4047 58.7506L17.6928 59.546V59.5478Z" fill="black"/>
<path d="M26.2115 47.7486L26.2187 47.8832C24.4787 48.0197 22.6794 48.8457 21.9737 50.0757C20.7006 52.2934 17.9909 51.4782 17.9909 51.4782C17.7485 51.4045 17.5061 51.3435 17.2637 51.2896L18.4739 56.8149L20.8317 56.4162L20.4007 55.777C23.105 54.6852 25.2562 54.5128 26.8166 54.6601C27.4146 53.5791 27.6175 52.7926 27.6175 52.7926C28.3465 52.9111 28.7416 52.8141 28.9319 52.613L28.7811 52.2341L28.747 52.2485C28.4219 52.3473 28.079 52.1659 27.9802 51.8409C27.8797 51.5159 28.0628 51.1729 28.3878 51.0741C28.6069 51.0059 28.8332 51.0705 28.9876 51.216C29.1923 50.9448 29.327 50.5606 29.2067 50.0219C29.2067 50.0219 30.4421 49.6538 30.7222 49.0001C31.0149 49.2138 31.234 49.5317 31.3148 49.9159L31.4512 50.5462C32.3527 49.9411 32.947 48.9139 32.947 47.7468C32.947 46.1953 31.8948 44.8916 30.4672 44.502C30.1853 44.4248 29.8872 44.3799 29.5801 44.3799C28.8762 44.3799 28.2244 44.5954 27.6857 44.9653C26.7969 45.5704 26.2133 46.5903 26.2133 47.7468L26.2115 47.7486Z" fill="black"/>
<path d="M16.2167 58.4974C16.3352 59.196 16.996 59.6646 17.6928 59.5479L22.4046 58.7524L20.8316 56.4199L18.4739 56.8185L17.2636 51.2932L16.5902 48.219L16.5579 48.2119C16.4358 47.9012 16.1 47.4559 15.626 46.9729C15.3979 46.7412 15.1393 46.5006 14.8556 46.2636C13.6723 45.2724 12.5212 44.6995 12.2842 44.9833C12.049 45.2634 12.7942 46.2725 13.9488 47.2494L13.9955 47.2907C14.3528 47.5906 14.7066 47.8491 15.0334 48.061L15.3817 51.0795L16.2024 58.1994C16.1952 58.2981 16.1988 58.3987 16.2167 58.4992V58.4974Z" fill="#E8A690"/>
<path d="M37.6319 102.75H40.1943L39.9393 101.143H37.3769L37.6319 102.75Z" fill="#E8A690"/>
<path d="M36.9602 102.75V106H44.2452C44.2452 105.655 44.1734 105.327 44.0441 105.028H44.019L43.8484 105.025L43.6993 105.041H43.6257L43.5305 105.052H43.5036L43.3851 105.059H43.2217L43.1193 105.063H42.9721L42.8446 105.084L42.6938 105.079L42.5735 105.098H42.4585L42.3562 105.109L42.2969 105.097L42.1066 105.122C42.0204 105.125 41.9342 105.118 41.8462 105.122L41.699 105.14L41.5661 105.136L41.4655 105.152H41.4045L41.2483 105.149L41.0669 105.167H40.9196L40.7778 105.17L40.5928 105.194L40.4761 105.188L40.3504 105.203H40.2463L40.1152 105.219L40.0613 105.213L39.8189 105.233L39.6483 105.23L39.519 105.248L39.4041 105.251L39.264 105.258L39.1114 105.255L38.9103 105.282L38.72 105.274L38.5961 105.294H38.4668L38.2261 105.301L38.0592 105.323L37.9227 105.314L37.7701 105.332L37.6785 105.325L37.4845 105.35L37.2888 105.355L37.129 105.368L37.0033 105.357L36.9835 105.325L36.9746 105.271L36.9853 105.221L37.0392 105.192L37.1254 105.174L37.2206 105.178C37.3068 105.178 37.3948 105.174 37.4809 105.167L37.5833 105.147L37.6946 105.151L37.8455 105.14H37.9963L38.1615 105.122H38.3465L38.4273 105.111C38.5242 105.107 38.6212 105.111 38.7182 105.107L38.8708 105.086L38.9983 105.091L39.1168 105.072H39.1509L39.3143 105.079L39.4688 105.063L39.5657 105.068L39.6896 105.059L39.862 105.037L40.0416 105.028L40.214 105.036L40.4223 105.023C40.5138 105.018 40.6036 105.014 40.6952 105.009L40.9017 104.996L41.1351 104.976L41.3291 104.98L41.4188 104.96H41.4997L41.6307 104.966L41.7654 104.953L41.9845 104.949L42.164 104.937L42.331 104.933L42.498 104.926L42.6579 104.917L42.8572 104.89L43.0188 104.896L43.2307 104.888L43.3474 104.865L43.43 104.874L43.6042 104.867L43.7658 104.861L43.8466 104.849L43.9615 104.845C43.5503 104.079 42.7387 103.556 41.8085 103.556C41.6325 103.556 41.4637 103.576 41.2985 103.61V102.75H36.9674H36.9602Z" fill="#5B2C16"/>
<path d="M29.8926 67.0017H26.8938C25.3963 68.3646 24.3691 70.6631 24.2273 73.3117L21.7906 86.5529L9.63928 94.9279L10.3486 95.9353L11.8102 98.0111L12.5052 99.0005L26.3085 90.8643L30.1242 78.257L30.0883 78.2516L30.5821 75.3067L30.5444 75.1433L30.557 75.0661L30.6019 75.0248L30.6288 75.0301L31.1891 71.6938L31.3884 71.7279L30.7779 75.3623L30.8281 75.5186C30.8587 75.6245 30.8784 75.734 30.9054 75.8418C30.9826 76.1381 31.0616 76.4344 31.1442 76.7288C31.1765 76.8438 31.2196 76.9569 31.2519 77.0718C31.286 77.1975 31.313 77.3268 31.3453 77.4525C31.3902 77.6231 31.4405 77.7919 31.4854 77.9625C31.5321 78.1348 31.5733 78.3072 31.6218 78.4796C31.6721 78.6646 31.7296 78.8495 31.7799 79.0345C31.8355 79.2446 31.884 79.4565 31.9397 79.6666C31.963 79.7581 31.9989 79.8461 32.0223 79.9377C32.1085 80.2663 32.1911 80.5985 32.279 80.9271C32.3257 81.0995 32.385 81.2683 32.4335 81.4407C32.473 81.5843 32.4999 81.7316 32.5376 81.8752C32.5735 82.0099 32.6184 82.141 32.6597 82.2739L32.6903 82.3924C32.7351 82.5773 32.7764 82.7659 32.8249 82.949C32.8716 83.125 32.9273 83.2974 32.9758 83.4734C33.0063 83.5829 33.026 83.696 33.0548 83.8074C33.0907 83.9474 33.132 84.0875 33.1715 84.2275C33.229 84.4233 33.2882 84.619 33.3421 84.8147C33.3995 85.0176 33.4552 85.2205 33.5091 85.4253C33.5594 85.621 33.6007 85.8203 33.6509 86.016C33.7138 86.2531 33.7802 86.4883 33.8449 86.7235C33.9293 87.0306 34.0119 87.3394 34.0945 87.6465C34.1591 87.8799 34.222 88.1134 34.2866 88.3468C34.3584 88.6108 34.4374 88.8711 34.5075 89.1351C34.5667 89.3542 34.6152 89.5768 34.6727 89.7941C34.6996 89.8965 34.7409 89.997 34.7714 90.0976C34.7984 90.1892 34.8217 90.2789 34.8433 90.3705C34.8792 90.5196 34.9097 90.6686 34.9474 90.8159C34.9869 90.9685 35.0336 91.1193 35.0749 91.2701C35.1413 91.518 35.2042 91.7675 35.2706 92.0171C35.3263 92.2218 35.3856 92.4248 35.4412 92.6295C35.4933 92.8198 35.5418 93.0101 35.5903 93.2005C35.6405 93.389 35.6908 93.5776 35.7429 93.7643C35.7914 93.9439 35.8399 94.1253 35.8901 94.3048C35.9548 94.5293 36.0266 94.752 36.0895 94.9782C36.1397 95.1596 36.1774 95.3463 36.2241 95.5295C36.2852 95.7701 36.3498 96.0089 36.4163 96.2477C36.4522 96.3806 36.5025 96.5099 36.5402 96.641C36.5671 96.7344 36.5779 96.8313 36.603 96.9247C36.6533 97.124 36.709 97.3197 36.7628 97.5191C36.8113 97.7004 36.858 97.8854 36.9083 98.0667C36.9334 98.1583 36.9657 98.2463 36.9909 98.3379C37.0394 98.5175 37.0843 98.697 37.1327 98.8766C37.1794 99.0472 37.2351 99.2178 37.28 99.3884L37.2997 99.5482L37.2333 99.611L37.1507 99.5859L37.1238 99.4979L37.1076 99.5033C37.0609 99.3309 37.0124 99.1585 36.9693 98.9843C36.919 98.7904 36.876 98.5947 36.8257 98.4025C36.7808 98.2337 36.7269 98.0667 36.6802 97.8979C36.6569 97.8153 36.6407 97.7292 36.6156 97.6466C36.5851 97.5388 36.5527 97.4329 36.5222 97.3251L36.4953 97.2354C36.4594 97.1007 36.4217 96.966 36.3875 96.8313C36.3391 96.6446 36.2942 96.4578 36.2457 96.2711C36.2151 96.1544 36.181 96.0376 36.1523 95.9227C36.1092 95.7557 36.0697 95.5869 36.023 95.4199C35.9835 95.2745 35.9296 95.1344 35.8901 94.989C35.8452 94.8202 35.8111 94.646 35.7644 94.4754C35.7285 94.3389 35.6782 94.2043 35.6405 94.066C35.6046 93.9367 35.5759 93.8038 35.54 93.6728C35.5095 93.5578 35.4717 93.4447 35.4394 93.3298L35.4017 93.1251C35.3407 92.9114 35.2688 92.6995 35.2114 92.484C35.1324 92.1913 35.0659 91.8932 34.9869 91.5988C34.9438 91.43 34.8864 91.2684 34.8415 91.1014C34.8002 90.9505 34.7696 90.7979 34.7301 90.6471C34.6996 90.5321 34.6601 90.4208 34.6278 90.3077L34.5739 90.1012C34.529 89.9234 34.4895 89.7438 34.441 89.5661C34.3854 89.3596 34.3207 89.1549 34.2651 88.9484C34.2202 88.7832 34.1807 88.6144 34.1376 88.4492C34.0963 88.2875 34.055 88.1259 34.0083 87.9661C33.949 87.7578 33.8826 87.5513 33.8251 87.343C33.7892 87.2119 33.7641 87.0773 33.7282 86.9444C33.6904 86.8025 33.6438 86.6607 33.6042 86.517C33.5719 86.4003 33.545 86.2782 33.5127 86.1615C33.4714 86.0142 33.4247 85.867 33.3834 85.7197L33.3421 85.533C33.2667 85.2583 33.1841 84.9853 33.1104 84.7106C33.0584 84.5167 33.0171 84.3191 32.9668 84.1252C32.9273 83.9779 32.8788 83.8325 32.8357 83.6853C32.7998 83.556 32.7693 83.4249 32.7334 83.2956C32.6903 83.1376 32.6454 82.9814 32.6041 82.8215C32.5592 82.6492 32.5233 82.4732 32.4748 82.3026C32.4101 82.0745 32.3365 81.8501 32.2737 81.6202C32.2144 81.4048 32.1713 81.1839 32.1138 80.9684C32.0779 80.8283 32.0277 80.6937 31.9881 80.5536C31.9468 80.4082 31.9145 80.2591 31.875 80.1137C31.8032 79.8407 31.7332 79.566 31.6577 79.293C31.6057 79.1045 31.5428 78.9178 31.4908 78.7292C31.4495 78.5766 31.4225 78.4204 31.3812 78.2659C31.3345 78.0918 31.2771 77.9212 31.2304 77.747C31.2016 77.6446 31.1873 77.5369 31.1586 77.4345C31.0975 77.2173 31.0275 77.0018 30.9664 76.7827C30.9036 76.5618 30.8497 76.3374 30.7904 76.1147C30.7617 76.0106 30.7312 75.9046 30.7025 75.8005L30.2841 78.2893L30.2553 78.2857L36.1613 101.15H41.2879L35.8955 73.2937C35.7483 70.6559 34.723 68.3682 33.2308 67.0089H29.889L29.8926 67.0017ZM20.5336 89.1602L20.4923 89.1908C20.3415 89.2895 20.1852 89.3829 20.0344 89.4835L19.8045 89.654L19.5998 89.7744L19.4221 89.909L19.3682 89.9431C19.2802 89.9952 19.1922 90.0437 19.106 90.0994L18.869 90.2682L18.711 90.3615L18.5206 90.4944C18.4309 90.5573 18.3447 90.6237 18.2549 90.6848C18.1633 90.7494 18.0699 90.8123 17.9766 90.8715C17.885 90.929 17.788 90.9793 17.6982 91.0367C17.5887 91.1067 17.4828 91.1822 17.375 91.2558C17.235 91.3492 17.0931 91.4443 16.953 91.5377C16.8453 91.6095 16.7376 91.6796 16.6316 91.7532C16.5113 91.834 16.3946 91.922 16.2743 92.001C16.1719 92.0674 16.0678 92.1249 15.9654 92.1913L15.8325 92.2991L15.7068 92.3817L15.4967 92.5038L15.2902 92.6474C15.1753 92.7228 15.0586 92.7947 14.9455 92.8701C14.8521 92.9329 14.7605 92.9994 14.6671 93.0604C14.581 93.1179 14.4912 93.1736 14.4032 93.231C14.3152 93.2885 14.2308 93.3459 14.1428 93.4016C14.0602 93.4573 13.9758 93.5093 13.895 93.5686C13.7927 93.6404 13.6957 93.7194 13.5933 93.7895C13.5107 93.8451 13.4192 93.8918 13.3348 93.9439C13.2234 94.0139 13.1121 94.0857 13.0044 94.1612L12.8302 94.2958L12.6955 94.3695C12.6039 94.4287 12.5141 94.4898 12.4226 94.549C12.3382 94.6047 12.2538 94.6568 12.1712 94.7142L12.0491 94.8058C11.9683 94.8615 11.8821 94.9118 11.8013 94.9674L11.5714 95.1326L11.487 95.1614L11.4242 95.1057L11.4044 95.0303L11.4421 95.0015L11.4332 94.9872C11.5122 94.9351 11.5912 94.8794 11.672 94.8292C11.7618 94.7735 11.8551 94.7232 11.9449 94.664L12.173 94.5023L12.2897 94.4287L12.4333 94.3246L12.4728 94.2958L12.6578 94.1737C12.744 94.1181 12.832 94.066 12.9182 94.0103L13.078 93.9044L13.3114 93.7571L13.4066 93.6853L13.5036 93.6135L13.7442 93.468L13.9255 93.3316L14.1087 93.2167L14.2631 93.1053L14.3655 93.0586C14.4624 92.9904 14.554 92.9132 14.6528 92.8485C14.7875 92.7588 14.9293 92.6797 15.064 92.5918L15.2884 92.4284L15.5021 92.3009L15.653 92.1859L15.7499 92.1249C15.8343 92.0746 15.9205 92.0261 16.0013 91.9722C16.0965 91.9076 16.1863 91.8376 16.2797 91.7747L16.5131 91.6293L16.7358 91.4838C16.8309 91.4174 16.9207 91.3474 17.0159 91.2809L17.2026 91.1696L17.3948 91.0313L17.56 90.9272L17.7593 90.7835L17.8491 90.735C17.973 90.6489 18.0951 90.5609 18.2226 90.4765C18.3106 90.4172 18.4057 90.3687 18.4955 90.3095L18.693 90.1658L18.8726 90.0491L19.0881 89.9036L19.3305 89.7564C19.4346 89.6846 19.5316 89.6038 19.6376 89.5337C19.7363 89.4673 19.8441 89.4152 19.9446 89.3506L20.1296 89.2123L20.3343 89.083C20.4618 89.0022 20.5875 88.9214 20.7114 88.837C20.7976 88.7778 20.8784 88.7095 20.9646 88.6521L21.1836 88.5246L21.4189 88.3558L21.5679 88.2714C21.6667 88.2014 21.76 88.1259 21.8606 88.0577C21.9611 87.9895 22.0671 87.9248 22.1694 87.8584C22.252 87.8027 22.3328 87.7435 22.4155 87.6896L22.6184 87.5747L22.6686 87.5819L22.7099 87.6178L22.7189 87.6716L22.6489 87.7488L22.5214 87.8512L22.3688 87.941C22.2323 88.029 22.094 88.1188 21.9593 88.2103L21.8085 88.3288L21.6289 88.4366L21.3973 88.5946L21.1567 88.749C21.0723 88.8065 20.9897 88.8693 20.9053 88.925C20.8083 88.9879 20.7078 89.0453 20.6108 89.1064L20.5318 89.1674L20.5336 89.1602Z" fill="#33673B"/>
<path d="M38.1508 54.5576C33.8466 53.1462 32.0329 54.2182 31.3398 54.9634L31.4799 55.5129C31.4799 56.3066 30.837 56.9495 30.0451 56.9495C29.2532 56.9495 28.6373 56.33 28.614 55.556C28.614 55.556 28.614 55.556 28.6122 55.556V55.5129L28.7271 55.0532C28.2459 54.8916 27.6066 54.7372 26.8183 54.6618C25.2561 54.5145 23.1067 54.6869 20.4024 55.7787L20.8334 56.4179L22.4064 58.7505L22.5788 59.0055L24.7677 62.2503L24.7623 62.2108L24.7371 62.1389V62.0581L24.7192 61.9504L24.7102 61.8408L24.6905 61.7241V61.5895L24.6725 61.532L24.6653 61.3219L24.642 61.2124L24.6474 61.1208L24.6294 61.0346V61.0095L24.6384 60.8927L24.6222 60.7796L24.6312 60.7096L24.6258 60.618L24.6114 60.4905L24.6079 60.3594L24.6258 60.2337V60.0811L24.6294 59.8818L24.6348 59.7309V59.5603L24.6599 59.4221L24.651 59.3539L24.6581 59.2946L24.6833 59.2012L24.6869 59.1025L24.7156 58.9427L24.7318 58.8098L24.7551 58.6895L24.7784 58.5691L24.8018 58.4524L24.8162 58.3034L24.8557 58.1903L24.9005 58.0394L24.9077 57.9496L24.9383 57.8958L24.976 57.7701L25.0209 57.6569L25.0334 57.5977L25.0783 57.4864L25.1106 57.375L25.1448 57.3535L25.2202 57.3804L25.283 57.4217L25.2794 57.4415L25.2956 57.4486L25.2561 57.5528L25.2004 57.6641L25.1699 57.7683L25.1466 57.8168L25.134 57.885L25.1304 57.9048L25.1053 57.9873L25.064 58.0987L25.0424 58.1705L25.0083 58.2729L25.0029 58.368L24.9688 58.4704L24.9634 58.5602L24.9418 58.6392L24.9347 58.7128L24.9131 58.7505L24.9095 58.8888L24.8682 59.0701V59.1779L24.8467 59.2712L24.8503 59.3449L24.8449 59.388L24.8215 59.4975V59.6304L24.809 59.7345L24.8036 59.8369L24.8108 59.9716L24.7982 60.0542L24.8054 60.1457L24.8 60.2194L24.8072 60.3145L24.7982 60.3522L24.809 60.5264L24.8 60.6485L24.8126 60.7419V60.8245L24.8197 60.9233L24.8144 61.0328L24.8395 61.1765L24.8341 61.3129L24.8539 61.4009V61.4925L24.8682 61.6631L24.8952 61.7816L24.8916 61.8786L24.9149 61.9863L24.9113 62.0527L24.9472 62.1874L24.9634 62.3257L24.9867 62.4352V62.5232L24.9544 62.5412L24.9023 62.5537C25.1394 65.0353 26.1755 66.9962 26.1755 66.9962H34.0064C34.0064 66.9962 35.1538 64.7121 35.2526 61.9719L35.3064 61.8319L35.2939 61.7798L35.2993 61.7044L35.2903 61.6038V61.5015L35.2723 61.3919V61.2662L35.2597 61.2124L35.2508 61.0166L35.2256 60.9161V60.8317L35.2041 60.7545V60.7311V60.6216L35.1807 60.5192V60.4528L35.1646 60.3702L35.1341 60.2571L35.1143 60.1386L35.1089 60.0236L35.0802 59.8854L35.0425 59.7094L35.0119 59.5747L34.9706 59.4257L34.9509 59.2982L34.9186 59.2425L34.906 59.1904L34.8988 59.1043L34.8719 59.0181L34.8342 58.878L34.7947 58.7649L34.7659 58.6589L34.73 58.5548L34.6941 58.456L34.6331 58.3375L34.6097 58.2334L34.5558 58.1059L34.511 58.0412L34.502 57.9873L34.4589 57.8832L34.414 57.7898L34.3817 57.7467L34.3368 57.6534L34.2829 57.5708L34.2901 57.5348L34.3583 57.4917L34.4284 57.4666L34.4391 57.481L34.4535 57.4738L34.5002 57.5654L34.5397 57.6713L34.5936 57.7575L34.6115 57.8024L34.6438 57.8581L34.6528 57.8742L34.6851 57.9478L34.7193 58.052L34.7462 58.1166L34.7803 58.21L34.8234 58.2854L34.8467 58.3842L34.8863 58.456L34.9078 58.5296L34.9383 58.5925L34.9347 58.6356L34.9886 58.7541L35.0245 58.9247L35.0622 59.0181L35.0748 59.1078L35.1035 59.1725L35.1107 59.212L35.1269 59.3161L35.1646 59.4347L35.1771 59.5334L35.1969 59.6286L35.2364 59.7489L35.24 59.8279L35.2651 59.9105L35.2723 59.9805L35.2993 60.0667L35.2957 60.1044L35.3316 60.2661L35.337 60.381L35.3603 60.4672L35.3693 60.5444L35.3819 60.6378V60.7419L35.4178 60.8766L35.4142 61.0059L35.4357 61.0885V61.1765L35.4483 61.3399L35.4645 61.4207L36.9854 57.5348L38.0969 54.6959L38.1562 54.5433L38.1508 54.5576ZM26.6836 63.4893L26.7016 63.2882H26.7178L26.7662 63.2918C26.8093 63.2918 26.8758 63.2953 26.9602 63.2953C27.788 63.2953 30.451 63.1032 32.8787 60.8227L33.017 60.97C30.5371 63.2989 27.8167 63.4983 26.9602 63.4983C26.786 63.4983 26.6872 63.4911 26.6854 63.4911L26.6836 63.4893ZM34.3458 61.3309L34.484 61.4781C32.0042 63.8071 29.2838 64.0064 28.4272 64.0064C28.2531 64.0064 28.1543 63.9992 28.1525 63.9974L28.1687 63.7963H28.1848L28.2333 63.7999C28.2764 63.8017 28.3428 63.8035 28.4272 63.8035C29.255 63.8035 31.918 63.6114 34.3458 61.3309Z" fill="#E9E3D7"/>
<path d="M42.5735 40.8478C42.2629 40.6754 41.4513 41.5392 40.7258 42.7997L40.6306 42.9649C40.0758 43.9633 39.7436 44.9006 39.74 45.3927L39.7113 45.4124L41.0347 54.116L38.0916 54.7086L36.98 57.5475L42.7423 56.3857C43.4355 56.2457 43.8844 55.5687 43.7443 54.8756C43.7246 54.775 43.6922 54.6798 43.6491 54.5919L41.1083 44.7085C41.3381 44.3943 41.5752 44.0244 41.8014 43.6167C42.0115 43.2396 42.1875 42.8733 42.3275 42.5339C42.6903 41.6595 42.8052 40.9789 42.5718 40.8496L42.5735 40.8478Z" fill="#E8A690"/>
<path d="M8.8114 97.2049L10.2982 99.2592L11.8084 98.0112L10.3485 95.9336L8.8114 97.2049Z" fill="#E8A690"/>
<path d="M8.3086 96.5117L5.67615 98.4187L7.08036 100.36L9.94804 104.319C10.142 104.179 10.3072 104.016 10.4454 103.836L10.3592 103.727L10.2641 103.585L10.1653 103.472L10.124 103.411L10.0594 103.341L10.0414 103.321L9.96959 103.228L9.87442 103.093L9.81157 103.012L9.72537 102.892L9.6338 102.8L9.55119 102.674L9.46501 102.586L9.39857 102.491L9.33033 102.416L9.30699 102.36L9.1759 102.22L9.02686 102.008L8.92631 101.899L8.85268 101.787L8.78086 101.716L8.74494 101.667L8.65696 101.536L8.53664 101.398L8.45225 101.277L8.36606 101.164L8.24036 101.028L8.17751 100.929L8.09311 100.834L8.03206 100.749L7.94228 100.653L7.91714 100.604L7.75912 100.419L7.66215 100.277L7.57417 100.18L7.50593 100.089L7.41795 99.9809L7.33355 99.8535L7.19528 99.7044L7.09113 99.5446L7.00494 99.4548L6.93132 99.3489L6.78587 99.1567L6.67095 99.0328L6.60091 98.9179L6.49677 98.803L6.45008 98.724L6.3172 98.5821L6.19869 98.4241L6.09633 98.302L6.03348 98.1943L6.04785 98.1583L6.08556 98.1206L6.13225 98.0991L6.18612 98.1278L6.25076 98.1871L6.30283 98.2661L6.46265 98.4726L6.53807 98.5444L6.59912 98.6378L6.69429 98.7545L6.78587 98.8766L6.89181 99.0005L6.99596 99.1531L7.05343 99.2106L7.22401 99.4458L7.32995 99.5554L7.39999 99.6613L7.48439 99.7475L7.50593 99.7762L7.59392 99.9127L7.69627 100.029L7.74835 100.112L7.82915 100.207L7.94587 100.336L8.0572 100.477L8.15058 100.622L8.28166 100.785L8.45225 100.999L8.58153 101.161L8.73237 101.338L8.84191 101.498L8.91014 101.561L8.95863 101.626L9.02686 101.737L9.11306 101.839L9.24414 102.015L9.35906 102.155L9.45962 102.29L9.56197 102.421L9.66253 102.545L9.799 102.692L9.88699 102.827L10.0163 102.996L10.1025 103.078L10.142 103.15L10.2497 103.289L10.3485 103.418L10.4041 103.477L10.5011 103.603L10.5622 103.671C11.0973 102.849 11.1044 101.75 10.4939 100.908C10.3898 100.766 10.2749 100.638 10.151 100.527L10.8477 100.022L10.2964 99.2609L8.80959 97.2066L8.3068 96.5135L8.3086 96.5117Z" fill="#5B2C16"/>
<path d="M20.9071 88.9177C20.9933 88.8621 21.0741 88.7992 21.1585 88.7417L21.3991 88.5873L21.6307 88.4293L21.8103 88.3216L21.9611 88.203C22.0958 88.1115 22.2341 88.0235 22.3705 87.9337L22.5232 87.8439L22.6507 87.7416L22.7207 87.6643L22.7117 87.6105L22.6704 87.5746L22.6201 87.5674L22.4172 87.6823C22.3346 87.7362 22.2538 87.7954 22.1712 87.8511C22.0689 87.9175 21.9647 87.9822 21.8624 88.0504C21.7618 88.1204 21.6684 88.1959 21.5697 88.2641L21.4206 88.3485L21.1854 88.5173L20.9663 88.6448C20.8801 88.7022 20.7993 88.7705 20.7131 88.8297C20.5892 88.9141 20.4617 88.9949 20.336 89.0757L20.1313 89.205L19.9464 89.3433C19.8458 89.4079 19.7381 89.4618 19.6393 89.5265C19.5352 89.5965 19.4364 89.6773 19.3323 89.7491L19.0898 89.8964L18.8744 90.0418L18.6948 90.1585L18.4973 90.3022C18.4075 90.3614 18.3123 90.4099 18.2243 90.4692C18.0968 90.5536 17.9747 90.6416 17.8508 90.7278L17.7611 90.7762L17.5617 90.9199L17.3965 91.024L17.2044 91.1623L17.0176 91.2736C16.9225 91.3401 16.8309 91.4101 16.7375 91.4766L16.5149 91.622L16.2814 91.7674C16.1863 91.8321 16.0965 91.9021 16.0031 91.965C15.9223 92.0188 15.8361 92.0673 15.7517 92.1176L15.6547 92.1787L15.5039 92.2936L15.2902 92.4211L15.0658 92.5845C14.9311 92.6725 14.7892 92.7515 14.6545 92.8413C14.5558 92.9077 14.4642 92.9831 14.3672 93.0513L14.2649 93.098L14.1105 93.2094L13.9273 93.3243L13.7459 93.4608L13.5053 93.6062L13.4084 93.678L13.3132 93.7499L13.0798 93.8971L12.9199 94.0031C12.8337 94.0587 12.7458 94.1108 12.6596 94.1665L12.4746 94.2886L12.4351 94.3173L12.2915 94.4214L12.1747 94.4951L11.9467 94.6567C11.8569 94.7141 11.7635 94.7644 11.6737 94.8219C11.5929 94.8722 11.5139 94.9278 11.4349 94.9799L11.4439 94.9943L11.4062 95.023L11.4259 95.0984L11.4888 95.1541L11.5732 95.1253L11.803 94.9601C11.8856 94.9045 11.97 94.8542 12.0508 94.7985L12.1729 94.707C12.2555 94.6513 12.3417 94.5974 12.4243 94.5418C12.5159 94.4807 12.6057 94.4197 12.6973 94.3622L12.8319 94.2886L13.0061 94.1539C13.1139 94.0785 13.2252 94.0066 13.3365 93.9366C13.4209 93.8827 13.5125 93.8378 13.5951 93.7822C13.6975 93.7122 13.7962 93.6331 13.8968 93.5613C13.9776 93.5039 14.062 93.45 14.1446 93.3943C14.2308 93.3369 14.317 93.2794 14.4049 93.2237C14.4929 93.1663 14.5809 93.1124 14.6689 93.0531C14.7623 92.9903 14.8539 92.9239 14.9472 92.8628C15.0622 92.7874 15.1789 92.7156 15.292 92.6401L15.4985 92.4965L15.7086 92.3744L15.8343 92.2918L15.9672 92.184C16.0695 92.1176 16.1737 92.0601 16.276 91.9937C16.3963 91.9147 16.5149 91.8267 16.6334 91.7459C16.7393 91.6723 16.8471 91.6022 16.9548 91.5304C17.0949 91.437 17.2367 91.3419 17.3768 91.2485C17.4845 91.1749 17.5905 91.0995 17.7 91.0294C17.7898 90.972 17.8868 90.9217 17.9783 90.8642C18.0735 90.805 18.1651 90.7421 18.2567 90.6775C18.3464 90.6146 18.4326 90.55 18.5224 90.4871L18.7128 90.3543L18.8708 90.2609L19.1078 90.0921C19.194 90.0364 19.282 89.9879 19.37 89.9359L19.4238 89.9017L19.6016 89.7671L19.8063 89.6468L20.0362 89.4762C20.187 89.3756 20.3432 89.2822 20.4941 89.1835L20.5354 89.153L20.6144 89.0919C20.7113 89.0291 20.8137 88.9734 20.9089 88.9105L20.9071 88.9177Z" fill="black"/>
<path d="M30.7059 75.7932C30.7364 75.8974 30.7652 76.0033 30.7939 76.1075C30.8532 76.3301 30.907 76.5546 30.9699 76.7754C31.0309 76.9945 31.101 77.21 31.162 77.4273C31.1925 77.5296 31.2069 77.6374 31.2338 77.7397C31.2805 77.9139 31.338 78.0845 31.3847 78.2587C31.426 78.4113 31.4529 78.5675 31.4942 78.7219C31.5463 78.9105 31.6091 79.0972 31.6612 79.2858C31.7366 79.5587 31.8067 79.8335 31.8785 80.1064C31.9162 80.2519 31.9503 80.4009 31.9916 80.5463C32.0293 80.6846 32.0814 80.8211 32.1173 80.9611C32.1748 81.1784 32.2179 81.3975 32.2771 81.613C32.34 81.8428 32.4136 82.0655 32.4782 82.2953C32.5249 82.4659 32.5626 82.6419 32.6075 82.8143C32.6488 82.9723 32.6937 83.1303 32.7368 83.2883C32.7727 83.4194 32.8033 83.5487 32.8392 83.678C32.8805 83.8252 32.9307 83.9689 32.9703 84.1179C33.0205 84.3119 33.0618 84.5094 33.1139 84.7033C33.1875 84.978 33.2701 85.251 33.3455 85.5257L33.3868 85.7125C33.4281 85.8597 33.4748 86.007 33.5161 86.1542C33.5485 86.2709 33.5754 86.393 33.6077 86.5097C33.6472 86.6534 33.6939 86.7935 33.7316 86.9371C33.7675 87.07 33.7909 87.2047 33.8286 87.3358C33.8878 87.5441 33.9525 87.7506 34.0117 87.9589C34.0566 88.1205 34.0979 88.2803 34.141 88.4419C34.1841 88.6089 34.2218 88.7759 34.2685 88.9411C34.3242 89.1476 34.3888 89.3541 34.4445 89.5588C34.493 89.7366 34.5325 89.9161 34.5774 90.0939L34.6312 90.3004C34.6654 90.4135 34.7031 90.5267 34.7336 90.6398C34.7731 90.7906 34.8036 90.9433 34.8449 91.0941C34.8898 91.2611 34.9473 91.4245 34.9904 91.5915C35.0676 91.886 35.1358 92.1841 35.2148 92.4768C35.2723 92.6922 35.3441 92.9041 35.4052 93.1178L35.4429 93.3225C35.4734 93.4374 35.5129 93.5506 35.5434 93.6655C35.5794 93.7966 35.6081 93.9295 35.644 94.0587C35.6817 94.1952 35.732 94.3299 35.7679 94.4681C35.8128 94.6369 35.8469 94.8111 35.8936 94.9817C35.9331 95.1272 35.9852 95.2672 36.0265 95.4127C36.0732 95.5797 36.1127 95.7485 36.1558 95.9155C36.1863 96.0322 36.2186 96.1489 36.2491 96.2638C36.2976 96.4506 36.3425 96.6373 36.391 96.8241C36.4251 96.9587 36.4628 97.0934 36.4987 97.2281L36.5257 97.3179C36.558 97.4238 36.5903 97.5316 36.619 97.6393C36.6424 97.7219 36.6585 97.8081 36.6837 97.8907C36.7304 98.0595 36.7842 98.2265 36.8291 98.3953C36.8794 98.5892 36.9225 98.7849 36.9728 98.9771C37.0159 99.1494 37.0662 99.3218 37.1111 99.496L37.1272 99.4906L37.1542 99.5786L37.2368 99.6037L37.3032 99.5409L37.2834 99.3811C37.2368 99.2105 37.1829 99.0399 37.1362 98.8693C37.0859 98.6898 37.0428 98.5102 36.9943 98.3306C36.9692 98.239 36.9369 98.1511 36.9117 98.0595C36.8615 97.8781 36.8148 97.6932 36.7663 97.5118C36.7124 97.3125 36.6585 97.1168 36.6065 96.9174C36.5813 96.8241 36.5706 96.7271 36.5436 96.6337C36.5077 96.5008 36.4574 96.3733 36.4197 96.2405C36.3533 96.0016 36.2886 95.761 36.2276 95.5222C36.1809 95.339 36.1432 95.1523 36.0929 94.9709C36.0301 94.7447 35.9582 94.522 35.8936 94.2976C35.8415 94.118 35.7948 93.9366 35.7463 93.7571C35.6961 93.5685 35.644 93.3818 35.5937 93.1932C35.5434 93.0029 35.495 92.8125 35.4447 92.6222C35.389 92.4175 35.3298 92.2146 35.2741 92.0099C35.2076 91.7621 35.1448 91.5125 35.0784 91.2629C35.0371 91.1103 34.9904 90.9612 34.9509 90.8086C34.9132 90.6613 34.8808 90.5123 34.8467 90.3633C34.8234 90.2717 34.8018 90.1801 34.7749 90.0903C34.7444 89.988 34.7031 89.8892 34.6761 89.7868C34.6187 89.5678 34.5702 89.3451 34.5109 89.1278C34.4409 88.8639 34.3619 88.6035 34.2901 88.3395C34.2254 88.1061 34.1626 87.8727 34.0979 87.6392C34.0153 87.3322 33.9309 87.0233 33.8483 86.7163C33.7837 86.481 33.7155 86.2458 33.6544 86.0088C33.6041 85.813 33.561 85.6137 33.5125 85.418C33.4605 85.2133 33.4048 85.0104 33.3455 84.8075C33.2899 84.6099 33.2306 84.416 33.175 84.2203C33.1355 84.0802 33.0941 83.9402 33.0582 83.8001C33.0295 83.6906 33.008 83.5774 32.9792 83.4661C32.9307 83.2901 32.8751 83.1177 32.8284 82.9418C32.7799 82.7586 32.7386 82.5701 32.6937 82.3851L32.6632 82.2666C32.6237 82.1337 32.577 82.0008 32.5411 81.868C32.5016 81.7243 32.4746 81.5771 32.4369 81.4334C32.3902 81.261 32.3292 81.0922 32.2825 80.9198C32.1945 80.5912 32.1119 80.2608 32.0257 79.9304C32.0006 79.8388 31.9665 79.7509 31.9431 79.6593C31.8875 79.4492 31.839 79.2373 31.7833 79.0272C31.7348 78.8423 31.6774 78.6573 31.6253 78.4723C31.5786 78.3 31.5355 78.1276 31.4888 77.9552C31.4439 77.7864 31.3937 77.6158 31.3488 77.4452C31.3146 77.3177 31.2895 77.1902 31.2554 77.0645C31.2231 76.9496 31.18 76.8365 31.1476 76.7216C31.0668 76.4271 30.9878 76.1308 30.9088 75.8345C30.8801 75.7286 30.8603 75.619 30.8316 75.5113L30.7813 75.3551L31.3919 71.7206L31.1925 71.6865L30.6323 75.0229L30.6054 75.0175L30.5605 75.0588L30.5479 75.136L30.5856 75.2994L30.0918 78.2443L30.1277 78.2497L30.2624 78.273L30.2911 78.2766L30.7095 75.7878L30.7059 75.7932Z" fill="black"/>
<path d="M24.949 62.5466L24.9796 62.5287L24.9814 62.4425L24.958 62.3312L24.9418 62.1929L24.9059 62.06L24.9095 61.9936L24.8862 61.8858L24.8898 61.7889L24.8628 61.6704L24.8503 61.4998L24.8485 61.4082L24.8287 61.3202L24.8341 61.1837L24.8108 61.0401L24.8161 60.9305L24.809 60.8318V60.7492L24.7964 60.6558L24.8072 60.5319L24.7946 60.3577L24.8054 60.32L24.7964 60.2249L24.8018 60.1512L24.7946 60.0597L24.8072 59.977L24.8 59.8442L24.8054 59.7418L24.8197 59.6377V59.5048L24.8413 59.3953L24.8485 59.3504L24.8431 59.2767L24.8628 59.1834L24.8646 59.0756L24.9077 58.8943L24.9113 58.7542L24.9329 58.7165L24.94 58.6429L24.9616 58.5621L24.9688 58.4741L25.0029 58.3717L25.0083 58.2748L25.0406 58.1742L25.0622 58.1024L25.1035 57.991L25.1286 57.9084L25.1322 57.8887L25.1448 57.8205L25.1663 57.772L25.1986 57.666L25.2543 57.5547L25.2938 57.4506L25.2776 57.4452L25.2812 57.4254L25.2202 57.3823L25.143 57.3572L25.1106 57.3787L25.0783 57.4901L25.0334 57.6014L25.0209 57.6606L24.976 57.7738L24.9383 57.8995L24.9077 57.9551L24.9005 58.0449L24.8557 58.1958L24.8161 58.3089L24.8 58.4579L24.7766 58.5746L24.7551 58.695L24.7318 58.8153L24.7156 58.9481L24.6869 59.1062L24.6833 59.2049L24.6581 59.2983L24.6509 59.3576L24.6599 59.4258L24.6366 59.564L24.6348 59.7364L24.6294 59.8855L24.624 60.0848L24.6258 60.2374L24.6078 60.3613L24.6114 60.4924L24.6258 60.6199L24.6312 60.7097L24.6222 60.7797L24.6384 60.8928L24.6276 61.0096V61.0365L24.6474 61.1209L24.6402 61.2125L24.6635 61.3238L24.6707 61.5339L24.6869 61.5896L24.6887 61.7242L24.7084 61.8427L24.7174 61.9523L24.7335 62.06L24.7353 62.139L24.7605 62.2109L24.7677 62.2522L24.7874 62.3976L24.7892 62.4659L24.8143 62.5251L24.8467 62.5592H24.8952H24.897L24.949 62.5466Z" fill="black"/>
<path d="M30.9107 53.5774L30.7635 53.6312C30.1817 53.809 29.5693 53.6025 29.2102 53.1482L28.7236 55.0534L28.6069 55.5131C28.6069 55.5274 28.6105 55.5418 28.6105 55.5562C30.0021 55.0767 30.6288 54.2579 30.9089 53.5774H30.9107Z" fill="#D87155"/>
<path d="M31.751 51.9504L31.4493 50.548L31.3128 49.9177C31.2302 49.5335 31.0111 49.2156 30.7203 49.002C30.4419 49.6556 29.2047 50.0237 29.2047 50.0237C29.325 50.5624 29.1921 50.9467 28.9856 51.2178C28.8294 51.0706 28.605 51.0077 28.3859 51.0759C28.0609 51.1747 27.8795 51.5195 27.9783 51.8427C28.0788 52.1659 28.4218 52.3491 28.745 52.2503L28.7791 52.2359L28.93 52.6148L28.9982 52.7872C29.0521 52.9201 29.1239 53.0404 29.2083 53.1481C29.5674 53.6025 30.1798 53.809 30.7616 53.6312L30.9088 53.5773C30.6287 54.2579 30.0002 55.0767 28.6103 55.5561C28.6337 56.3301 29.264 56.9496 30.0415 56.9496C30.819 56.9496 31.4762 56.3067 31.4762 55.513L31.3362 54.9636L30.9752 53.5468C31.5588 53.2595 31.891 52.6059 31.7492 51.9504H31.751ZM28.6445 51.9109C28.5062 51.9522 28.3607 51.8768 28.3176 51.7385C28.2746 51.6003 28.3518 51.4548 28.49 51.4117C28.6283 51.3704 28.7737 51.4476 28.8168 51.5841C28.8581 51.7224 28.7809 51.8678 28.6445 51.9109ZM30.9573 51.7242V51.6972L30.9339 51.6865V51.6721L30.9178 51.6667V51.6613V51.6434L30.8962 51.6308V51.6146L30.8872 51.6021L30.8621 51.5895L30.8657 51.5769L30.8495 51.568V51.5572L30.8298 51.5482L30.8352 51.541L30.81 51.5213V51.5033L30.7921 51.4943L30.7885 51.4836L30.7795 51.471V51.4548L30.7508 51.4405L30.7544 51.4189L30.7346 51.4117V51.3992L30.7203 51.3758L30.6969 51.365L30.7023 51.3489L30.6825 51.3381L30.6879 51.3273L30.6592 51.3148L30.6502 51.2968L30.6359 51.2824L30.643 51.2681L30.6736 51.2573L30.7256 51.2429L30.7741 51.2322H30.8029L30.8226 51.234V51.2447L30.8334 51.2699L30.8549 51.2753V51.2878L30.8657 51.3004L30.8711 51.3148L30.889 51.3273V51.3471L30.9034 51.3507L30.9124 51.3794L30.9375 51.3884L30.9339 51.4028L30.9555 51.4099V51.4135L30.9519 51.4315L30.9716 51.4423L30.9681 51.453L30.9806 51.4638L31.004 51.4764L31.0165 51.4925L31.0129 51.5123L31.0291 51.5302L31.0489 51.5554L31.0632 51.5733L31.0866 51.5913V51.6128L31.1081 51.6164L31.1117 51.6236L31.1063 51.6398L31.1189 51.6506L31.1279 51.6721L31.144 51.6865L31.1512 51.7026L31.1602 51.717L31.171 51.7314L31.1997 51.7457V51.7637L31.2087 51.7834L31.232 51.7888L31.2248 51.7996L31.2356 51.8158L31.2428 51.8301L31.2554 51.8355L31.2625 51.8499L31.2805 51.8607L31.2625 51.8696L31.1853 51.8912L31.1135 51.9091H31.1099L31.0937 51.9109L31.0848 51.8966V51.8786L31.0686 51.8678V51.8607L31.0542 51.8535H31.0507L31.0435 51.8409V51.8229L31.0363 51.814L31.0327 51.7996L31.0094 51.7924V51.7763L30.9914 51.7691V51.7583L30.977 51.7511L30.9896 51.7421L30.9609 51.7296L30.9573 51.7242Z" fill="#E8A690"/>
<path d="M28.6104 55.556C28.6104 55.556 28.6104 55.556 28.6122 55.556C28.6122 55.5417 28.6086 55.5273 28.6086 55.5129V55.556H28.6104Z" fill="#E8A690"/>
<path d="M28.4901 51.4116C28.3537 51.4547 28.2747 51.6001 28.3178 51.7384C28.3591 51.8767 28.5063 51.9539 28.6446 51.9108C28.781 51.8695 28.8583 51.7223 28.817 51.584C28.7757 51.4457 28.6284 51.3685 28.4901 51.4116Z" fill="#D87155"/>
<path d="M35.4322 61.1891L35.4304 61.1011L35.4089 61.0185L35.4125 60.8892L35.3783 60.7527L35.3765 60.6504L35.364 60.557L35.355 60.478L35.3316 60.3918L35.3263 60.2769L35.2903 60.1153L35.2939 60.0776L35.267 59.9914L35.2598 59.9214L35.2347 59.8388L35.2311 59.7597L35.1898 59.6394L35.1718 59.5443L35.1575 59.4455L35.1198 59.3288L35.1036 59.2228L35.0964 59.1833L35.0677 59.1187L35.0551 59.0289L35.0174 58.9373L34.9815 58.7649L34.9276 58.6482L34.9312 58.6051L34.9025 58.5423L34.8809 58.4669L34.8414 58.395L34.8181 58.2963L34.775 58.2191L34.7427 58.1257L34.7157 58.0628L34.6798 57.9587L34.6493 57.8851L34.6403 57.8689L34.608 57.8132L34.59 57.7683L34.5362 57.6822L34.4967 57.5762L34.45 57.4846L34.4356 57.4918L34.4248 57.4792L34.3548 57.5026L34.2848 57.5457L34.2776 57.5816L34.3315 57.6642L34.3763 57.7576L34.4069 57.7989L34.4536 57.894L34.4967 57.9982L34.5056 58.0521L34.5505 58.1167L34.6044 58.2442L34.6277 58.3483L34.6888 58.4669L34.7247 58.5638L34.7606 58.668L34.7894 58.7757L34.8289 58.887L34.8666 59.0271L34.8935 59.1133L34.9007 59.1995L34.9133 59.2516L34.9438 59.3072L34.9635 59.4347L35.0048 59.5838L35.0354 59.7184L35.0731 59.8944L35.1018 60.0327L35.1072 60.1476L35.1269 60.2661L35.1557 60.3793L35.1736 60.4618V60.5283L35.197 60.6288L35.1952 60.7384L35.197 60.7617L35.2203 60.8389L35.2185 60.9251L35.2437 61.0257L35.2544 61.2196L35.267 61.2735L35.2652 61.3992L35.2832 61.5087L35.285 61.6111L35.2921 61.7116L35.2885 61.7871L35.3011 61.8373L35.3047 61.8553L35.3101 62.0313L35.3029 62.0959L35.3173 62.1552L35.3424 62.1929L35.3927 62.2036L35.4466 62.2018L35.4789 62.1875L35.495 62.1013L35.4879 61.9918V61.8571L35.4645 61.7242L35.4735 61.6614L35.4573 61.5572L35.4645 61.4656L35.4591 61.4333L35.443 61.3525L35.4322 61.1891Z" fill="black"/>
<path d="M32.877 60.8228C30.4493 63.1033 27.7863 63.2955 26.9585 63.2955C26.8741 63.2955 26.8094 63.2937 26.7645 63.2919H26.7161L26.6999 63.2883L26.6819 63.4894C26.6819 63.4894 26.7825 63.4966 26.9567 63.4966C27.8132 63.4966 30.5336 63.2973 33.0135 60.9683L32.8752 60.821L32.877 60.8228Z" fill="black"/>
<path d="M28.235 63.8001H28.1866L28.1704 63.7965L28.1542 63.9976C28.1542 63.9976 28.2548 64.0066 28.429 64.0066C29.2855 64.0066 32.0059 63.8073 34.4858 61.4783L34.3475 61.3311C31.9198 63.6116 29.2568 63.8037 28.429 63.8037C28.3446 63.8037 28.2799 63.8037 28.235 63.8001Z" fill="black"/>
<path d="M30.9861 51.7529L30.9878 51.7654L31.0094 51.7726L31.0076 51.7888L31.0291 51.7978L31.0327 51.8121L31.0399 51.8211L31.0417 51.8391L31.0489 51.848L31.0507 51.8498L31.0651 51.857V51.866L31.083 51.8768L31.0812 51.8947L31.0902 51.9091L31.1064 51.9055L31.1117 51.9073L31.1836 51.8893L31.2608 51.8678L31.2805 51.857L31.2608 51.8462L31.2536 51.8319L31.241 51.8265L31.2321 51.8103L31.2213 51.7942L31.2303 51.7834L31.2069 51.778L31.1943 51.7582L31.1979 51.7403L31.1692 51.7259L31.1566 51.7116L31.1477 51.6972L31.1405 51.681L31.1243 51.6667L31.1171 51.6451L31.1028 51.6343L31.11 51.6182L31.1064 51.611L31.083 51.6074V51.5859L31.0597 51.5679L31.0453 51.55L31.0256 51.5248L31.0112 51.5069L31.0148 51.4871L31.0022 51.4709L30.9807 51.4602L30.9681 51.4494L30.9717 51.4368L30.9519 51.4261L30.9573 51.4081L30.9555 51.4045L30.934 51.3973L30.9376 51.383L30.9124 51.3722L30.9052 51.3435L30.8909 51.3399L30.8891 51.3201L30.8729 51.3075L30.8657 51.2932L30.8532 51.2788L30.855 51.2662L30.8352 51.2609L30.8209 51.2375L30.8226 51.2267L30.8047 51.2231L30.776 51.2249L30.7275 51.2357L30.6754 51.2501L30.6449 51.2609L30.6377 51.2752L30.6503 51.2896L30.6592 51.3075L30.688 51.3219L30.6808 51.3327L30.7023 51.3435L30.6952 51.3596L30.7185 51.3704L30.7311 51.3937L30.7347 51.4063L30.7544 51.4153L30.7508 51.435L30.7795 51.4494L30.7778 51.4656L30.7885 51.4781L30.7921 51.4907L30.8101 51.4997V51.5176L30.8352 51.5374L30.8298 51.5446L30.846 51.5535L30.8496 51.5643L30.8657 51.5733L30.8622 51.5859L30.8873 51.6002L30.8963 51.6128L30.8981 51.629L30.9178 51.6415V51.6595L30.9196 51.6649L30.9376 51.6721L30.9358 51.6864L30.9555 51.6972L30.9573 51.7241L30.9861 51.7367L30.9735 51.7457L30.9861 51.7529Z" fill="black"/>
</svg>
