<svg width="80" height="100" viewBox="0 0 80 100" fill="none" xmlns="http://www.w3.org/2000/svg">
<path d="M60.0113 64.7593V94.6108C56.3846 94.905 53.1721 96.6793 50.9895 99.3333H71.1677C68.9851 96.6793 65.7756 94.908 62.1459 94.6108V64.7593C61.7916 64.7773 61.4374 64.7923 61.0771 64.7923C60.7168 64.7923 60.3626 64.7803 60.0083 64.7593H60.0113Z" fill="black"/>
<path d="M76.1152 45.8691C76.0852 41.1826 73.3111 37.1536 69.3181 35.2952V45.8691H76.1152Z" fill="#FFA40E"/>
<path d="M80.0004 45.8693C79.9673 38.9971 75.494 33.1757 69.3033 31.1191C69.3123 31.3413 69.3213 31.5635 69.3213 31.7887V35.2953C73.3143 37.1507 76.0884 41.1827 76.1184 45.8693H69.3213V45.8783H58.0208L47.4138 58.9501C50.6262 62.3097 55.0666 64.4863 60.0113 64.7625C60.3656 64.7805 60.7198 64.7955 61.0801 64.7955C61.4404 64.7955 61.7947 64.7835 62.1489 64.7625C72.0774 64.2101 79.9613 56.0079 80.0004 45.9503V45.9113V45.8723V45.8693Z" fill="#A73B00"/>
<path d="M58.5402 34.9859L58.297 30.1462H58.1079V30.3774V35.0279L58.5402 34.9859Z" fill="#EAD558"/>
<path d="M63.8328 30.1463H62.5088L62.77 35.3432L62.8901 35.3222L63.0523 35.3492H63.1784H63.3105L63.4426 35.3432L63.5867 35.3522L63.7608 35.3432L63.8689 35.3522L63.971 35.3282H64.034L64.1091 35.3522L64.2622 35.3312L64.4483 35.3432H64.6134L64.8296 35.3492H64.9947L65.1298 35.3282H65.2739L65.412 35.3492L65.5111 35.3552L65.5862 35.3402L65.7093 35.3552L65.8354 35.3312H65.8624L65.9584 35.3522L66.0575 35.3342L66.1806 35.3582L66.4088 35.3432L66.4718 35.3582L66.6189 35.3402L66.751 35.3522L66.8711 35.3462H66.9882L67.0753 35.3372L67.1594 35.3612H67.3665L67.4416 35.3432L67.5106 35.3672L67.5557 35.4093L67.5707 35.4903V35.5774L67.5586 35.6314L67.4626 35.6584L67.3365 35.6525L67.1804 35.6584L67.0242 35.6314L66.9522 35.6525L66.8291 35.6344L66.724 35.6584L66.5889 35.6374L66.3998 35.6434L66.2977 35.6525L66.1986 35.6314L66.0485 35.6584L65.8864 35.6314L65.7693 35.6495H65.6582H65.5681L65.4631 35.6314L65.328 35.6525L65.1328 35.6374L65.0908 35.6525L64.9857 35.6374L64.9016 35.6434L64.7996 35.6284L64.7095 35.6464L64.5624 35.6224H64.4483L64.3342 35.6374L64.1871 35.6224L64.064 35.6404H64.016L63.9349 35.6254L63.8298 35.6434L63.7097 35.6254L63.5056 35.6495L63.3525 35.6224L63.3074 35.6495L63.2264 35.6374L63.1363 35.6464L63.0372 35.6254L62.9202 35.6464L62.8151 35.6224H62.7791L62.8391 36.7843C62.8991 37.9432 62.0045 38.9309 60.8456 38.991H60.8426L60.8996 39.2762L61.0047 39.6305L61.0678 39.8466L61.1578 40.0478L61.2149 40.1708L61.2509 40.321L61.401 40.6122L61.5781 40.9634L61.7553 41.2667L62.0165 41.648L62.2386 41.9272L62.4488 42.1343L62.665 42.3535L62.8631 42.5787L63.0222 42.7228L63.1603 42.8159L63.3615 42.996L63.6047 43.1371L63.6557 43.1671L63.8148 43.2992L64.01 43.4013L64.2321 43.5454C64.3823 43.6204 64.5324 43.6985 64.6915 43.7526L64.8146 43.8186L65.1208 43.9237L65.391 44.0198L65.6462 44.0888L65.9014 44.1579L66.0965 44.1789L66.2707 44.2389C66.4208 44.2749 66.5709 44.2869 66.727 44.2959H66.8921L67.0453 44.332L67.1383 44.38L67.1594 44.4641L67.1443 44.5512L67.1053 44.6022L66.8771 44.6112L66.5859 44.5782L66.2286 44.5331L65.8864 44.44L65.7183 44.4281L65.4541 44.332L65.2109 44.287L64.9287 44.1639C64.7936 44.1068 64.6585 44.0558 64.5204 44.0047L64.3042 43.9147L64.1151 43.7916L63.7998 43.6535L63.5086 43.4283L63.2714 43.2932L63.0763 43.1341L62.9112 43.008L62.74 42.8459L62.5088 42.6477L62.2146 42.3295L62.1396 42.2664L62.0015 42.0773L61.8754 41.9422L61.7553 41.75L61.6232 41.5909L61.4581 41.3057L61.335 41.0865L61.1969 40.8674L61.0738 40.5702L60.9477 40.324L60.8996 40.2279L60.8576 40.0537L60.7675 39.8376L60.7045 39.5854C60.6565 39.4413 60.6144 39.2972 60.5784 39.1471L60.5604 38.985L60.3682 38.958H58.1225V41.2276C57.8373 40.7803 57.399 40.0268 56.9036 38.9519L54.1085 38.9459C55.1053 41.0715 56.4173 43.047 58.1225 44.7403V45.8842H69.333V31.7945C69.333 31.5694 69.324 31.3472 69.315 31.125C69.0147 23.2111 63.4305 16.6511 55.9909 14.8738C60.6925 17.9661 63.8479 23.6494 63.8479 30.1553L63.8328 30.1463Z" fill="#EAD558"/>
<path d="M60.5662 39.141C60.6023 39.2881 60.6443 39.4352 60.6923 39.5793L60.7554 39.8315L60.8454 40.0477L60.8875 40.2218L60.9355 40.3178L61.0616 40.564L61.1847 40.8613L61.3228 41.0804L61.4459 41.2996L61.611 41.5848L61.7431 41.7439L61.8632 41.9361L61.9893 42.0712L62.1274 42.2603L62.2025 42.3234L62.4967 42.6416L62.7279 42.8397L62.899 43.0019L63.0641 43.1279L63.2593 43.2871L63.4964 43.4222L63.7877 43.6474L64.1029 43.7855L64.292 43.9086L64.5082 43.9986C64.6463 44.0526 64.7814 44.1007 64.9165 44.1577L65.1987 44.2808L65.4419 44.3259L65.7061 44.4219L65.8742 44.434L66.2165 44.527L66.5738 44.5721L66.865 44.6051L67.0931 44.5961L67.1322 44.545L67.1472 44.458L67.1262 44.3739L67.0331 44.3259L66.88 44.2898H66.7149C66.5617 44.2838 66.4086 44.2718 66.2585 44.2328L66.0844 44.1728L65.8892 44.1517L65.634 44.0827L65.3789 44.0136L65.1086 43.9175L64.8024 43.8125L64.6793 43.7464C64.5172 43.6924 64.3701 43.6143 64.22 43.5393L63.9978 43.3952L63.8027 43.2931L63.6436 43.161L63.5925 43.1309L63.3493 42.9899L63.1482 42.8097L63.0101 42.7166L62.8509 42.5725L62.6528 42.3474L62.4366 42.1282L62.2265 41.9211L62.0043 41.6418L61.7431 41.2605L61.566 40.9573L61.3888 40.6061L61.2387 40.3148L61.2027 40.1647L61.1457 40.0416L61.0556 39.8405L60.9925 39.6243L60.8875 39.27L60.8304 38.9848L60.5332 38.9758L60.5512 39.138L60.5662 39.141Z" fill="black"/>
<path d="M62.8183 35.6195L62.9233 35.6435L63.0404 35.6225L63.1395 35.6435L63.2296 35.6345L63.3106 35.6465L63.3557 35.6195L63.5058 35.6465L63.7129 35.6225L63.83 35.6405L63.9351 35.6225L64.0162 35.6435L64.0642 35.6375L64.1873 35.6195L64.3344 35.6345L64.4485 35.6225L64.5626 35.6195L64.7097 35.6435L64.7997 35.6255L64.9018 35.6405L64.9859 35.6315L65.091 35.6495L65.13 35.6315L65.3251 35.6495L65.4602 35.6285L65.5623 35.6465L65.6554 35.6405L65.7665 35.6435L65.8836 35.6255L66.0457 35.6525L66.1958 35.6255L66.2949 35.6465L66.3969 35.6345L66.5891 35.6285L66.7212 35.6525L66.8263 35.6255L66.9494 35.6435L67.0214 35.6255L67.1775 35.6495L67.3307 35.6435L67.4597 35.6525L67.5558 35.6255L67.5678 35.5685V35.4814L67.5528 35.4003L67.5078 35.3583L67.4357 35.3373L67.3607 35.3493L67.1565 35.3523L67.0725 35.3313L66.9854 35.3433L66.8653 35.3403L66.7452 35.3463L66.6131 35.3343L66.469 35.3523L66.4029 35.3403L66.1748 35.3553L66.0517 35.3313L65.9526 35.3493L65.8565 35.3283H65.8295L65.7034 35.3523L65.5773 35.3403L65.5023 35.3553L65.4032 35.3463L65.2651 35.3283L65.121 35.3253L64.9859 35.3523L64.8208 35.3463H64.6046L64.4395 35.3403L64.2533 35.3283L64.1032 35.3493L64.0282 35.3223L63.9651 35.3253L63.863 35.3493L63.758 35.3403L63.5838 35.3493L63.4397 35.3403L63.3076 35.3493H63.1755L63.0494 35.3463L62.8873 35.3223L62.7672 35.3433L62.7822 35.6225L62.8183 35.6195Z" fill="black"/>
<path d="M16.556 93.1008L20.7052 93.8003L20.9904 91.3505L16.8352 90.708L16.556 93.1008Z" fill="#E8A690"/>
<path d="M21.5612 98.5977L21.5192 98.6458L21.315 98.6308L21.0598 98.5707L20.7416 98.5107L20.4353 98.4206L20.2852 98.4086L20.042 98.3396L19.8199 98.3186L19.5557 98.2405L19.1654 98.1654L18.9552 98.1324L18.7601 98.0693L18.4508 98.0333L18.1296 97.9373L17.8804 97.9042L17.6583 97.8562L17.4721 97.8232L17.265 97.7631L16.9857 97.7241L16.5954 97.628H16.5054L16.2982 97.565L16.1271 97.538L15.926 97.4809L15.7368 97.4599L15.4426 97.3758L15.2144 97.3308L14.9772 97.2948L14.686 97.2167L14.4308 97.1837L14.3317 97.1687L14.1726 97.1146L13.9565 97.0876L13.7223 97.0216C13.5842 96.9945 13.4401 96.9855 13.302 96.9585L13.0017 96.8684L12.9027 96.8745L12.7405 96.8294L12.5544 96.7994L12.3653 96.7394L12.1191 96.7094L11.9179 96.6433L11.6807 96.6042L11.5156 96.5712L11.2484 96.5292L11.0593 96.4902L11.0173 96.4782L10.8671 96.4361L10.747 96.4181L10.5099 96.3521L10.2307 96.319L10.0055 96.271C9.84337 96.6072 9.72328 96.9675 9.65723 97.3548L14.4368 98.1594L21.4441 99.3393L21.5822 98.5257L21.5552 98.6038L21.5612 98.5977Z" fill="black"/>
<path d="M15.3285 92.8936L15.0944 94.2867C14.8362 94.1846 14.566 94.1065 14.2838 94.0615C12.5995 93.7763 10.9903 94.5899 10.1707 95.974L10.3178 96.013L10.573 96.064L10.6991 96.1031L10.9603 96.1541L11.2425 96.2111L11.3776 96.2172L11.5607 96.2832L11.903 96.3492L12.1672 96.3823L12.4824 96.4753L12.7376 96.5324L13.0048 96.5894L13.275 96.6375L13.5632 96.7065L13.9175 96.7696L14.1306 96.8236L14.3438 96.8416L14.4729 96.8657L14.614 96.9227L14.9292 96.9677L15.3015 97.0608L15.6318 97.1328C15.7789 97.1628 15.923 97.1929 16.0701 97.2259L16.4034 97.301L16.6856 97.334L16.9738 97.394L17.25 97.4721L17.4481 97.5201L17.6073 97.5382L17.8534 97.6042L18.1206 97.6342L18.1777 97.6432L18.3638 97.7033L18.571 97.7273L18.8112 97.8024C18.9673 97.8354 19.1234 97.8564 19.2795 97.8834L19.4056 97.9254L19.7058 97.9705L19.967 98.0365L20.2132 98.0815L20.4534 98.1386L20.6335 98.1596L20.7927 98.2167C20.9308 98.2497 21.0719 98.2737 21.213 98.3007L21.3661 98.3157L21.5012 98.3698L21.5792 98.4268V98.5079L22.3298 94.0705L20.6996 93.7973L16.5505 93.0978L15.3195 92.8906L15.3285 92.8936Z" fill="#5B2C16"/>
<path d="M25.6376 37.6219H13.6886C14.208 37.8501 14.7934 38.0692 15.4179 38.2674C17.1622 38.8198 18.7414 39.048 19.555 38.9159L35.9744 38.9519C36.1335 38.9819 36.2956 38.9939 36.4637 38.9849C36.8691 38.9639 37.2383 38.8288 37.5506 38.6157V37.6189H25.6376V37.6219Z" fill="#CC6D1B"/>
<path d="M55.9912 45.8782L55.8561 46.0824L55.1956 46.854L54.5201 47.6766L54.1658 48.0849L53.4813 48.9195L52.7337 49.8262C52.6166 49.9703 52.5175 50.1264 52.3974 50.2675L51.8751 50.856L50.9714 51.9518C50.7432 52.231 50.53 52.5223 50.2989 52.8015L49.4252 53.8162L48.7407 54.6388L48.0292 55.4975L47.3176 56.3682L46.54 57.2958L45.6093 58.4367L45.0299 59.1242L44.4925 59.8117C44.3814 59.9528 44.2673 60.094 44.1502 60.2291C44.0181 60.3822 43.871 60.5233 43.7419 60.6824L42.9313 61.6942L41.9226 62.8891L41.0369 63.9548L39.872 65.3569L39.3046 66.0324L39.3616 66.4497L39.5418 67.5966L39.6979 68.7915L39.833 69.9504L39.9351 70.779C39.9651 70.9952 40.0101 71.2083 40.0401 71.4245L40.1602 72.4573C40.2113 72.8175 40.2713 73.1748 40.3284 73.5351L40.3614 73.7662C40.3884 74.0304 40.4094 74.2946 40.4454 74.5588C40.4815 74.8411 40.5415 75.1203 40.5745 75.3995C40.6196 75.7388 40.6406 76.078 40.6856 76.4142L40.9588 78.3447C40.9828 78.5218 40.9889 78.705 41.0159 78.8821L41.199 80.113L41.3311 81.2059L41.4722 82.2176L41.5983 83.2174C41.6343 83.4635 41.6824 83.7127 41.7124 83.9589L41.7785 84.6404L42.0126 86.3787L42.1087 87.0032C42.1327 87.1954 42.1507 87.3905 42.1627 87.5827L42.1687 87.9459L42.0967 88.03L42.0036 87.988L41.9316 87.8589C41.8805 87.5827 41.8325 87.3094 41.7935 87.0362L41.6614 85.9735L41.4812 84.6675L41.3371 83.3795C41.3131 83.1783 41.2621 82.9772 41.235 82.776L41.118 81.7523C41.0759 81.455 41.0129 81.1578 40.9738 80.8576L40.8477 79.7438L40.6286 78.1405L40.5055 77.2819C40.4695 77.0087 40.4545 76.7325 40.4184 76.4593C40.3584 76.0359 40.2773 75.6156 40.2233 75.1953L40.0702 73.8473C40.0281 73.5111 39.9651 73.1748 39.917 72.8386L39.797 71.9108L39.6889 71.1483C39.6529 70.8601 39.6288 70.5688 39.5928 70.2806L39.4187 69.1428L39.2175 67.5275L39.1545 67.1673L39.0554 66.2966L39.0074 65.9604L39.3286 65.5641L39.881 64.9216C40.0461 64.7204 40.1963 64.5103 40.3644 64.3091L41.175 63.3664L41.7815 62.6309L42.3999 61.8653L43.1955 60.9316C43.4207 60.6614 43.6339 60.3852 43.853 60.109L44.1112 59.7907C44.2583 59.6196 44.4144 59.4545 44.5585 59.2803L45.114 58.5808C45.3241 58.3286 45.5493 58.0854 45.7595 57.8303L46.8523 56.4732C47.1225 56.146 47.4107 55.8338 47.6869 55.5095L47.9181 55.1882L48.3624 54.6689L48.8488 54.0684C49.0229 53.8613 49.2121 53.6661 49.3832 53.4559L50.0107 52.6663C50.1938 52.4442 50.3949 52.24 50.5781 52.0208L51.2026 51.2523L51.6409 50.7209L52.3314 49.8622L52.8388 49.2468L52.9529 49.1117L53.3702 48.6283L53.6794 48.241L54.3309 47.4785L55.0424 46.5838L55.6129 45.8963H37.5603V45.623L17.6283 64.3301L15.7158 90.5489L16.8447 90.723L20.9998 91.3655L23.7919 91.7948L27.2745 67.7077L31.7569 63.9278L31.85 63.7897L32.0031 63.5886C32.0962 63.4505 32.1862 63.3094 32.2793 63.1682C32.3814 63.0151 32.4834 62.8681 32.5825 62.7119L32.7086 62.4868L32.9368 62.1985C33.0629 62.0184 33.183 61.8323 33.3031 61.6461C33.3931 61.505 33.4712 61.3549 33.5643 61.2138C33.6814 61.0427 33.8134 60.8775 33.9335 60.7094L34.0656 60.5143L33.5402 60.9166L33.222 61.1388L32.6065 61.6071L31.937 62.1145L31.6338 62.3697C31.4837 62.4808 31.3186 62.5738 31.1685 62.6849C30.8953 62.886 30.625 63.0902 30.3578 63.3004C30.1537 63.4595 29.9586 63.6306 29.7544 63.7837C29.4962 63.9759 29.232 64.153 28.9708 64.3391L28.3583 64.7985L27.7219 65.2788L27.0854 65.7682L26.3889 66.2816L25.5542 66.9241L25.0468 67.2934L24.9958 67.3354L24.9688 67.7407L24.9238 68.125C24.9027 68.2691 24.8637 68.4102 24.8457 68.5543L24.7556 69.479L24.6085 70.5869L24.4884 71.5716L24.3293 72.8686L24.2062 73.8623L24.1342 74.6909C24.1041 74.9761 24.0681 75.2614 24.0291 75.5466L23.909 76.3752L23.8309 76.9667C23.8159 77.1228 23.8129 77.2789 23.7919 77.432C23.7619 77.6782 23.7168 77.9244 23.6898 78.1706C23.6598 78.4288 23.6448 78.69 23.6208 78.9482L23.6028 79.1163C23.5727 79.3024 23.5367 79.4915 23.5127 79.6807C23.4887 79.8818 23.4857 80.086 23.4587 80.2872C23.4286 80.5273 23.3776 80.7675 23.3476 81.0107L23.1975 82.3977L23.1374 82.779L23.0503 83.6647L22.9453 84.4453L22.8672 85.1718L22.7771 85.8864C22.7561 86.0635 22.7501 86.2437 22.7291 86.4208C22.7081 86.5829 22.6691 86.742 22.648 86.9041L22.5009 88.1501C22.4859 88.3002 22.4799 88.4533 22.4619 88.6034C22.4439 88.7415 22.4169 88.8796 22.3899 89.0147L22.3178 89.2669L22.2307 89.312L22.1467 89.2639L22.1046 89.1588C22.1136 88.9607 22.1256 88.7596 22.1497 88.5614L22.2487 87.8048L22.3538 86.8681L22.4889 85.9494C22.5069 85.8053 22.5039 85.6582 22.522 85.5111C22.552 85.2679 22.597 85.0247 22.627 84.7816C22.651 84.5654 22.6541 84.3492 22.6811 84.1361C22.7111 83.8689 22.7651 83.6077 22.7982 83.3405L22.9303 82.1906C22.9513 81.9865 22.9663 81.7793 22.9933 81.5721C23.0173 81.377 23.0624 81.1849 23.0864 80.9897C23.1194 80.6865 23.1314 80.3772 23.1674 80.077C23.2065 79.7558 23.2695 79.4375 23.3085 79.1163C23.3416 78.8761 23.3536 78.6299 23.3776 78.3867L23.4587 77.7232L23.5187 77.1768C23.5457 76.9697 23.5877 76.7655 23.6118 76.5584L23.6898 75.7387L23.8429 74.5829L23.858 74.3217L23.948 73.7002L24.0021 73.2018L24.0891 72.6014C24.1101 72.4182 24.1131 72.2291 24.1372 72.046L24.2633 71.1663C24.2933 70.9411 24.3203 70.7129 24.3413 70.4878L24.4104 69.7882L24.5305 68.9206C24.5605 68.6714 24.5785 68.4192 24.5995 68.17L24.6295 67.8788C24.6536 67.7197 24.6866 67.5606 24.7046 67.3985L24.7226 67.2033C24.8817 67.0772 24.9928 66.9811 25.1219 66.885C25.311 66.7439 25.5122 66.6178 25.6983 66.4737L26.6801 65.7022C26.9233 65.519 27.1785 65.3539 27.4246 65.1768L27.6348 64.9846L28.0341 64.6994L28.4694 64.3572C28.6255 64.2431 28.7937 64.141 28.9468 64.0239L29.5112 63.5736C29.6763 63.4505 29.8505 63.3454 30.0186 63.2253C30.2077 63.0842 30.3909 62.9341 30.577 62.79L30.9703 62.4927L31.5918 62.0064L32.0481 61.6641L32.1532 61.5921L32.5255 61.3279L32.8047 61.1087C32.9968 60.9676 33.198 60.8325 33.3871 60.6884L34.0266 60.178L34.588 59.7547L34.7892 59.4455C34.8943 59.2894 35.0054 59.1392 35.1104 58.9831C35.2365 58.794 35.3566 58.5988 35.4857 58.4067L35.7259 58.0644L35.933 57.7132L36.0711 57.503L36.2513 57.2808C36.3624 57.1127 36.4584 56.9356 36.5695 56.7674C36.7046 56.5663 36.8487 56.3681 36.9868 56.17C37.1099 55.9929 37.227 55.8127 37.3471 55.6356C37.5062 55.4014 37.6654 55.1642 37.8215 54.9301C37.9446 54.7499 38.0707 54.5728 38.1877 54.3896C38.2868 54.2395 38.3679 54.0804 38.467 53.9273C38.569 53.7682 38.6741 53.6151 38.7822 53.4619C38.8873 53.3118 38.9984 53.1677 39.1034 53.0206L39.3256 52.7024L39.4817 52.4412C39.5718 52.3061 39.6769 52.183 39.7639 52.0449C39.857 51.9038 39.9381 51.7566 40.0281 51.6095L40.0852 51.5195L40.3104 51.2223L40.5145 50.883L40.7997 50.5017C40.9678 50.2495 41.127 49.9913 41.2921 49.7391L41.4452 49.538C41.5503 49.3759 41.6464 49.2078 41.7514 49.0456C41.8445 48.9045 41.9496 48.7694 42.0457 48.6283L42.3038 48.229L42.568 47.8417L42.7482 47.5445L42.9463 47.2923C43.0995 47.0671 43.2496 46.839 43.3997 46.6108L43.5498 46.3586L43.7209 46.1454L43.85 46.0283L43.9371 46.0434L43.9971 46.1124L44.0061 46.1965L43.811 46.5357C43.7209 46.6769 43.6218 46.8089 43.5288 46.944C43.4147 47.1152 43.3096 47.2893 43.1925 47.4604C43.0784 47.6256 42.9493 47.7847 42.8352 47.9468L42.6911 48.196L42.4089 48.5863L42.1928 48.9525C42.0967 49.0967 41.9826 49.2318 41.8835 49.3729C41.7424 49.58 41.6043 49.7932 41.4692 50.0033L41.2531 50.3456L41.0219 50.6548C40.9138 50.823 40.8237 51.0001 40.7127 51.1682C40.5956 51.3423 40.4575 51.5045 40.3374 51.6786L40.0882 52.0839L39.845 52.4442L39.6498 52.7444L39.4097 53.0746C39.3106 53.2218 39.2295 53.3809 39.1275 53.531C38.9864 53.7412 38.8362 53.9453 38.6921 54.1555L38.6111 54.3056L38.3709 54.6358L38.1938 54.912L37.9626 55.2333L37.7764 55.5455C37.6654 55.7047 37.5453 55.8578 37.4342 56.0139L37.191 56.3861L36.9478 56.7735C36.8397 56.9326 36.7226 57.0827 36.6146 57.2388C36.5245 57.3739 36.4434 57.518 36.3564 57.6561L36.2543 57.8182L36.0621 58.0704L35.846 58.4247L35.5728 58.797C35.4257 59.0221 35.2906 59.2593 35.1405 59.4845L34.8853 59.8357V59.9078L34.7381 60.0669L34.7081 60.13L34.522 60.3912L34.3298 60.6944L34.1017 60.9976L33.8585 61.3999L33.6153 61.7212L33.3661 62.1115L33.189 62.3787C33.0959 62.5228 33.0089 62.6699 32.9158 62.814L32.7086 63.1232L32.6606 63.1893L32.6065 63.2643L32.6966 63.1893L31.5407 64.9967L36.1042 90.8882L36.9838 90.8041L41.172 90.4078L44.2373 90.1196L41.7304 66.0354L47.4347 59.0071L58.0417 45.9353H56.0152L55.9912 45.8782Z" fill="#33673B"/>
<path d="M37.3825 93.8723L41.6127 93.7732L41.1503 90.3477L36.9622 90.744L37.3825 93.8723Z" fill="#E8A690"/>
<path d="M36.5546 93.8904L36.5877 95.3044C36.3175 95.2534 36.0353 95.2264 35.75 95.2354C34.0448 95.2744 32.6157 96.3762 32.0723 97.8894L32.2224 97.9014H32.4836L32.6157 97.9164H32.8799L33.1651 97.9194L33.3002 97.8984L33.4923 97.9284H33.8376L34.1018 97.9104L34.432 97.9434L34.6932 97.9495H34.9664H35.2427L35.5399 97.9614H35.9001L36.1193 97.9674L36.3325 97.9464H36.4646L36.6147 97.9765L36.9329 97.9614L37.3142 97.9825L37.6535 97.9915C37.8036 97.9915 37.9507 97.9975 38.1008 98.0005L38.4431 98.0095L38.7283 97.9885L39.0225 97.9945L39.3107 98.0185L39.5149 98.0275L39.674 98.0125L39.9292 98.0335L40.1964 98.0125H40.2534L40.4486 98.0365L40.6557 98.0215L40.9049 98.0485C41.064 98.0485 41.2232 98.0425 41.3823 98.0395L41.5144 98.0575L41.8176 98.0455L42.0878 98.0605H42.337L42.5832 98.0665L42.7663 98.0545L42.9344 98.0815C43.0756 98.0845 43.2197 98.0845 43.3638 98.0815L43.5169 98.0695L43.661 98.0936L43.7511 98.1356L43.7721 98.2196L43.667 93.7192L41.6195 93.7673L37.3893 93.8663L36.5606 93.8844L36.5546 93.8904Z" fill="#5B2C16"/>
<path d="M43.7504 98.3156L43.7174 98.3696L43.5132 98.3936L43.252 98.3816H42.9308L42.6125 98.3516L42.4624 98.3666L42.2102 98.3456L41.9881 98.3666L41.7119 98.3396H41.3156L41.1054 98.3456L40.9012 98.3216L40.589 98.3426L40.2558 98.3096L40.0066 98.3246L39.7784 98.3186H39.5893L39.3761 98.3005L39.0939 98.3156L38.6946 98.2945L38.6045 98.3096L38.3883 98.2886L38.2142 98.2945L38.0071 98.2765L37.8149 98.2916L37.5117 98.2645H37.2775L37.0373 98.2705L36.7371 98.2495L36.4819 98.2645H36.3798L36.2147 98.2465L35.9955 98.2585L35.7524 98.2375C35.6113 98.2375 35.4702 98.2555 35.326 98.2555L35.0138 98.2225L34.9177 98.2495L34.7496 98.2375L34.5605 98.2435L34.3593 98.2195L34.1131 98.2345L33.903 98.2075L33.6598 98.2135H33.4917L33.2215 98.2225H33.0263L32.9813 98.2165L32.8252 98.2015L32.7051 98.2075L32.4589 98.1895L32.1797 98.2075H31.9515C31.8554 98.5648 31.8044 98.943 31.8134 99.3333L39.8324 99.1502L43.7654 99.0601L43.7474 98.2315L43.7354 98.3156H43.7504Z" fill="black"/>
<path d="M50.3464 12.613C50.1663 12.58 49.9801 12.556 49.797 12.532C49.9801 12.559 50.1663 12.583 50.3464 12.613Z" fill="#9EB6AB"/>
<path d="M52.1391 13.0482L52.019 13.0122L52.1391 13.0512V13.0482Z" fill="#9EB6AB"/>
<path d="M41.9076 34.8509C42.451 35.1331 42.9524 35.4273 43.3997 35.7185H51.1275L52.7878 35.5534C52.5416 34.7638 52.3314 33.9652 52.1483 33.1606L51.8 33.1095L51.6109 33.1006L51.3527 33.0195C51.1936 32.9835 51.0374 32.9534 50.8783 32.9264L50.5121 32.8754C50.3619 32.8424 50.2178 32.7943 50.0677 32.7583L49.7134 32.6682L49.3442 32.5752L48.9719 32.4881L48.5726 32.377C48.4105 32.341 48.2483 32.2929 48.0892 32.2479L47.798 32.1488L47.5068 32.0858L47.3327 32.0348L47.1435 31.9477C47.0024 31.9086 46.8583 31.8787 46.7172 31.8276C46.5491 31.7676 46.3869 31.6955 46.2218 31.6325L45.7805 31.4673C45.5853 31.4013 45.3962 31.3172 45.2071 31.2361C45.0599 31.1761 44.9188 31.107 44.7687 31.05L44.3964 30.9239L44.0242 30.7498L43.6729 30.5636L43.4207 30.4376L43.2136 30.3565L42.9073 30.1793L42.5681 30.0292L42.496 29.9932L42.2678 29.8491L42.0096 29.723L41.7244 29.5279C41.5353 29.4168 41.3371 29.3207 41.151 29.2006L41.0039 29.0896L40.6406 28.8794L40.3404 28.6572L40.0552 28.4681L39.782 28.2639L39.5688 28.1258L39.4007 27.9667L38.9413 27.5944L38.7702 27.4683L38.6411 27.3182L38.5841 27.2071L38.6231 27.1321L38.6952 27.078L38.7612 27.066L38.9774 27.2281L39.2386 27.4623L39.5808 27.7295L39.9081 28.0117L40.0822 28.1198L40.3554 28.33L40.6166 28.4831L40.9168 28.7083C41.0669 28.8073 41.2231 28.9004 41.3762 28.9935L41.6284 29.1346L41.8565 29.2937L42.2408 29.4858L42.6281 29.726L42.9374 29.8701L43.2136 30.0172L43.4447 30.1313L43.7029 30.2724L44.0602 30.4195C44.2283 30.4946 44.3844 30.5937 44.5526 30.6627L44.6727 30.6958L44.9399 30.8248L45.159 30.9089L45.4172 31.032L45.6634 31.1161L46.0507 31.2812L46.3539 31.3893L46.6692 31.4914L47.0534 31.6444L47.3957 31.7315L47.5278 31.7675L47.741 31.8516L48.0322 31.9237L48.3474 32.0378C48.5336 32.0978 48.7317 32.1158 48.9209 32.1669C49.059 32.2029 49.1941 32.2599 49.3322 32.299L49.4673 32.305L49.6894 32.371L49.9446 32.4281L50.2088 32.5091L50.5481 32.5571L50.8303 32.6382L51.1605 32.6952L51.3887 32.7403L51.758 32.8003L52.0252 32.8394L52.0822 32.8514C50.8993 27.4023 51.0615 21.8211 51.4368 17.9812C50.398 18.6537 49.161 19.05 47.831 19.05C44.6817 19.05 42.0517 16.8613 41.3612 13.9221C38.533 15.3122 36.1312 17.5759 34.45 20.416L38.8783 33.641C39.7069 33.8451 40.7847 34.2654 41.9106 34.8509H41.9076ZM39.1095 23.5173L39.1785 23.4603L39.2356 23.4423L39.4037 23.5594L39.6018 23.7425L39.866 23.9496L40.1122 24.1748L40.2473 24.2529L40.4515 24.421L40.6556 24.5351L40.8838 24.7152L41.2351 24.9374L41.4302 25.0485L41.6043 25.1746L41.9016 25.3187L42.1928 25.5138L42.433 25.6249L42.6461 25.742L42.8263 25.8291L43.0214 25.9432L43.2976 26.0542L43.6729 26.2494L43.766 26.2704L43.9701 26.3755L44.1413 26.4385L44.3394 26.5406L44.5316 26.6037L44.8258 26.7388L45.0569 26.8228L45.3031 26.9009L45.5974 27.027L45.8646 27.09L45.9666 27.1201L46.1287 27.1921L46.3539 27.2462L46.5971 27.3422C46.7412 27.3903 46.8943 27.4022 47.0414 27.4413L47.3567 27.5554H47.4648L47.6359 27.6124L47.834 27.6545L48.0352 27.7235L48.2964 27.7565L48.5125 27.8256L48.7677 27.8706L48.9449 27.9066L49.2301 27.9517L49.4372 27.9847L49.4823 27.9937L49.6474 28.0328L49.7765 28.0447L50.0347 28.0988L50.3349 28.1228L50.6021 28.1648V28.1918L50.6441 28.2039L50.6562 28.327L50.6201 28.456L50.5361 28.4801L50.2719 28.423L49.9927 28.384L49.8516 28.348L49.5663 28.3089L49.2601 28.2609H49.113L48.9148 28.1859L48.5456 28.1108L48.2604 28.0748L47.9181 27.9757L47.6449 27.9036L47.3597 27.8286L47.0715 27.7595L46.7652 27.6695L46.39 27.5674L46.1648 27.4863L45.9366 27.4383L45.8015 27.3963L45.6544 27.3212L45.3241 27.2281L44.9429 27.072L44.6036 26.9429C44.4535 26.8889 44.3064 26.8228 44.1593 26.7598L43.82 26.6127L43.5318 26.5166L43.2466 26.3785L42.9764 26.2254L42.7812 26.1233L42.6191 26.0632L42.3849 25.9191L42.1207 25.8051L42.0667 25.778L41.8926 25.661L41.6914 25.5649L41.4722 25.4058C41.3251 25.3187 41.172 25.2436 41.0279 25.1536L40.9168 25.0635L40.6346 24.9014L40.4064 24.7273L40.1843 24.5801L39.9741 24.418L39.809 24.3129L39.6829 24.1838L39.3316 23.8956L39.1995 23.7995L39.1035 23.6795L39.0644 23.5864L39.1095 23.5143V23.5173Z" fill="#9EB6AB"/>
<path d="M54.3153 30.0264V29.9663V29.7772L54.3213 29.6541V29.462L54.3484 29.2458L54.3394 28.9606C54.3424 28.8255 54.3604 28.6904 54.3694 28.5553L54.3574 28.4652L54.3814 28.246V28.0719L54.4024 27.8617L54.3934 27.6666L54.4294 27.3604L54.4354 27.1232V26.88L54.4594 26.5768L54.4504 26.3156V26.2135L54.4745 26.0454L54.4655 25.8232L54.4925 25.577C54.4925 25.4329 54.4805 25.2888 54.4865 25.1447L54.5255 24.8265L54.5015 24.7274L54.5195 24.5592V24.3671L54.5465 24.166L54.5375 23.9168L54.5705 23.7036V23.4574L54.5735 23.2863V23.0131V22.8149L54.5795 22.7699L54.5976 22.6108V22.4877L54.6186 22.2385L54.6066 21.9563L54.6156 21.7011H54.6426L54.6486 21.6591L54.7717 21.6381L54.9038 21.6591L54.9398 21.7341L54.9128 21.9863L54.9068 22.2505L54.8888 22.3826L54.8828 22.6528L54.8738 22.944L54.8918 23.0822L54.8557 23.2773L54.8467 23.6286L54.8587 23.8988L54.8197 24.232L54.8077 24.4992L54.7987 24.7754V25.0546L54.7777 25.3549V25.7211L54.7567 25.9463L54.7717 26.1625V26.2946L54.7357 26.4477L54.7447 26.7689L54.7146 27.1562L54.6996 27.5015L54.6786 27.9548L54.6606 28.3001L54.6756 28.5883L54.6636 28.8885L54.6306 29.1767L54.6156 29.3839L54.6246 29.546L54.6005 29.7982L54.6156 30.0234V30.0714V30.0864L54.7537 30.1134L54.9488 30.1044L55.201 30.1375C55.3631 30.1435 55.5222 30.1375 55.6844 30.1375L55.8195 30.1585L56.1287 30.1525L56.4019 30.1765H56.6541L56.9033 30.1915L57.0894 30.1855L57.2606 30.2155C57.4047 30.2215 57.5488 30.2245 57.6959 30.2275L57.852 30.2185L57.9961 30.2455L58.0862 30.2906L58.1042 30.3746V30.1464H63.8265C63.8265 23.6405 60.6741 17.9573 55.9696 14.865C55.4322 14.5107 54.8738 14.1924 54.2973 13.9072C53.4357 20.5062 53.6518 25.8502 54.3093 30.0234L54.3153 30.0264Z" fill="#9EB6AB"/>
<path d="M47.831 19.0469C49.161 19.0469 50.3979 18.6507 51.4367 17.9781C51.7189 15.0479 52.1212 13.1295 52.1392 13.0514L52.0221 13.0124L51.9831 13.0004C51.7429 12.9283 51.4967 12.8623 51.2506 12.8052L51.1725 12.7842C50.9443 12.7272 50.7102 12.6821 50.479 12.6401L50.3499 12.6131C50.1697 12.5801 49.9836 12.5561 49.8005 12.532L49.0469 9.58079L49.7915 12.499L49.7975 12.526C46.9333 12.526 46.474 10.7217 46.0536 9.56881C46.4619 9.90806 46.9873 10.1122 47.5578 10.1122C48.1282 10.1122 48.6386 9.91404 49.0469 9.58079C49.5303 9.18749 49.8605 8.60506 49.9146 7.93856L49.9836 7.07992C50.1277 7.15798 50.2898 7.20903 50.467 7.20903C51.0254 7.20903 51.4757 6.75566 51.4757 6.20024C51.4757 5.64482 51.0554 5.23052 50.524 5.1975L50.467 5.19149C49.9115 5.19149 49.4612 5.64482 49.4612 6.20024L49.4762 6.35035C48.5485 6.12218 48.8728 5.10144 48.8728 5.10144C47.2876 5.26356 45.9366 4.95731 44.9038 4.552L45.198 7.95359C45.255 8.60208 45.5703 9.1695 46.0356 9.55979L45.252 12.6281L45.18 12.6431C44.9488 12.6882 44.7176 12.7332 44.4865 12.7872L44.4054 12.8082C44.1592 12.8683 43.916 12.9313 43.6759 13.0034L43.6368 13.0154C43.3816 13.0935 43.1294 13.1745 42.8803 13.2646H42.8742C42.3939 13.4417 41.9255 13.6459 41.4632 13.868C41.4272 13.886 41.3911 13.8981 41.3551 13.9131C41.3551 13.9161 41.3551 13.9191 41.3551 13.9221C42.0456 16.8613 44.6786 19.0499 47.825 19.0499L47.831 19.0469ZM50.464 5.77094C50.7011 5.77094 50.8933 5.96306 50.8933 6.20024C50.8933 6.43742 50.7011 6.62958 50.464 6.62958C50.2268 6.62958 50.0376 6.43742 50.0376 6.20024C50.0376 5.96306 50.2298 5.77094 50.464 5.77094Z" fill="#CC6D1B"/>
<path d="M58.1076 30.3774L58.0955 30.4645L58.0595 30.5185L57.8524 30.5366L57.5882 30.5185L57.2609 30.5126L56.9397 30.4735L56.7865 30.4885L56.5314 30.4615L56.3062 30.4795L56.027 30.4465L55.6247 30.4375H55.4085L55.2044 30.4105L55.0452 30.4195L54.8441 30.4255C54.673 30.4255 54.5228 30.4015 54.3757 30.3895C54.688 32.2629 55.0843 33.8901 55.5106 35.2861L58.1076 35.0279V30.3774Z" fill="#9EB6AB"/>
<path d="M58.1077 41.2217V38.949H56.8888C57.3842 40.0208 57.8225 40.7773 58.1077 41.2217Z" fill="#9EB6AB"/>
<path d="M48.9539 45.8782H55.6039L55.688 45.7761L55.709 45.7941L55.8231 45.6621L55.9732 45.6711L56.0242 45.8212L55.9942 45.8782H58.1108V44.7344C56.4025 43.0411 55.0935 41.0656 54.0968 38.94L43.2046 38.916L43.2226 38.8649C42.9884 38.8709 42.7452 38.8679 42.493 38.8619C40.7697 38.7989 39.3827 38.4116 39.3977 38.0003C39.4037 37.8562 39.5778 37.7301 39.8751 37.625H37.5543V45.8812H48.9569L48.9539 45.8782Z" fill="#9EB6AB"/>
<path d="M46.0502 9.56885C46.4675 10.7187 46.9298 12.5261 49.794 12.5261L49.788 12.5021L49.0434 9.58083C48.6351 9.91408 48.1157 10.1122 47.5543 10.1122C46.9929 10.1122 46.4615 9.9081 46.0502 9.56885Z" fill="#9E5218"/>
<path d="M52.0793 32.8483L52.0223 32.8363L51.7551 32.7973L51.3858 32.7372L51.1576 32.6922L50.8274 32.6352L50.5452 32.5541L50.2059 32.5061L49.9417 32.425L49.6865 32.368L49.4644 32.3019L49.3293 32.2959C49.1912 32.2569 49.0561 32.1999 48.918 32.1638C48.7288 32.1128 48.5307 32.0948 48.3445 32.0347L48.0293 31.9206L47.7381 31.8486L47.5249 31.7645L47.3928 31.7285L47.0506 31.6414L46.6663 31.4883L46.351 31.3862L46.0478 31.2781L45.6605 31.113L45.4143 31.029L45.1561 30.9059L44.937 30.8218L44.6698 30.6927L44.5497 30.6597C44.3815 30.5876 44.2254 30.4915 44.0573 30.4165L43.7 30.2694L43.4418 30.1283L43.2107 30.0142L42.9345 29.8671L42.6252 29.723L42.2379 29.4828L41.8536 29.2906L41.6255 29.1315L41.3733 28.9904C41.2202 28.8973 41.064 28.8043 40.9139 28.7052L40.6137 28.48L40.3525 28.3269L40.0793 28.1167L39.9052 28.0087L39.5779 27.7265L39.2357 27.4593L38.9745 27.2251L38.7583 27.063L38.6923 27.075L38.6202 27.129L38.5812 27.2041L38.6382 27.3152L38.7673 27.4653L38.9384 27.5914L39.3978 27.9637L39.5659 28.1228L39.7791 28.2609L40.0523 28.465L40.3375 28.6542L40.6377 28.8763L41.001 29.0865L41.1481 29.1976C41.3342 29.3147 41.5324 29.4137 41.7215 29.5248L42.0068 29.72L42.2649 29.8461L42.4931 29.9902L42.5652 30.0262L42.9044 30.1763L43.2107 30.3535L43.4178 30.4345L43.67 30.5606L44.0213 30.7467L44.3936 30.9209L44.7658 31.047C44.9129 31.104 45.0571 31.1731 45.2042 31.2331C45.3933 31.3142 45.5855 31.3982 45.7776 31.4643L46.2189 31.6294C46.3841 31.6925 46.5492 31.7645 46.7143 31.8246C46.8524 31.8756 46.9965 31.9056 47.1406 31.9446L47.3298 32.0317L47.5039 32.0828L47.7951 32.1458L48.0863 32.2449C48.2455 32.2929 48.4076 32.3379 48.5697 32.374L48.969 32.4851L49.3413 32.5721L49.7106 32.6652L50.0648 32.7553C50.2119 32.7913 50.3591 32.8393 50.5092 32.8724L50.8754 32.9234C51.0346 32.9504 51.1937 32.9804 51.3498 33.0165L51.608 33.0975L51.7971 33.1065L52.1454 33.1576L52.0763 32.8453L52.0793 32.8483Z" fill="black"/>
<path d="M39.1959 23.8024L39.328 23.8985L39.6793 24.1867L39.8053 24.3158L39.9705 24.4209L40.1806 24.583L40.4028 24.7301L40.631 24.9042L40.9132 25.0664L41.0243 25.1564C41.1684 25.2495 41.3215 25.3246 41.4686 25.4086L41.6878 25.5677L41.8889 25.6638L42.0631 25.7809L42.1171 25.8079L42.3813 25.922L42.6155 26.0661L42.7776 26.1261L42.9727 26.2282L43.2429 26.3814L43.5282 26.5195L43.8164 26.6155L44.1556 26.7627C44.3027 26.8257 44.4498 26.8918 44.6 26.9458L44.9392 27.0749L45.3205 27.231L45.6507 27.3241L45.7979 27.3991L45.933 27.4411L46.1611 27.4892L46.3863 27.5702L46.7616 27.6723L47.0678 27.7624L47.356 27.8314L47.6413 27.9065L47.9145 27.9786L48.2567 28.0776L48.5419 28.1137L48.9112 28.1887L49.1094 28.2578H49.2565L49.5627 28.3088L49.8479 28.3478L49.989 28.3838L50.2682 28.4229L50.5324 28.4799L50.6165 28.4559L50.6525 28.3268L50.6405 28.2037L50.5955 28.1917V28.1647L50.3313 28.1227L50.031 28.0986L49.7729 28.0446L49.6438 28.0326L49.4786 27.9936L49.4336 27.9846L49.2264 27.9515L48.9412 27.9065L48.7641 27.8705L48.5089 27.8254L48.2927 27.7564L48.0315 27.7234L47.8304 27.6543L47.6322 27.6123L47.4611 27.5552H47.353L47.0378 27.4411C46.8937 27.4021 46.7406 27.3901 46.5935 27.3421L46.3503 27.246L46.1251 27.192L45.963 27.1199L45.8609 27.0899L45.5937 27.0268L45.2995 26.9007L45.0533 26.8227L44.8221 26.7386L44.5279 26.6035L44.3358 26.5405L44.1376 26.4384L43.9665 26.3754L43.7623 26.2703L43.6693 26.2492L43.294 26.0541L43.0178 25.943L42.8226 25.8289L42.6425 25.7419L42.4293 25.6248L42.1891 25.5137L41.8979 25.3186L41.6007 25.1744L41.4266 25.0483L41.2314 24.9373L40.8802 24.7151L40.652 24.535L40.4478 24.4209L40.2437 24.2527L40.1086 24.1747L39.8624 23.9495L39.5982 23.7424L39.4 23.5592L39.2319 23.4421L39.1749 23.4602L39.1058 23.5172L39.0608 23.5892L39.0998 23.6823L39.1959 23.8024Z" fill="black"/>
<path d="M55.9723 45.674L55.8222 45.665L55.7081 45.7971L55.6871 45.7791L55.6031 45.8812L55.0326 46.5687L54.3211 47.4634L53.6696 48.226L53.3604 48.6132L52.9431 49.0966L52.829 49.2317L52.3216 49.8472L51.6311 50.7058L51.1928 51.2372L50.5683 52.0058C50.3851 52.225 50.184 52.4321 50.0009 52.6513L49.3734 53.4409C49.1992 53.651 49.0131 53.8462 48.839 54.0533L48.3526 54.6538L47.9083 55.1732L47.6771 55.4944C47.4009 55.8187 47.1127 56.1309 46.8425 56.4581L45.7497 57.8152C45.5395 58.0704 45.3143 58.3135 45.1042 58.5657L44.5487 59.2652C44.4046 59.4394 44.2485 59.6015 44.1014 59.7757L43.8432 60.0939C43.624 60.3701 43.4109 60.6463 43.1857 60.9165L42.3901 61.8502L41.7717 62.6158L41.1652 63.3514L40.3546 64.294C40.1865 64.4922 40.0363 64.7054 39.8712 64.9065L39.3188 65.549L38.9976 65.9453L39.0456 66.2815L39.1447 67.1522L39.2077 67.5125L39.4089 69.1277L39.583 70.2655C39.622 70.5538 39.6431 70.845 39.6791 71.1332L39.7872 71.8958L39.9072 72.8235C39.9553 73.1597 40.0183 73.496 40.0604 73.8322L40.2135 75.1802C40.2705 75.6036 40.3486 76.0239 40.4086 76.4442C40.4477 76.7174 40.4627 76.9936 40.4957 77.2668L40.6188 78.1255L40.8379 79.7287L40.964 80.8425C41.0031 81.1427 41.0661 81.44 41.1081 81.7372L41.2252 82.7609C41.2523 82.9621 41.3003 83.1632 41.3273 83.3644L41.4714 84.6524L41.6516 85.9584L41.7837 87.0212C41.8227 87.2974 41.8707 87.5706 41.9218 87.8438L41.9938 87.9729L42.0869 88.0149L42.1589 87.9309L42.1529 87.5676C42.1409 87.3754 42.1229 87.1803 42.0989 86.9882L42.0028 86.3637L41.7686 84.6254L41.7026 83.9439C41.6726 83.6977 41.6245 83.4485 41.5885 83.2023L41.4624 82.2025L41.3213 81.1908L41.1892 80.0979L41.0061 78.867C40.9821 78.6899 40.976 78.5097 40.949 78.3296L40.6758 76.3992C40.6308 76.0629 40.6098 75.7237 40.5647 75.3844C40.5287 75.1022 40.4717 74.823 40.4356 74.5438C40.3996 74.2796 40.3786 74.0154 40.3516 73.7512L40.3186 73.52C40.2615 73.1597 40.2015 72.8024 40.1504 72.4422L40.0303 71.4094C40.0003 71.1933 39.9583 70.9801 39.9253 70.7639L39.8232 69.9353L39.6881 68.7764L39.532 67.5815L39.3518 66.4346L39.2948 66.0174L39.8622 65.3419L41.0271 63.9398L41.9128 62.874L42.9215 61.6791L43.7321 60.6673C43.8612 60.5112 44.0083 60.3701 44.1404 60.214C44.2575 60.0789 44.3716 59.9378 44.4827 59.7966L45.0201 59.1092L45.5995 58.4216L46.5302 57.2808L47.3078 56.3531L48.0194 55.4824L48.7309 54.6238L49.4154 53.8011L50.2891 52.7864C50.5202 52.5102 50.7364 52.216 50.9616 51.9367L51.8653 50.8409L52.3876 50.2525C52.5047 50.1114 52.6068 49.9552 52.7239 49.8111L53.4715 48.9045L54.156 48.0698L54.5102 47.6615L55.1858 46.8389L55.8463 46.0673L55.9814 45.8632L56.0114 45.8061L55.9603 45.656L55.9723 45.674Z" fill="black"/>
<path d="M55.0452 30.4165L55.2043 30.4075L55.4085 30.4376H55.6246L56.0269 30.4436L56.3062 30.4766L56.5313 30.4586L56.7865 30.4856L56.9396 30.4706L57.2609 30.5096L57.5881 30.5156L57.8523 30.5336L58.0595 30.5156L58.0955 30.4616L58.1075 30.3745L58.0895 30.2905L57.9994 30.2454L57.8553 30.2184L57.6992 30.2274C57.5551 30.2274 57.411 30.2214 57.2639 30.2154L57.0927 30.1854L56.9066 30.1914L56.6574 30.1764H56.4052L56.132 30.1523L55.8228 30.1584L55.6877 30.1374C55.5256 30.1374 55.3664 30.1374 55.2043 30.1374L54.9521 30.1043L54.757 30.1133L54.6189 30.0863V30.0713V30.0233L54.6039 29.7981L54.6279 29.5459L54.6189 29.3838L54.6339 29.1766L54.6669 28.8884L54.6789 28.5882L54.6639 28.3L54.6819 27.9547L54.7029 27.5014L54.718 27.1561L54.748 26.7688L54.739 26.4476L54.772 26.2944V26.1624L54.76 25.9462L54.778 25.721V25.3547L54.802 25.0545V24.7753L54.814 24.4991L54.826 24.2319L54.8651 23.8987L54.8531 23.6284L54.8621 23.2772L54.8981 23.082L54.8801 22.9439L54.8891 22.6527L54.8951 22.3825L54.9131 22.2504L54.9191 21.9862L54.9461 21.734L54.9101 21.659L54.778 21.6379L54.6549 21.659L54.6489 21.701H54.6219L54.6129 21.9562L54.6249 22.2384L54.6009 22.4876V22.6107L54.5859 22.7698L54.5799 22.8148L54.5738 23.013V23.2862V23.4573V23.7035L54.5438 23.9166L54.5528 24.1659L54.5228 24.367V24.5591L54.5078 24.7273L54.5318 24.8263L54.4928 25.1446C54.4898 25.2887 54.5018 25.4328 54.4988 25.5769L54.4718 25.8231L54.4808 26.0453L54.4568 26.2134V26.3154L54.4658 26.5766L54.4387 26.8799V27.1231V27.3603L54.4027 27.6665L54.4117 27.8616L54.3907 28.0718V28.2459L54.3667 28.4651L54.3787 28.5552C54.3697 28.6903 54.3547 28.8254 54.3487 28.9605L54.3577 29.2457L54.3307 29.4619V29.654L54.3217 29.7771V29.9662V30.0263L54.3817 30.3865C54.5288 30.3985 54.6789 30.4196 54.8501 30.4226L55.0512 30.4165H55.0452Z" fill="black"/>
<path d="M32.6905 63.0661L32.8977 62.7568C32.9908 62.6127 33.0778 62.4686 33.1709 62.3215L33.348 62.0543L33.5972 61.664L33.8404 61.3428L34.0836 60.9405L34.3118 60.6372L34.5039 60.334L34.69 60.0728L34.7201 60.0098L34.8702 59.8506V59.7786L35.1224 59.4273C35.2725 59.2021 35.4076 58.965 35.5547 58.7398L35.8279 58.3675L36.0441 58.0133L36.2362 57.7611L36.3383 57.5989C36.4254 57.4608 36.5064 57.3167 36.5965 57.1816C36.7046 57.0225 36.8216 56.8724 36.9297 56.7163L37.1729 56.329L37.4161 55.9567C37.5272 55.8006 37.6473 55.6475 37.7584 55.4883L37.9445 55.1761L38.1757 54.8549L38.3528 54.5787L38.593 54.2484L38.674 54.0983C38.8182 53.8911 38.9683 53.687 39.1094 53.4738C39.2085 53.3267 39.2925 53.1676 39.3916 53.0175L39.6318 52.6872L39.8269 52.387L40.0701 52.0267L40.3193 51.6214C40.4394 51.4473 40.5775 51.2852 40.6946 51.1111C40.8057 50.9459 40.8957 50.7658 41.0038 50.5977L41.235 50.2884L41.4511 49.9462C41.5892 49.736 41.7243 49.5229 41.8654 49.3157C41.9645 49.1716 42.0786 49.0395 42.1747 48.8954L42.3908 48.5291L42.6731 48.1388L42.8172 47.8896C42.9312 47.7245 43.0603 47.5684 43.1744 47.4033C43.2915 47.2351 43.3966 47.061 43.5107 46.8869C43.6038 46.7488 43.7028 46.6167 43.7929 46.4786L43.9881 46.1393L43.979 46.0552L43.919 45.9862L43.8319 45.9712L43.7028 46.0883L43.5317 46.3014L43.3816 46.5536C43.2315 46.7818 43.0844 47.01 42.9283 47.2351L42.7301 47.4873L42.55 47.7845L42.2858 48.1718L42.0276 48.5711C41.9315 48.7122 41.8264 48.8473 41.7334 48.9884C41.6253 49.1506 41.5292 49.3187 41.4271 49.4808L41.274 49.682C41.1089 49.9342 40.9498 50.1953 40.7816 50.4445L40.4964 50.8258L40.2923 51.1651L40.0671 51.4623L40.0101 51.5524C39.923 51.6995 39.8389 51.8466 39.7459 51.9877C39.6588 52.1228 39.5537 52.2489 39.4636 52.384L39.3075 52.6452L39.0854 52.9634C38.9803 53.1105 38.8692 53.2547 38.7641 53.4048C38.656 53.5579 38.551 53.711 38.4489 53.8701C38.3528 54.0232 38.2687 54.1824 38.1697 54.3325C38.0526 54.5156 37.9265 54.6927 37.8034 54.8729C37.6443 55.107 37.4881 55.3443 37.329 55.5784C37.2089 55.7556 37.0919 55.9357 36.9688 56.1128C36.8307 56.311 36.6865 56.5091 36.5514 56.7103C36.4404 56.8784 36.3413 57.0555 36.2332 57.2237L36.0531 57.4458L35.915 57.656L35.7078 58.0072L35.4676 58.3495C35.3415 58.5417 35.2214 58.7368 35.0923 58.9259C34.9873 59.082 34.8762 59.2352 34.7711 59.3883L34.5699 59.6975L34.0085 60.1209L33.369 60.6312C33.1799 60.7753 32.9787 60.9104 32.7866 61.0515L32.5074 61.2707L32.1351 61.5349L32.03 61.607L31.5737 61.9492L30.9522 62.4356L30.5589 62.7328C30.3728 62.8769 30.1896 63.027 30.0005 63.1681C29.8324 63.2882 29.6583 63.3933 29.4931 63.5164L28.9287 63.9667C28.7726 64.0838 28.6075 64.1859 28.4513 64.3L28.016 64.6422L27.6167 64.9275L27.4066 65.1196C27.1604 65.2967 26.9052 65.4618 26.662 65.645L25.6803 66.4166C25.4941 66.5607 25.293 66.6868 25.1038 66.8279C24.9777 66.924 24.8666 67.017 24.7045 67.1461L24.6865 67.3413C24.6685 67.5034 24.6325 67.6625 24.6115 67.8216L24.5814 68.1129C24.5574 68.3621 24.5394 68.6143 24.5124 68.8634L24.3923 69.7311L24.3232 70.4306C24.2992 70.6588 24.2752 70.884 24.2452 71.1091L24.1191 71.9888C24.0951 72.1719 24.0921 72.3611 24.071 72.5442L23.984 73.1447L23.9299 73.643L23.8399 74.2645L23.8249 74.5257L23.6717 75.6816L23.5937 76.5012C23.5697 76.7083 23.5306 76.9125 23.5006 77.1197L23.4406 77.6661L23.3595 78.3295C23.3355 78.5727 23.3235 78.8159 23.2905 79.0591C23.2484 79.3803 23.1884 79.6956 23.1494 80.0198C23.1133 80.323 23.1013 80.6293 23.0683 80.9325C23.0473 81.1277 23.0022 81.3198 22.9752 81.515C22.9482 81.7191 22.9332 81.9263 22.9122 82.1334L22.7801 83.2833C22.747 83.5505 22.693 83.8117 22.663 84.0789C22.636 84.292 22.636 84.5112 22.6089 84.7244C22.5789 84.9676 22.5339 85.2108 22.5039 85.4539C22.4858 85.598 22.4919 85.7451 22.4708 85.8923L22.3357 86.8109L22.2307 87.7476L22.1316 88.5042C22.1106 88.7024 22.0986 88.9035 22.0865 89.1017L22.1286 89.2068L22.2126 89.2548L22.2997 89.2098L22.3718 88.9576C22.3988 88.8225 22.4258 88.6844 22.4438 88.5462C22.4618 88.3961 22.4678 88.246 22.4828 88.0929L22.63 86.847C22.651 86.6848 22.69 86.5257 22.711 86.3636C22.732 86.1865 22.738 86.0064 22.7591 85.8292L22.8491 85.1147L22.9272 84.3881L23.0323 83.6075L23.1193 82.7219L23.1794 82.3406L23.3295 80.9536C23.3595 80.7104 23.4105 80.4732 23.4406 80.23C23.4676 80.0288 23.4706 79.8247 23.4946 79.6235C23.5156 79.4344 23.5547 79.2482 23.5847 79.0591L23.6027 78.891C23.6267 78.6328 23.6417 78.3716 23.6717 78.1134C23.6988 77.8672 23.7438 77.624 23.7738 77.3748C23.7948 77.2217 23.7978 77.0626 23.8128 76.9095L23.8909 76.318L24.011 75.4894C24.05 75.2042 24.0831 74.919 24.1161 74.6338L24.1881 73.8051L24.3112 72.8114L24.4703 71.5144L24.5904 70.5297L24.7375 69.4219L24.8276 68.4971C24.8426 68.353 24.8847 68.2119 24.9057 68.0678L24.9507 67.6835L24.9777 67.2782L25.0288 67.2362L25.5361 66.8669L26.3708 66.2244L27.0673 65.7111L27.7038 65.2217L28.3403 64.7413L28.9527 64.282C29.2109 64.0958 29.4781 63.9187 29.7363 63.7266C29.9435 63.5735 30.1386 63.4023 30.3398 63.2432C30.607 63.036 30.8772 62.8289 31.1504 62.6277C31.3005 62.5167 31.4656 62.4236 31.6157 62.3125L31.919 62.0573L32.5885 61.5499L33.2039 61.0816L33.5222 60.8594L34.0476 60.4571L33.9155 60.6522C33.7954 60.8234 33.6633 60.9855 33.5462 61.1566C33.4501 61.2947 33.375 61.4449 33.285 61.589C33.1679 61.7751 33.0448 61.9612 32.9187 62.1414L32.6905 62.4296L32.5644 62.6547C32.4654 62.8109 32.3633 62.958 32.2612 63.1111C32.1681 63.2522 32.0781 63.3933 31.985 63.5314L31.8319 63.7325L31.7388 63.8707L31.5587 64.1469L31.2795 64.5342L31.2314 64.6723L31.3215 64.7774L31.4446 64.8104L31.4956 64.7473L31.5197 64.7623L31.7838 64.3661C31.8799 64.2159 31.964 64.0598 32.0631 63.9097L32.3363 63.5284L32.4594 63.3333L32.5795 63.1681L32.6335 63.0931L32.6815 63.027L32.6905 63.0661Z" fill="black"/>
<path d="M51.1303 35.7188H43.4025C43.7537 35.9469 44.069 36.1721 44.3452 36.3913L51.1303 35.7188Z" fill="#CCCCCC"/>
<path d="M31.6302 17.6929L38.3042 37.6219H39.8714C40.3458 37.4568 41.1324 37.3547 42.0481 37.3517C41.6758 37.1896 41.2885 37.0065 40.8952 36.8023C38.6495 35.6345 37.0523 34.2504 37.3345 33.713C37.4726 33.4428 38.0521 33.4368 38.8777 33.6409L34.4493 20.416L33.5367 17.6959C33.1434 16.516 32.0385 15.7205 30.7956 15.7205H28.8892C30.1321 15.7205 31.2369 16.516 31.6332 17.6959L31.6302 17.6929Z" fill="#CCCCCC"/>
<path d="M37.551 37.622H38.3046L31.6305 17.693C31.2372 16.5131 30.1324 15.7175 28.8865 15.7175H2.89588C0.920389 15.7175 -0.475657 17.654 0.151815 19.5304L5.54688 35.6465C5.94318 36.8264 7.04801 37.622 8.29094 37.622H37.548H37.551ZM17.8531 29.8702C16.0818 29.8702 14.6467 28.4351 14.6467 26.6638C14.6467 24.8924 16.0818 23.4574 17.8531 23.4574C19.6245 23.4574 21.0566 24.8924 21.0566 26.6638C21.0566 28.4351 19.6215 29.8702 17.8531 29.8702Z" fill="#E6E6E6"/>
<path d="M17.8533 23.4573C16.0819 23.4573 14.6469 24.8923 14.6469 26.6637C14.6469 28.435 16.0819 29.8701 17.8533 29.8701C19.6246 29.8701 21.0567 28.435 21.0567 26.6637C21.0567 24.8923 19.6216 23.4573 17.8533 23.4573Z" fill="white"/>
<path d="M48.8696 5.09846C48.8696 5.09846 48.5423 6.12225 49.473 6.34742L49.458 6.1973C49.458 5.64188 49.9084 5.18851 50.4638 5.18851L50.5208 5.19452L50.5148 5.17653C50.8361 4.73519 52.5534 2.20727 49.7913 1.81698C49.7913 1.81698 48.8365 -0.33262 49.0287 1.65187C49.0287 1.65187 43.4355 -2.98964 42.7059 3.28809C42.7059 3.28809 43.5135 4.00562 44.9006 4.54903C45.9334 4.95433 47.2844 5.26059 48.8696 5.09846Z" fill="black"/>
<path d="M50.4639 6.62646C50.7011 6.62646 50.8932 6.43434 50.8932 6.19716C50.8932 5.95998 50.7011 5.76782 50.4639 5.76782C50.2267 5.76782 50.0376 5.95998 50.0376 6.19716C50.0376 6.43434 50.2297 6.62646 50.4639 6.62646Z" fill="#9E5218"/>
<path d="M51.4364 17.9781C51.0642 21.818 50.899 27.3992 52.0819 32.8483L52.151 33.1606C52.3341 33.9622 52.5473 34.7608 52.7904 35.5534L55.5105 35.2831C55.0842 33.8871 54.6879 32.2569 54.3756 30.3865L54.3156 30.0262C53.6581 25.8531 53.4419 20.509 54.3036 13.9101C54.2886 13.9011 53.4119 13.3727 52.142 13.0454V13.0514C52.1239 13.1325 51.7216 15.0479 51.4394 17.9781H51.4364Z" fill="#EAD558"/>
<path d="M58.1079 38.946H60.3536L60.5457 38.976L60.843 38.985H60.846C62.0048 38.9279 62.8995 37.9402 62.8395 36.7783L62.7794 35.6195L62.7644 35.3402L62.5032 30.1433H58.294L58.5372 34.98L58.1049 35.022L55.5079 35.2802L52.7879 35.5504L51.1276 35.7155L44.3425 36.388C44.0663 36.1689 43.7511 35.9437 43.3998 35.7155C42.9495 35.4243 42.4481 35.1301 41.9077 34.8479C40.7788 34.2624 39.704 33.8421 38.8754 33.6379C38.0528 33.4338 37.4734 33.4428 37.3323 33.71C37.05 34.2474 38.6472 35.6315 40.8929 36.7993C41.2862 37.0035 41.6735 37.1866 42.0458 37.3487C41.1301 37.3487 40.3435 37.4538 39.8692 37.6189C39.5719 37.724 39.3978 37.8501 39.3918 37.9942C39.3768 38.4085 40.7638 38.7958 42.4871 38.8559C42.7393 38.8649 42.9825 38.8649 43.2167 38.8589L43.1987 38.9099L54.0909 38.9339L56.886 38.94H58.1049L58.1079 38.946Z" fill="#CC6D1B"/>
</svg>
