<svg width="79" height="106" viewBox="0 0 79 106" fill="none" xmlns="http://www.w3.org/2000/svg">
<path d="M55.4041 49.9522L55.4193 49.926L55.4041 49.95V49.9522Z" fill="white"/>
<path d="M49.286 47.9162L49.3002 47.9688L49.288 48.0113L49.2496 48.0194L49.1868 48.0255H49.1261L49.0917 48.0073L49.0694 47.9789L49.0735 47.9486L49.0148 47.9729V48.0113V48.0295V48.0255C49.0188 48.4829 48.9966 48.9322 48.9561 49.3674L51.1744 51.0048L51.6986 50.3672L49.4904 47.7786L49.2779 47.8636L49.284 47.9142L49.286 47.9162Z" fill="white"/>
<path d="M56.074 50.7356L56.3108 50.5535L55.4182 49.926L55.4041 49.9503L56.074 50.7356Z" fill="white"/>
<path d="M49.2034 47.493V47.5335L49.2156 47.6124L49.2419 47.665L49.2338 47.7096L49.2561 47.7602L49.248 47.7905L49.2803 47.8512V47.8654L49.4949 47.7784L49.1812 47.4141L49.1771 47.4525L49.2034 47.493Z" fill="#BC999F"/>
<path d="M48.7888 45.9082L48.7969 45.9203L48.8009 45.9284L48.8029 45.9304L48.7786 45.6997L48.7503 45.726L48.7888 45.9082Z" fill="#CC6D1B"/>
<path d="M53.2231 48.4017L53.2171 48.4422L53.1887 48.4665L53.132 48.5515L53.124 48.598L53.0916 48.6284L53.0612 48.679L53.0248 48.7276L52.9985 48.7863L52.9479 48.8389L52.9418 48.8611L53.296 48.4321L53.213 48.3713L53.2231 48.4017Z" fill="#CC6D1B"/>
<path d="M56.0745 50.7356L55.4026 49.9482L55.0646 50.4563V50.4704L54.9897 50.5797L54.9735 50.6506L54.935 50.6931L54.9229 50.7497L54.9148 50.7639L54.8662 50.8185L54.844 50.8874L54.8136 50.9197L54.7913 50.9724L54.7671 51.0513L54.7306 51.1242L54.678 51.1829L54.6375 51.2679L54.5829 51.3772L54.5404 51.4601L54.5019 51.5593L54.4493 51.6281V51.6747L54.427 51.7071L54.3845 51.7475L54.3623 51.8042L54.3096 51.8872L54.2772 51.9621L54.2368 52.0248L54.2003 52.0916L54.1679 52.1564L54.1416 52.2454L54.0951 52.3001L54.0485 52.3831L54.0404 52.4418L54.0101 52.4661L53.9737 52.5349L53.9372 52.5976L53.9291 52.6361L53.8927 52.6968L53.8704 52.7636L53.838 52.7676L53.7551 52.719L53.6822 52.6644V52.6523L53.668 52.6421L53.7004 52.5814L53.749 52.5227L53.7713 52.4559L53.7915 52.4296L53.8036 52.3871V52.375L53.832 52.3284L53.8745 52.2677L53.8967 52.2272L53.9352 52.1726L53.9413 52.1402L53.6174 52.626L54.678 53.8666C55.2305 54.5163 56.2061 54.5932 56.8558 54.0407C56.9489 53.9597 57.0298 53.8707 57.1007 53.7735L58.7097 52.2475L56.3073 50.5554L56.0725 50.7376L56.0745 50.7356Z" fill="#CC6D1B"/>
<path d="M53.9538 52.1056L53.9983 52.055L54.0104 51.9984L54.0408 51.9559L54.055 51.9113L54.0833 51.8992L54.1076 51.8122L54.1764 51.717L54.1966 51.6502L54.2351 51.6057L54.2452 51.5571L54.2594 51.5349L54.3039 51.4802L54.3322 51.4013L54.3707 51.3487L54.4031 51.294L54.4274 51.211L54.4618 51.1726L54.48 51.1159L54.5063 51.0775L54.5225 51.0188L54.5427 51.0026L54.5832 50.8994L54.6318 50.8386L54.648 50.7799L54.6763 50.7374L54.7046 50.6808L54.7472 50.6281L54.7734 50.5371L54.8301 50.4723L54.8423 50.4136L54.8746 50.3671L54.9293 50.2739L54.9516 50.197L54.9941 50.1545L55.0143 50.0857L55.0467 50.0574L55.071 49.9703L55.1155 49.8934L55.1439 49.8266L55.1863 49.7882L55.2248 49.8024L55.2794 49.8347L55.328 49.8732L55.3422 49.9117L55.3381 49.9562L55.3098 49.9886L55.2532 50.0918L55.2471 50.1424L55.2147 50.1808L55.1863 50.2436L55.1499 50.3003L55.1216 50.3711L55.071 50.4379L55.0669 50.4622L55.405 49.9542L55.4211 49.9319L58.9388 44.6493C59.1857 44.4692 59.4104 44.1879 59.5946 43.8296C59.8253 43.3783 59.9912 42.8136 60.0459 42.1862C60.1855 40.6277 59.6027 39.304 58.7445 39.2271C57.8884 39.1502 57.0788 40.3504 56.9411 41.9089C56.929 42.0425 56.9249 42.174 56.9229 42.3036C56.9169 42.844 56.9978 43.3459 57.1456 43.7588L53.298 48.4382L52.9438 48.8693V48.8815L52.8689 48.9705L52.8507 49.0333L52.8122 49.0677L52.8001 49.1162L52.792 49.1264L52.7434 49.1689L52.7191 49.2276L52.6888 49.2518L52.6665 49.2964L52.6402 49.3632L52.6017 49.4239L52.5511 49.4684L52.5086 49.5392L52.452 49.6303L52.4115 49.7012L52.369 49.7841L52.3164 49.8388L52.3123 49.8813L52.2941 49.9076L52.2536 49.94L52.2293 49.9886L52.1767 50.0574L52.1423 50.1201L52.1018 50.1727L52.0654 50.2274L52.033 50.28L52.0067 50.359L51.9602 50.4015L51.9136 50.4703L51.9055 50.5209L51.8751 50.5391L51.8367 50.5958L51.8003 50.6464L51.7901 50.6808L51.7537 50.7314L51.7294 50.7901H51.6991L51.6221 50.7293L51.5554 50.6686V50.6585L51.5412 50.6464L51.5756 50.5958L51.6242 50.5492L51.6485 50.4925L51.6687 50.4703L51.6829 50.4338L51.6869 50.4237L51.7132 50.3853L51.7557 50.3367L51.778 50.3023L51.8164 50.2578L51.8225 50.2294L51.8286 50.2031L51.8711 50.1626L51.8853 50.112L51.9156 50.0776L51.9318 50.0392L51.9602 50.0331L51.9844 49.9582L52.0532 49.8833L52.0735 49.8246L52.112 49.7882L52.1221 49.7457L52.1362 49.7275L52.1808 49.685L52.2111 49.6162L52.2496 49.5737L52.282 49.5271L52.3083 49.4542L52.3427 49.4239L52.3609 49.3753L52.3872 49.3429L52.4054 49.2923L52.4257 49.2822L52.4682 49.1952L52.5167 49.1486L52.5329 49.098L52.5613 49.0616L52.5896 49.015L52.6321 48.9725L52.6604 48.8936L52.7171 48.843L52.7313 48.7924L52.7657 48.7539L52.8203 48.675L52.8426 48.6082L52.8851 48.5758L52.9074 48.5171L52.9377 48.4949L52.964 48.418L53.0106 48.3552L53.0409 48.2986L53.0754 48.2763L49.0456 45.4387L48.7805 45.7018C48.8068 45.8334 48.8311 45.973 48.8513 46.1187L48.8655 46.137V46.1876L48.8918 46.224L48.8959 46.2624L48.912 46.2928L48.8979 46.3151L48.9343 46.3717L48.9404 46.4567L48.9667 46.5013V46.5438L48.9869 46.5741V46.5944V46.645L49.0132 46.7016V46.7502L49.0234 46.7947L49.0557 46.8514L49.0517 46.8899L49.0719 46.9304V46.9648L49.0962 47.0052L49.0902 47.0235L49.1185 47.1004V47.157L49.1387 47.1975L49.1428 47.236L49.1549 47.2805V47.3311L49.1873 47.3959V47.4181L49.497 47.7845L51.7051 50.3731L51.1809 51.0107L48.9626 49.3733L46.7424 47.7359L44.5302 49.942L46.0117 51.035L46.204 51.1766L48.2705 52.7007L50.5413 54.3765C51.2295 54.8825 52.1949 54.7368 52.7029 54.0507C52.7697 53.9596 52.8244 53.8624 52.8689 53.7633L53.6259 52.6258L53.9497 52.14L53.9538 52.1097V52.1056Z" fill="#CC6D1B"/>
<path d="M65.1706 46.6674C65.3102 45.1089 64.7273 43.7852 63.8692 43.7083C63.2154 43.6496 62.592 44.3337 62.2702 45.3538L65.1301 46.9872C65.1463 46.8819 65.1605 46.7767 65.1686 46.6674H65.1706Z" fill="#CC6D1B"/>
<path d="M39.8012 32.8357L40.0239 32.6454L39.3195 32.2427L39.0726 32.6333C39.3296 32.6677 39.5725 32.7345 39.8012 32.8337V32.8357Z" fill="#015060"/>
<path d="M76.2449 53.3364L65.1313 46.9872L62.2714 45.3538L59.5937 43.8237C59.4096 44.1799 59.1849 44.4633 58.938 44.6434L55.4203 49.926L56.3109 50.5534L58.7133 52.2455L71.3267 61.1266C73.4782 62.4847 76.3239 61.8411 77.6819 59.6896C79.04 57.5381 78.3964 54.6924 76.2449 53.3344V53.3364Z" fill="#33673B"/>
<path d="M45.2987 37.9116C45.2987 38.0148 45.2886 38.116 45.2724 38.2172C45.7177 38.5593 46.0071 39.0956 46.0071 39.7008C46.0071 40.4213 45.6003 41.0467 45.0032 41.3604C46.0658 42.0729 47.0859 42.9553 47.8671 43.692L48.0736 43.8196L48.1282 43.941C48.8568 44.6413 49.3244 45.1554 49.3244 45.1554L49.043 45.4347L53.0728 48.2723L53.0809 48.2682L53.1153 48.2865L53.1659 48.3249L53.2104 48.3674V48.3715L53.2974 48.4322L57.145 43.7528C56.9972 43.3399 56.9163 42.84 56.9224 42.2975L44.6915 35.3108L44.5923 36.4483C45.0214 36.7923 45.2987 37.3186 45.2987 37.9116Z" fill="#33673B"/>
<path d="M38.7166 32.6089C38.8381 32.6089 38.9555 32.619 39.0729 32.6352L39.3198 32.2446L36.0754 30.3906C35.1909 31.7406 34.1506 32.9975 32.9787 34.1269L34.3145 35.066C34.8772 34.7361 35.5026 34.5013 36.1644 34.3819C36.553 33.3476 37.5488 32.6109 38.7166 32.6109V32.6089Z" fill="#33673B"/>
<path d="M38.9316 15.737C36.5271 5.1011 27.5548 -1.93219 16.9209 0.47228C6.28495 2.87675 -1.987 13.8102 0.419501 24.4462C2.82397 35.0821 12.3184 41.996 22.9544 39.5915C26.7837 38.7253 30.2386 36.7701 32.9791 34.1248C34.1509 32.9954 35.1913 31.7385 36.0757 30.3885C38.8708 26.12 40.1034 20.9083 38.9336 15.737H38.9316ZM22.0557 35.6306C18.0402 36.5394 14.1845 35.8229 10.9037 33.5642C7.65114 31.3236 5.33571 27.7675 4.38242 23.5496C3.49795 19.6352 4.46136 15.4355 7.09252 11.7235C9.70546 8.04192 13.6137 5.38648 17.8175 4.43521C21.7683 3.54264 25.5106 4.25912 28.6417 6.5118C31.7546 8.75233 34.0012 12.3469 34.9706 16.6337C36.8125 24.7801 30.777 33.6593 22.0557 35.6306Z" fill="#33673B"/>
<path d="M28.6398 6.51176C25.5108 4.25908 21.7664 3.5426 17.8157 4.43517C13.6139 5.38643 9.70358 8.04187 7.09064 11.7235C4.45746 15.4354 3.49406 19.6352 4.38056 23.5495C5.33385 27.7654 7.65128 31.3216 10.9018 33.5641C14.1826 35.8229 18.0383 36.5373 22.0538 35.6306C30.7751 33.6592 36.8106 24.7821 34.9688 16.6336C33.9993 12.3469 31.7507 8.75229 28.6398 6.51176ZM19.1535 18.1233C15.8119 18.1233 13.1039 15.9333 13.1039 13.2334C13.1039 10.5334 15.8119 8.34142 19.1535 8.34142C22.4951 8.34142 25.2031 10.5314 25.2031 13.2334C25.2031 15.9354 22.4951 18.1233 19.1535 18.1233ZM30.7407 19.6777C30.1679 20.9103 28.4698 21.3353 26.9478 20.6289C25.4258 19.9226 24.6546 18.3499 25.2274 17.1174C25.8002 15.8848 27.4983 15.4597 29.0203 16.1681C30.5424 16.8745 31.3135 18.4471 30.7427 19.6777H30.7407Z" fill="#F7FFF6"/>
<path d="M46.0074 39.7008C46.0074 39.0956 45.7179 38.5592 45.2727 38.2172C45.2889 38.118 45.299 38.0168 45.299 37.9116C45.299 37.3186 45.0237 36.7923 44.5926 36.4482L44.4833 37.7112C44.4408 38.1868 44.2101 38.6038 43.866 38.8912L44.3983 40.9738C44.6007 41.0933 44.8011 41.2228 45.0035 41.3584C45.6006 41.0447 46.0074 40.4213 46.0074 39.6987V39.7008Z" fill="black"/>
<path d="M40.4738 40.4941H40.4819C40.741 40.2776 41.0345 40.146 41.3563 40.0914L41.6579 38.9114C41.3016 38.622 41.0608 38.1949 41.0203 37.7051L40.9616 36.9744C40.6357 36.8975 40.3929 36.6061 40.3929 36.2559C40.3929 35.8471 40.7248 35.5152 41.1316 35.5152C41.415 35.5152 41.6579 35.6751 41.7813 35.9078C42.2914 35.7176 42.6961 35.3148 42.8844 34.8068C43.0402 34.6327 43.1799 34.4283 43.2831 34.1895C43.2831 34.1895 43.8357 34.912 44.6979 35.2176C44.6979 35.2035 44.6979 35.1913 44.6979 35.1772C44.7647 34.1166 43.9267 33.2119 42.8561 33.2119L42.7488 33.218C42.4249 32.6614 41.8238 32.2849 41.1316 32.2849C40.7167 32.2849 40.3342 32.4205 40.0245 32.6492L39.8019 32.8395C39.5732 32.7403 39.3283 32.6735 39.0732 32.6391C38.9559 32.6249 38.8385 32.6128 38.717 32.6128C37.5472 32.6128 36.5534 33.3495 36.1648 34.3838C35.5009 34.5032 34.8755 34.738 34.3149 35.0679C32.6269 36.0556 31.4935 37.8852 31.4935 39.9821C31.4935 43.018 33.8716 45.4974 36.8651 45.6613C37.3347 43.8155 38.3993 41.9838 40.4759 40.4961L40.4738 40.4941Z" fill="black"/>
<path d="M17.9773 95.9753L16.8932 97.0522L19.0699 99.2434L20.154 98.1665L17.9773 95.9753Z" fill="#CC6D1B"/>
<path d="M58.9504 102.508L58.7865 102.023L61.8325 101.509L61.2335 99.7336L58.2137 100.325L58.9504 102.508Z" fill="#CC6D1B"/>
<path d="M35.7294 62.6223L35.7395 62.5677L35.8205 62.5231L35.952 62.4806L36.0998 62.4584C36.2334 62.43 36.3669 62.3956 36.4985 62.3572L36.6483 62.2924L36.8183 62.2499L37.0389 62.1689L37.2534 62.0941L37.2636 62.0516L37.3243 61.9504L37.3951 61.92L37.4417 61.9908V62.0111L37.4983 61.9848L37.7675 61.8795L37.8768 61.8148C38.0144 61.752 38.1521 61.6913 38.2856 61.6184L38.484 61.4848L38.6621 61.3978L38.8098 61.2824L38.8544 61.2541L39.075 61.1286L39.2652 60.9789L39.3907 60.8959L39.5405 60.7724L39.7348 60.5842L39.9392 60.396L40.1437 60.2239L40.3622 59.9851C40.4594 59.8839 40.5444 59.7726 40.6334 59.6653L40.8257 59.4123C40.8925 59.3111 40.9613 59.216 41.0221 59.1128L41.1941 58.8699L41.2467 58.7403L41.3074 58.6331L41.4187 58.4671L41.5038 58.2789L41.6515 57.9773L41.7486 57.7182L41.8458 57.4814L41.9227 57.2386L41.9956 57.0058C42.0199 56.9066 42.028 56.8034 42.0522 56.7042L42.1292 56.4695C42.1534 56.3642 42.1737 56.259 42.1899 56.1517L42.202 55.9716L42.2405 55.8501L42.2749 55.585L42.3073 55.3421V55.2186L42.3255 54.9778V54.7471L42.3619 54.6782L42.4611 54.6661L42.5481 54.6924V54.7329H42.5704L42.5542 54.9697L42.5198 55.2328L42.5076 55.4656L42.4894 55.5789L42.4793 55.7287V55.7692L42.451 55.9533L42.3943 56.2023L42.3639 56.3602L42.3093 56.5848L42.2789 56.7832L42.2061 57.0078L42.1656 57.194L42.1049 57.364L42.0644 57.5179L42.0158 57.5988C41.9834 57.6919 41.9632 57.7911 41.9268 57.8842C41.8802 58.0117 41.8094 58.1311 41.7486 58.2526L41.6616 58.4691L41.5503 58.6472L41.4855 58.795L41.437 58.878L41.2953 59.0804L41.1496 59.3313L41.0059 59.5135L40.8723 59.6936L40.6982 59.9325L40.5687 60.064L40.4412 60.2199L40.3258 60.3373L40.1841 60.4911L40.1153 60.5437C40.0263 60.6368 39.9311 60.7259 39.836 60.8109L39.6154 60.9748L39.4596 61.1145L39.3098 61.2197L39.1276 61.3492L38.9171 61.4707C38.8281 61.5314 38.7471 61.6043 38.652 61.6589C38.5629 61.7095 38.4678 61.748 38.3767 61.7925L38.2087 61.8998L38.0205 61.9848L37.6683 62.1426L37.4275 62.26H37.4174V62.2742C37.3951 62.428 37.3728 62.5818 37.3425 62.7336L37.2332 63.2275L36.9579 64.5997L36.8689 65.1401L36.7414 65.7251L36.5875 66.5144L36.4236 67.3139L36.2617 68.1781L36.0552 69.1496C36.0249 69.2913 36.0107 69.433 35.9824 69.5746L35.6666 71.0987C35.614 71.3659 35.5776 71.635 35.5249 71.9022C35.4764 72.1228 35.4278 72.3455 35.3792 72.5661C35.3387 72.7745 35.3084 72.985 35.2719 73.1915L35.2335 73.3757C35.1708 73.659 35.104 73.9424 35.0453 74.2257L34.8955 75.0414L34.7801 75.5514L34.6567 76.2052L34.4887 77.124L34.3976 77.6017L34.0394 77.9863L33.3957 78.6521L32.6388 79.4739L31.6511 80.5446L30.9022 81.3582L30.0623 82.2811L29.3478 83.03C29.2365 83.1494 29.1393 83.2789 29.0321 83.4004C28.9369 83.5076 28.8378 83.6109 28.7386 83.7141L28.2508 84.214L27.7671 84.7463L26.9616 85.6045L26.3098 86.3169L25.6945 86.9727L25.0894 87.6264L24.5105 88.2538L23.7981 89.0533C23.6038 89.2658 23.3953 89.4662 23.199 89.6767L22.4279 90.5065L22.017 90.9801C21.9178 91.0894 21.8065 91.1866 21.7053 91.2918L21.0677 91.98L20.4808 92.6115L20.1954 92.9353L19.6166 93.5566L19.0741 94.1598L18.8879 94.3197L18.7705 94.3015L18.7523 94.1901L18.8434 94.0849L18.8272 94.0728L19.3838 93.4716L20.0153 92.8138L20.5516 92.2188L20.8229 91.9334L21.1629 91.5529L21.258 91.4477L21.6911 90.9822L22.2963 90.3426L22.6707 89.9398L23.2132 89.365C23.367 89.195 23.5107 89.0169 23.6665 88.8489L24.2251 88.268C24.3729 88.1101 24.5085 87.9401 24.6542 87.7802L25.0793 87.3309L25.4436 86.9241L25.6723 86.7055C25.899 86.4545 26.1176 86.1934 26.3483 85.9445L27.3076 84.9345C27.4878 84.7423 27.6558 84.5378 27.8339 84.3456L28.3277 83.8315C28.4512 83.6999 28.5645 83.5582 28.6839 83.4247L28.9086 83.1858C29.1029 82.9834 29.2992 82.7851 29.4895 82.5786L30.1452 81.852L30.6856 81.2813L31.2038 80.7227L31.8656 79.9839C32.0053 79.8301 32.1571 79.6884 32.2967 79.5366L32.7501 79.0326L33.1326 78.6258L33.6002 78.1037L33.8066 77.8972L34.179 77.4843L34.3025 76.8326L34.4968 75.936C34.5433 75.7073 34.5757 75.4765 34.6202 75.2478L34.7437 74.6467L34.8874 73.914C34.942 73.6469 35.0068 73.3838 35.0594 73.1166L35.2517 72.05C35.3185 71.716 35.4015 71.3841 35.4703 71.0501C35.5148 70.8356 35.5411 70.617 35.5836 70.4004L35.7273 69.7224L35.9844 68.4534L36.1423 67.5709C36.1888 67.3341 36.2536 67.1014 36.3022 66.8646L36.4499 66.055C36.4803 65.8951 36.5288 65.7372 36.5592 65.5773L36.7414 64.5572L36.9519 63.525L37.1118 62.6871C37.1381 62.5656 37.1664 62.4442 37.1947 62.3228L36.9883 62.4098L36.8446 62.4442C36.7474 62.4806 36.6523 62.5231 36.5531 62.5555C36.4519 62.5879 36.3487 62.6082 36.2455 62.6324L35.9925 62.6952L35.786 62.7134L35.7456 62.679L35.7253 62.6183C35.7213 62.7316 35.7091 62.8429 35.7071 62.9563L32.7622 77.039L16.785 94.7791L17.9731 95.9753L20.1489 98.1672L21.1366 99.163L22.4521 97.9001H22.4441L22.3773 97.8616L22.3267 97.8009L22.1668 97.6531L22.0899 97.6086L22.0291 97.5378L21.932 97.4568L21.8409 97.3678L21.7316 97.2828L21.6264 97.1694L21.5677 97.133L21.3956 96.961L21.2884 96.8881L21.2195 96.8071L21.1345 96.7525L21.1143 96.7322L21.0273 96.627L20.922 96.5481L20.8694 96.4853L20.7884 96.4185L20.669 96.3315L20.5557 96.2323L20.4626 96.121L20.331 96.0056L20.161 95.8539L20.0315 95.7385L19.8777 95.617L19.7684 95.4976L19.6975 95.4612L19.649 95.4146L19.5801 95.3296L19.4931 95.2588L19.3615 95.1313L19.2442 95.0341L19.143 94.937L19.0397 94.8439L18.9406 94.7548L18.8009 94.6577L18.7139 94.5545L18.5843 94.435L18.4973 94.3824L18.4568 94.3257L18.3496 94.2266L18.2504 94.1335L18.1937 94.095L18.0966 94.0039L17.9933 93.927L17.9852 93.8825L18.046 93.8056L18.1168 93.7489L18.135 93.7611L18.1492 93.7469L18.2443 93.8319L18.3374 93.9392L18.4386 94.0161L18.4811 94.0606L18.5459 94.1072L18.5641 94.1193L18.639 94.1861L18.7341 94.2853L18.7969 94.344L18.8839 94.431L18.977 94.4897L19.06 94.5848L19.147 94.6415L19.2138 94.7103L19.2846 94.7629L19.3069 94.8095L19.4405 94.9026L19.5903 95.0604L19.6914 95.1333L19.7663 95.2163L19.8392 95.2628L19.8756 95.2993L19.9627 95.3964L20.0841 95.4916L20.1691 95.5806L20.2561 95.6616L20.3837 95.7527L20.4464 95.8275L20.5314 95.8903L20.5941 95.953L20.6832 96.0178L20.7095 96.0562L20.8674 96.1837L20.9625 96.291L21.0536 96.3558L21.1224 96.4226L21.2115 96.4995L21.2965 96.5946L21.4361 96.6938L21.5414 96.8152L21.6284 96.8719L21.7033 96.9508L21.851 97.0885L21.9664 97.1694L22.0372 97.2585L22.1425 97.3354L22.189 97.3981L22.3226 97.4912L22.442 97.6066L22.5453 97.6916L22.5959 97.7604L39.1782 81.85L43.3091 66.648L56.05 99.2136L56.0966 99.1914L56.1755 99.1853L56.39 99.1387L56.469 99.1023L56.5621 99.0922L56.6835 99.0598L56.809 99.0375L56.9406 98.9971L57.0944 98.9768L57.1591 98.9505L57.398 98.908L57.5194 98.8615L57.6267 98.8534L57.7198 98.8149L57.7481 98.8109L57.8837 98.7987L58.0072 98.7582L58.0881 98.7522L58.1893 98.7238L58.329 98.6773L58.4767 98.6429L58.6204 98.6307L58.7905 98.5882L59.0131 98.5376L59.1811 98.4972L59.3693 98.4425L59.5292 98.4223L59.6001 98.3858L59.6648 98.3737L59.7741 98.3676L59.8834 98.3372L60.0635 98.3028L60.2093 98.2624L60.3469 98.2361L60.4825 98.2057L60.612 98.1753L60.7719 98.1187L60.9055 98.1065L61.0796 98.0701L61.1727 98.0276H61.2415L61.3852 97.9972L61.5168 97.9689L61.5815 97.9446L61.711 97.9183L61.8325 97.8798L61.873 97.8981L49.6927 61.1812C49.3244 58.4307 48.1525 56.0829 46.5353 54.6357H38.988C37.0976 56.3258 35.8285 59.2524 35.7253 62.6061L35.7294 62.6223ZM43.4063 66.5185L43.4387 66.4193C43.4609 66.3262 43.4832 66.2331 43.5014 66.14L43.5075 66.0246L43.5459 65.9072L43.5783 65.7433L43.6188 65.5814L43.6471 65.4012L43.7038 65.2049L43.7119 65.1158C43.7362 65.0126 43.7686 64.9094 43.7908 64.8062L43.8091 64.6382L43.8516 64.5046L43.8637 64.373L43.8718 64.3366L43.9285 64.1666L43.9528 63.9966L43.9872 63.8954L44.0115 63.7598L44.0378 63.5675L44.0782 63.3752L44.1369 63.1931L44.1815 62.9664C44.2017 62.8692 44.222 62.7721 44.2422 62.6729L44.2867 62.4503L44.3292 62.1973L44.3899 61.9929V61.8896L44.4122 61.8026L44.4587 61.667L44.4851 61.5213L44.5417 61.2865L44.5782 61.0902L44.6207 60.9121L44.6611 60.7319L44.6976 60.5599L44.7239 60.3393L44.7785 60.1693L44.8291 59.9406L44.8352 59.809L44.8696 59.726L44.9121 59.5378L44.9506 59.3637L44.9587 59.2747L44.9992 59.1047L45.0234 58.9387L45.0619 58.8962L45.159 58.9063L45.242 58.9427V58.9731L45.2602 58.9772L45.2238 59.1411L45.1692 59.3212L45.1449 59.4852L45.1226 59.5641L45.1105 59.6693L45.1064 59.6997L45.0781 59.8272L45.0295 60.0013L45.0052 60.1126L44.9627 60.2684L44.9506 60.4121L44.902 60.57L44.8899 60.7036L44.8575 60.8271L44.8413 60.9384L44.8069 60.9971L44.7826 61.2076C44.7623 61.3007 44.7279 61.3897 44.7036 61.4828L44.6834 61.6447L44.6409 61.7844L44.6328 61.8957L44.6146 61.9605L44.566 62.1264L44.5357 62.3248L44.4911 62.4806L44.4567 62.6345L44.4304 62.8369L44.3899 62.9583L44.3717 63.098L44.3434 63.2093L44.3232 63.353L44.3009 63.4096L44.2543 63.6748L44.2159 63.8023H44.222C44.3171 64.0472 44.4162 64.2921 44.5093 64.541C44.6126 64.8183 44.7097 65.0976 44.815 65.3749C44.9081 65.6178 45.0093 65.8546 45.1064 66.0975C45.153 66.2149 45.1934 66.3383 45.24 66.4557C45.3007 66.6095 45.3635 66.7613 45.4282 66.9152L45.4788 67.0427C45.5537 67.2349 45.6286 67.4272 45.7015 67.6195C45.8027 67.8867 45.8998 68.1538 46.001 68.421C46.0637 68.5869 46.1306 68.7529 46.1933 68.9209C46.2844 69.1597 46.3694 69.4026 46.4625 69.6394C46.5434 69.8459 46.6406 70.0483 46.7216 70.2547C46.8147 70.4976 46.8956 70.7465 46.9907 70.9894C47.0676 71.1857 47.1547 71.376 47.2336 71.5703C47.3085 71.7565 47.3733 71.9467 47.4441 72.1329C47.5089 72.2969 47.5797 72.4588 47.6424 72.6248C47.6789 72.7199 47.6971 72.8231 47.7335 72.9182C47.857 73.2259 47.9906 73.5254 48.11 73.8331C48.2719 74.2541 48.4217 74.6811 48.5816 75.1021C48.6726 75.3409 48.7799 75.5737 48.873 75.8125C48.956 76.0271 49.0268 76.2477 49.1098 76.4622C49.1726 76.6261 49.2454 76.784 49.3122 76.948C49.3507 77.0451 49.3871 77.1443 49.4235 77.2455C49.5166 77.5005 49.6077 77.7576 49.7049 78.0126C49.8202 78.3081 49.9437 78.5995 50.0591 78.897C50.1502 79.1338 50.2351 79.3747 50.3262 79.6115C50.4133 79.8422 50.5003 80.075 50.5934 80.3037C50.7128 80.6012 50.8383 80.8967 50.9557 81.1963C51.0306 81.3845 51.0893 81.5768 51.1621 81.765C51.2411 81.9694 51.3281 82.1698 51.409 82.3742C51.4758 82.5422 51.5325 82.7142 51.5993 82.8822C51.6823 83.0948 51.7734 83.3032 51.8564 83.5137L51.9474 83.7829C52.1012 84.1756 52.2612 84.5642 52.4129 84.9588C52.5202 85.2361 52.6153 85.5174 52.7226 85.7968C52.8036 86.0072 52.8946 86.2137 52.9796 86.4242C53.0525 86.6084 53.1193 86.7966 53.1922 86.9828C53.2792 87.2095 53.3703 87.4321 53.4573 87.6588C53.5504 87.9057 53.6334 88.1567 53.7306 88.4016C53.8601 88.7275 54.0018 89.0472 54.1293 89.3751C54.2487 89.6848 54.3519 90.0005 54.4693 90.3102C54.5462 90.5106 54.6373 90.7028 54.7162 90.9012C54.7992 91.1097 54.8721 91.3222 54.951 91.5306C55.1008 91.9213 55.2485 92.3139 55.4003 92.7045C55.5076 92.9758 55.625 93.2409 55.7302 93.5101C55.8132 93.7287 55.884 93.9533 55.967 94.1719C56.0621 94.4209 56.1694 94.6658 56.2686 94.9127C56.3253 95.0605 56.3678 95.2143 56.4265 95.362C56.5499 95.6737 56.6855 95.9814 56.809 96.293C56.9345 96.6108 57.0499 96.9306 57.1733 97.2504C57.2725 97.5074 57.3798 97.7624 57.4789 98.0215C57.5559 98.2239 57.6247 98.4283 57.6935 98.6328V98.7481L57.651 98.8109L57.5741 98.7785L57.4445 98.5295C57.3818 98.3919 57.3211 98.2563 57.2644 98.1146C57.2037 97.9628 57.1551 97.8049 57.0964 97.6531C56.9365 97.2301 56.7726 96.8051 56.6066 96.3821C56.5418 96.2182 56.4629 96.0583 56.3981 95.8943C56.3273 95.7142 56.2686 95.528 56.1998 95.3479C56.1067 95.105 56.0075 94.8621 55.9144 94.6192C55.8193 94.3723 55.7282 94.1234 55.6331 93.8785C55.5298 93.6133 55.4185 93.3502 55.3153 93.0851C55.1999 92.7835 55.0947 92.4799 54.9793 92.1803C54.9308 92.0488 54.866 91.9233 54.8174 91.7938C54.6373 91.3222 54.4632 90.8486 54.2811 90.379C54.1859 90.1321 54.0746 89.8933 53.9775 89.6463C53.8985 89.4419 53.8317 89.2314 53.7528 89.027C53.6779 88.8347 53.5929 88.6465 53.514 88.4562L53.4492 88.2862C53.3541 88.0211 53.261 87.7539 53.1598 87.4908C53.0647 87.2378 52.9554 86.9929 52.8582 86.7419C52.7955 86.5861 52.7469 86.4242 52.6862 86.2663C52.6093 86.0639 52.5283 85.8635 52.4473 85.6652C52.334 85.3839 52.2166 85.1066 52.1053 84.8252C51.9899 84.5358 51.8746 84.2464 51.7653 83.9529C51.66 83.6716 51.5649 83.3862 51.4576 83.1069C51.3301 82.7669 51.1925 82.4329 51.063 82.0949C50.8909 81.6557 50.7209 81.2145 50.5509 80.7753C50.4213 80.4413 50.2918 80.1074 50.1603 79.7734C50.0125 79.397 49.8587 79.0246 49.713 78.6461C49.5935 78.3344 49.4843 78.0146 49.3648 77.7009C49.3082 77.5531 49.2373 77.4135 49.1746 77.2678C49.122 77.1402 49.0734 77.0087 49.0248 76.8771C48.9479 76.6646 48.8751 76.4501 48.7961 76.2396C48.7131 76.021 48.6221 75.8085 48.537 75.5899C48.3994 75.2357 48.2679 74.8774 48.1302 74.5212C48.0169 74.2298 47.8995 73.9403 47.7862 73.6469C47.6809 73.3757 47.5797 73.1024 47.4765 72.8312C47.3733 72.562 47.268 72.2928 47.1648 72.0236C47.0636 71.7646 46.9664 71.5055 46.8632 71.2505C46.7337 70.9307 46.5961 70.6129 46.4706 70.2891C46.3694 70.028 46.2803 69.7609 46.1832 69.4998C46.0536 69.1557 45.9221 68.8116 45.7885 68.4716C45.7136 68.2813 45.6246 68.0992 45.5497 67.9089C45.497 67.7774 45.4606 67.6357 45.41 67.5041C45.3028 67.2208 45.1914 66.9374 45.0821 66.6541C44.983 66.393 44.8838 66.1319 44.7826 65.8708C44.732 65.7413 44.6713 65.6137 44.6227 65.4842C44.5235 65.2272 44.4284 64.9701 44.3272 64.7131C44.2624 64.5471 44.1956 64.3832 44.1288 64.2192L44.1187 64.2739L44.0702 64.4338L44.0418 64.6564L43.9791 64.8568L43.9649 64.9944L43.9264 65.132L43.8678 65.3911L43.8455 65.5753L43.7969 65.717L43.7726 65.885L43.7362 65.9801L43.7099 66.1926L43.6593 66.4031L43.6269 66.5751L43.5783 66.7026L43.5358 66.7148L43.471 66.7067L43.4144 66.6804L43.3982 66.6156L43.4022 66.5164L43.4063 66.5185Z" fill="#E9E3D7"/>
<path d="M46.123 51.209L45.9813 51.2981L45.9064 51.3325L45.8153 51.3912L45.791 51.4074L45.6736 51.4681L45.5036 51.5389L45.4004 51.5875L45.2486 51.6523L45.1272 51.7312L44.9713 51.7899L44.8519 51.8587L44.7325 51.9032L44.6293 51.9559L44.5625 51.964L44.3743 52.0672C44.2852 52.1056 44.188 52.1279 44.097 52.1603L43.9472 52.2331L43.8035 52.2736L43.7023 52.3283L43.6375 52.3505L43.4675 52.3971L43.2752 52.476L43.1174 52.5205L42.9656 52.5711L42.7733 52.6501L42.6438 52.6764L42.5102 52.727L42.3948 52.7573L42.2572 52.812L42.1945 52.816L41.9313 52.897L41.7411 52.9334L41.6014 52.982L41.4739 53.0083L41.3201 53.0468L41.1501 53.0731L40.9295 53.1378L40.7129 53.1601L40.5793 53.2026L40.4336 53.2188L40.1624 53.2613L39.9762 53.3038L39.8223 53.3079L39.6503 53.3423H39.5451L39.3265 53.3828L39.1018 53.3989L38.9176 53.4151L38.7699 53.401L38.7436 53.3625L38.7355 53.2978L38.7497 53.237L38.8124 53.2046L38.9096 53.1824L39.0168 53.1864C39.114 53.1824 39.2111 53.1743 39.3103 53.1642L39.4236 53.1338H39.5491L39.7151 53.1075L39.8851 53.0872L40.0673 53.0528L40.2737 53.0326L40.3607 53.0063C40.468 52.9901 40.5753 52.982 40.6825 52.9597L40.8465 52.9091L40.9881 52.895L41.1136 52.8504L41.1521 52.8444L41.3322 52.8201L41.4982 52.7695L41.6055 52.7573L41.7391 52.7169L41.9252 52.6521L42.1175 52.5995L42.3078 52.5651L42.5304 52.4942L42.8198 52.4052L43.0364 52.3283L43.2773 52.2352L43.4857 52.1805L43.5728 52.1259L43.6557 52.0955L43.7974 52.0591L43.9351 52.0004L44.1638 51.9194L44.3459 51.8364L44.518 51.7676L44.688 51.6948L44.8479 51.6219L45.0401 51.5086L45.2081 51.4458L45.4206 51.3446L45.5279 51.2697L45.617 51.2454L45.789 51.1544L45.9448 51.0734L46.0035 51.0329L44.522 49.94L44.607 50.025L42.7854 51.8385L42.7004 51.7514C42.7004 51.7514 41.9151 50.958 41.1339 49.6951C40.3526 48.4301 39.5653 46.6895 39.5653 44.7768C39.5653 44.5987 39.5714 44.4206 39.5856 44.2405L39.8284 44.2607C39.8143 44.4328 39.8082 44.6068 39.8082 44.7768C39.8082 46.5073 40.4781 48.1123 41.1966 49.3287C41.8564 50.45 42.5547 51.2394 42.7895 51.4924L44.435 49.8509L44.52 49.938L46.7322 47.7318L48.9525 49.3692C48.993 48.9341 49.0152 48.4848 49.0112 48.0273V48.0314V48.0132V47.9747L49.0678 47.9504L49.0537 47.8654L49.0294 47.833L49.0334 47.7966L49.0213 47.748L49.0172 47.6994L48.997 47.6468V47.5861L48.9808 47.5618L48.9727 47.4687L48.9444 47.4222L48.9505 47.3817L48.9241 47.3453V47.3331L48.9302 47.2805L48.9079 47.2319L48.914 47.1995L48.8999 47.1611L48.8715 47.1064L48.8573 47.0498L48.8634 46.9931L48.8452 46.9263L48.8229 46.8413L48.8047 46.7765L48.7764 46.7037V46.6409L48.7481 46.6146L48.744 46.5883L48.7501 46.5458L48.7339 46.5053L48.7217 46.4345L48.6995 46.3798L48.6914 46.3272L48.6772 46.2766L48.661 46.228L48.6226 46.1693V46.1167L48.6064 46.0519L48.574 46.0196L48.5821 45.9912L48.5659 45.9386V45.9325L48.5052 45.973L48.4627 46.0398L48.4222 46.0661L48.3837 46.1167L48.3372 46.1916L48.2805 46.2604L48.2117 46.309L48.1449 46.3879L48.0579 46.4911L47.9931 46.5701L47.9243 46.6632L47.8514 46.7239L47.8352 46.7725L47.8069 46.8008L47.7523 46.8372L47.7118 46.8919L47.6349 46.9688L47.5802 47.0396L47.5235 47.0983L47.4689 47.1591L47.4183 47.2198L47.3677 47.3088L47.3029 47.3554L47.2321 47.4323L47.2078 47.491L47.1694 47.5092L47.1127 47.574L47.058 47.6327L47.0378 47.6711L46.9852 47.7278L46.9447 47.7926L46.9103 47.7885L46.8394 47.7217L46.7828 47.6529L46.7888 47.6408L46.7747 47.6266L46.8233 47.5699L46.89 47.5193L46.9325 47.4566L46.9609 47.4323L46.9852 47.3918L46.9912 47.3817L47.0297 47.3372L47.0904 47.2845L47.1248 47.2461L47.1775 47.1975L47.2078 47.1368L47.2665 47.0923L47.2948 47.0356L47.3373 46.9971L47.3657 46.9526L47.3981 46.9465L47.4466 46.8615L47.5438 46.7785L47.5823 46.7138L47.6349 46.6753L47.6592 46.6288L47.6814 46.6085L47.7421 46.56L47.7927 46.483L47.8474 46.4365L47.8939 46.3839L47.9425 46.3029L47.9891 46.2685L48.0235 46.2139L48.0619 46.1795L48.0963 46.1228L48.1206 46.1106L48.1935 46.0135L48.2603 45.9609L48.2947 45.9022L48.3352 45.8617L48.3797 45.8091L48.4384 45.7625L48.491 45.6735L48.5679 45.6168L48.5963 45.5601L48.6428 45.5176L48.7238 45.4326L48.7663 45.3577L48.8229 45.3193L48.8634 45.2545L48.9019 45.2302L48.9505 45.1452L49.0193 45.0764L49.0658 45.0136L49.1205 44.9813L49.1549 45.0035L49.2014 45.046L49.2399 45.0926V45.1351L49.2257 45.1796L49.1872 45.2079L49.1002 45.3031L49.08 45.3537L49.0354 45.3881L48.9889 45.4468L48.9363 45.4994L48.8897 45.5662L48.8189 45.6249L48.8007 45.6633L48.7238 45.7362L48.74 45.7828V45.8374L48.7683 45.8819V45.9062L48.7804 45.9224L48.742 45.7402L48.7703 45.7119L49.0354 45.4488L49.3168 45.1695C49.3168 45.1695 48.8513 44.6554 48.1206 43.9551L48.066 43.8337L47.8595 43.7062C47.0783 42.9694 46.0582 42.087 44.9956 41.3745C44.7952 41.2389 44.5928 41.1114 44.3905 40.99C43.9007 40.6985 43.4108 40.4577 42.9393 40.2938C42.3705 40.0974 41.8321 40.0185 41.3484 40.1035C41.0286 40.1602 40.7331 40.2897 40.4741 40.5063H40.466C38.3894 41.9939 37.3248 43.8256 36.8552 45.6714C35.7238 50.1262 38.0635 54.6639 38.0635 54.6639H47.5013C47.5013 54.6639 47.8818 53.9049 48.2603 52.7108L46.1938 51.1867L46.1149 51.2232L46.123 51.209ZM46.382 52.5307L46.4488 52.5185L46.5783 52.4598L46.6958 52.4031L46.7484 52.3647L46.8617 52.306L46.9629 52.2372L47.0074 52.2433L47.0601 52.3242L47.0924 52.4072L47.0763 52.4214L47.0864 52.4396L46.973 52.5003L46.8415 52.5529L46.7342 52.6217L46.6775 52.646L46.6087 52.6865L46.5905 52.6966L46.4994 52.7371L46.3699 52.7837L46.291 52.8181L46.1736 52.8585L46.0784 52.9152L45.957 52.9456L45.8659 52.9982L45.7728 53.0265L45.6939 53.0609H45.6412L45.4935 53.1277L45.281 53.1783L45.1656 53.2269L45.0543 53.2451L44.9754 53.2836L44.9248 53.2957L44.7952 53.318L44.6475 53.3666L44.5261 53.3888L44.4087 53.4172L44.2589 53.4698L44.1597 53.4779L44.0565 53.5123L43.9695 53.5265L43.8622 53.5629H43.8157L43.6153 53.6115L43.4695 53.6256L43.3623 53.66L43.2671 53.6742L43.1498 53.6965L43.0202 53.7046L42.8543 53.7531L42.6923 53.7572L42.5911 53.7896L42.4818 53.7977L42.2794 53.822L42.1398 53.8584L42.0244 53.8543L41.8969 53.8847L41.818 53.8807L41.6561 53.9191L41.4881 53.9313L41.3525 53.9495L41.2432 53.9393L41.225 53.9009L41.2169 53.8361L41.225 53.7754L41.2695 53.741L41.3423 53.7167H41.4213L41.6419 53.6985L41.7249 53.6702H41.82L41.9455 53.6519L42.073 53.6398L42.2086 53.6115L42.3645 53.6034L42.4312 53.5831L42.6741 53.5568L42.7976 53.5184L42.9049 53.5143L43.002 53.4799L43.0304 53.4759L43.168 53.4698L43.2935 53.4354H43.3744L43.4756 53.407L43.6173 53.3625L43.7651 53.3322L43.9087 53.32L44.0788 53.2795L44.2994 53.2269L44.4653 53.1824L44.6516 53.1237L44.8094 53.0974L44.8782 53.0569L44.943 53.0407L45.0523 53.0265L45.1575 52.9901L45.3336 52.9436L45.4753 52.8909L45.6069 52.8525L45.7384 52.8079L45.8599 52.7594L46.0076 52.6804L46.1371 52.6481L46.297 52.5813L46.3759 52.5226L46.382 52.5307Z" fill="#C3ECBD"/>
<path d="M48.8125 45.9648L48.8186 46.0175L48.8267 46.0498L48.8327 46.0964L48.8489 46.1166C48.8287 45.9709 48.8044 45.8313 48.7781 45.6997L48.8024 45.9304L48.8125 45.9648Z" fill="#BC999F"/>
<path d="M42.7534 39.3001C42.3405 39.3001 41.958 39.1523 41.6584 38.9095L41.3569 40.0894C41.8406 40.0044 42.379 40.0834 42.9477 40.2797C43.4173 39.8243 43.6946 39.3345 43.8565 38.9014C43.5549 39.1503 43.1704 39.3001 42.7514 39.3001H42.7534Z" fill="#9E5218"/>
<path d="M43.2854 34.1875C43.1801 34.4284 43.0425 34.6307 42.8866 34.8048C42.6964 35.3128 42.2936 35.7176 41.7836 35.9058C41.6601 35.6731 41.4173 35.5132 41.1339 35.5132C40.7251 35.5132 40.3951 35.8451 40.3951 36.254C40.3951 36.6021 40.638 36.8956 40.9639 36.9725L41.0226 37.7031C41.061 38.1929 41.3039 38.62 41.6601 38.9094C41.9597 39.1523 42.3422 39.3 42.7551 39.3C43.168 39.3 43.5586 39.1503 43.8602 38.9013C43.6983 39.3345 43.421 39.8243 42.9514 40.2796C43.423 40.4436 43.9128 40.6844 44.4026 40.9759L43.8703 38.8932C44.2123 38.6058 44.4451 38.1889 44.4876 37.7132L44.5969 36.4503L44.6961 35.3128L44.7042 35.2197V35.2157C43.8419 34.9101 43.2894 34.1875 43.2894 34.1875H43.2854ZM41.1319 36.5677C40.9578 36.5677 40.8181 36.426 40.8181 36.254C40.8181 36.0819 40.9598 35.9403 41.1319 35.9403C41.3039 35.9403 41.4456 36.0819 41.4456 36.254C41.4456 36.426 41.3039 36.5677 41.1319 36.5677ZM43.5485 36.3916H43.6517L43.7124 36.3997L43.7448 36.4078L43.7651 36.4199L43.759 36.4301L43.7671 36.4604L43.7893 36.4746L43.7833 36.4867L43.7934 36.5049V36.5232L43.8096 36.5434L43.8035 36.5657L43.8177 36.5758V36.6102L43.842 36.6304L43.8318 36.6446L43.8541 36.6608V36.6648L43.842 36.683L43.8602 36.7033L43.8521 36.7134L43.8622 36.7296L43.8845 36.7519L43.8926 36.7741L43.8804 36.7944L43.8926 36.8207L43.9047 36.8531L43.9148 36.8774L43.9351 36.9057L43.927 36.928L43.9512 36.9401V36.9502L43.9411 36.9644L43.9512 36.9806V37.0069L43.9654 37.0292V37.0494L43.9715 37.0696L43.9796 37.0899L44.0079 37.1142L43.9978 37.1324L44.0039 37.1587L44.0282 37.1729L44.016 37.1809L44.0221 37.2012L44.0261 37.2214L44.0383 37.2315V37.2518L44.0585 37.27L44.0322 37.2741L43.9351 37.27L43.846 37.2639H43.842L43.8217 37.2599L43.8157 37.2417L43.8258 37.2214L43.8096 37.2032V37.1951L43.7994 37.183H43.7954L43.7914 37.1648L43.7954 37.1465V37.1344V37.1162L43.7711 37.1L43.7792 37.0838L43.759 37.0676V37.0534L43.7488 37.0413L43.7671 37.0372L43.7387 37.013L43.7448 36.9826L43.7246 36.9644L43.7327 36.9482L43.7145 36.936V36.93L43.7225 36.9118L43.7043 36.8895L43.7084 36.8733L43.7043 36.8551L43.68 36.8328L43.6881 36.8187L43.6719 36.8025V36.7903L43.6558 36.7741L43.6639 36.7681L43.6436 36.7377L43.6517 36.7175L43.6335 36.7013V36.6871L43.6254 36.6709L43.6335 36.6547L43.6052 36.6284L43.6173 36.6061L43.597 36.5899V36.5738L43.595 36.5454L43.5728 36.5252L43.5849 36.511L43.5667 36.4908L43.5768 36.4807L43.5485 36.4564V36.4321L43.5343 36.4139L43.5485 36.3997V36.3916Z" fill="#CC6D1B"/>
<path d="M44.6995 35.2147C44.6995 35.2002 44.6995 35.1878 44.6995 35.1733C44.6995 35.1878 44.7016 35.2002 44.6995 35.2147Z" fill="#CC6D1B"/>
<path d="M61.9095 98.0964L61.8893 98.1065L61.8933 98.1267L61.7679 98.1551L61.6262 98.1692L61.5068 98.2077L61.4461 98.2158L61.3691 98.2421L61.3469 98.2482L61.2517 98.2704L61.1161 98.2907L61.0311 98.3089L60.9097 98.3291L60.8085 98.3716L60.683 98.3838L60.5859 98.4222L60.4907 98.4364L60.4098 98.4627L60.3572 98.4546L60.2054 98.5093L59.9908 98.5417L59.8734 98.5821L59.7621 98.5923L59.6832 98.6267L59.6326 98.6348L59.501 98.6489L59.3553 98.6955L59.2338 98.7117L59.1165 98.738L58.9687 98.7886L58.8715 98.7967L58.7703 98.8311L58.6854 98.8453L58.5801 98.8817L58.5336 98.8797L58.3372 98.9363L58.1935 98.9525L58.0903 98.989L57.9952 99.0072L57.8818 99.0355L57.7564 99.0497L57.5944 99.1063L57.4366 99.1225L57.3374 99.161L57.2301 99.1772L57.0338 99.2177L56.9002 99.2642L56.7869 99.2723L56.6634 99.3128L56.5865 99.3148L56.4327 99.3715L56.2708 99.4018L56.1412 99.4363H56.1352L56.6047 100.641L58.2138 100.325L61.2335 99.7338L62.4054 99.5051L61.8994 97.979L61.9055 98.0073L61.9095 98.0964Z" fill="#E9E3D7"/>
<path d="M61.7153 97.9345L61.5858 97.9608L61.521 97.9851L61.3894 98.0134L61.2457 98.0437H61.1769L61.0838 98.0842L60.9118 98.1227L60.7762 98.1348L60.6163 98.1915L60.4888 98.2219L60.3511 98.2522L60.2135 98.2785L60.0678 98.317L59.8876 98.3514L59.7784 98.3818L59.6691 98.3898L59.6043 98.402L59.5334 98.4384L59.3736 98.4587L59.1853 98.5133L59.0174 98.5538L58.7947 98.6044L58.6247 98.6469L58.481 98.6611L58.3353 98.6955L58.1956 98.742L58.0944 98.7704L58.0134 98.7764L57.888 98.8169L57.7524 98.827L57.724 98.8331L57.6309 98.8715L57.5237 98.8796L57.4022 98.9262L57.1634 98.9687L57.1006 98.995L56.9468 99.0153L56.8132 99.0537L56.6878 99.078L56.5663 99.1084L56.4732 99.1185L56.3943 99.1549L56.1797 99.2015L56.1008 99.2075L56.0543 99.2318L56.032 99.2419L55.9935 99.2824L55.9956 99.3431L56.0138 99.4039L56.0361 99.4403L56.1352 99.4362H56.1413L56.2708 99.4018L56.4327 99.3715L56.5866 99.3148L56.6635 99.3128L56.7869 99.2723L56.9003 99.2642L57.0339 99.2177L57.2302 99.1772L57.3374 99.161L57.4366 99.1225L57.5945 99.1063L57.7564 99.0497L57.8819 99.0355L57.9952 99.0072L58.0904 98.9889L58.1936 98.9525L58.3373 98.9363L58.5336 98.8796L58.5802 98.8817L58.6854 98.8452L58.7704 98.8311L58.8716 98.7967L58.9688 98.7886L59.1165 98.738L59.2339 98.7117L59.3553 98.6955L59.5011 98.6489L59.6326 98.6347L59.6832 98.6266L59.7622 98.5922L59.8735 98.5821L59.9909 98.5416L60.2054 98.5093L60.3572 98.4546L60.4098 98.4627L60.4908 98.4364L60.5859 98.4222L60.6831 98.3838L60.8086 98.3716L60.9098 98.3291L61.0312 98.3089L61.1162 98.2907L61.2518 98.2704L61.3469 98.2482L61.3692 98.2421L61.4461 98.2158L61.5068 98.2077L61.6262 98.1692L61.7679 98.1551L61.8934 98.1267L61.8893 98.1065L61.9096 98.0964L61.9056 98.0073L61.8995 97.979L61.8792 97.9142L61.8772 97.9122L61.8367 97.896L61.7153 97.9345Z" fill="black"/>
<path d="M22.4444 97.625L22.325 97.5116L22.1914 97.4185L22.1448 97.3558L22.0396 97.2789L21.9688 97.1898L21.8534 97.1088L21.7077 96.9712L21.6328 96.8923L21.5437 96.8356L21.4405 96.7142L21.2988 96.615L21.2158 96.5199L21.1268 96.443L21.058 96.3762L20.9669 96.3134L20.8718 96.2062L20.7139 96.0786L20.6876 96.0402L20.5985 95.9734L20.5358 95.9127L20.4488 95.8499L20.386 95.775L20.2585 95.684L20.1735 95.603L20.0885 95.5139L19.965 95.4188L19.878 95.3217L19.8416 95.2852L19.7707 95.2387L19.6958 95.1557L19.5946 95.0828L19.4449 94.925L19.3133 94.8319L19.2911 94.7853L19.2202 94.7327L19.1555 94.6639L19.0684 94.6092L18.9854 94.5141L18.8923 94.4554L18.8053 94.3664L18.7426 94.3097L18.6474 94.2085L18.5746 94.1417L18.5564 94.1296L18.4916 94.081L18.4491 94.0385L18.3479 93.9616L18.2548 93.8543L18.1596 93.7693L18.1455 93.7814L18.1273 93.7693L18.0564 93.826L17.9937 93.9029L18.0018 93.9474L18.105 94.0243L18.2022 94.1154L18.2588 94.1518L18.358 94.2449L18.4653 94.3441L18.5058 94.4008L18.5928 94.4534L18.7223 94.5728L18.8093 94.674L18.949 94.7712L19.0482 94.8602L19.1514 94.9533L19.2526 95.0505L19.368 95.1496L19.4995 95.2751L19.5886 95.348L19.6554 95.431L19.706 95.4795L19.7748 95.516L19.8841 95.6354L20.0379 95.7568L20.1674 95.8722L20.3374 96.022L20.469 96.1373L20.5621 96.2466L20.6754 96.3478L20.7949 96.4328L20.8758 96.4996L20.9284 96.5624L21.0317 96.6413L21.1207 96.7465L21.141 96.7668L21.226 96.8214L21.2948 96.9024L21.4021 96.9732L21.5741 97.1453L21.6328 97.1837L21.738 97.2971L21.8473 97.3821L21.9384 97.4711L22.0335 97.5521L22.0963 97.6229L22.1712 97.6675L22.3331 97.8152L22.3837 97.8759L22.4505 97.9124L22.4586 97.9144L22.5051 97.9204L22.5537 97.884L22.5942 97.8354L22.6104 97.795L22.5982 97.7788L22.5476 97.71L22.4444 97.625Z" fill="black"/>
<path d="M45.7931 51.1545L45.6211 51.2456L45.532 51.2699L45.4248 51.3448L45.2122 51.446L45.0443 51.5087L44.852 51.6221L44.6921 51.6949L44.5221 51.7678L44.35 51.8366L44.1679 51.9196L43.9392 52.0006L43.8015 52.0593L43.6599 52.0957L43.5769 52.126L43.4898 52.1807L43.2814 52.2353L43.0405 52.3284L42.824 52.4053L42.5345 52.4944L42.3119 52.5652L42.1217 52.5997L41.9294 52.6523L41.7432 52.717L41.6096 52.7575L41.5023 52.7697L41.3364 52.8203L41.1562 52.8446L41.1178 52.8506L40.9923 52.8952L40.8506 52.9093L40.6866 52.9599C40.5794 52.9822 40.4721 52.9903 40.3648 53.0065L40.2778 53.0328L40.0714 53.053L39.8892 53.0874L39.7192 53.1077L39.5532 53.1299H39.4277L39.3144 53.1623C39.2173 53.1724 39.1201 53.1805 39.0209 53.1846L38.9137 53.1805L38.8165 53.2028L38.7538 53.2352L38.7396 53.2959L38.7477 53.3607L38.774 53.3991L38.9218 53.4133L39.1059 53.3971L39.3306 53.3809L39.5492 53.3384H39.6544L39.8265 53.306L39.9803 53.302L40.1665 53.2595L40.4377 53.217L40.5834 53.2008L40.717 53.1583L40.9336 53.136L41.1542 53.0712L41.3242 53.0449L41.478 53.0065L41.6055 52.9802L41.7452 52.9316L41.9354 52.8952L42.1986 52.8142L42.2613 52.8101L42.3989 52.7555L42.5143 52.7251L42.6479 52.6745L42.7774 52.6482L42.9697 52.5693L43.1215 52.5187L43.2794 52.4742L43.4716 52.3952L43.6416 52.3487L43.7064 52.3264L43.8076 52.2718L43.9513 52.2313L44.1011 52.1584C44.1922 52.126 44.2893 52.1058 44.3784 52.0653L44.5666 51.9621L44.6334 51.954L44.7366 51.9014L44.856 51.8569L44.9755 51.788L45.1313 51.7294L45.2527 51.6504L45.4045 51.5856L45.5078 51.5371L45.6778 51.4662L45.7951 51.4055L45.8194 51.3893L45.9105 51.3306L45.9854 51.2962L46.1271 51.2072L46.206 51.1707L46.0137 51.0291L45.955 51.0695L45.7992 51.1505L45.7931 51.1545Z" fill="black"/>
<path d="M46.0136 52.6866L45.8659 52.7656L45.7444 52.8141L45.6129 52.8587L45.4813 52.8971L45.3396 52.9497L45.1636 52.9983L45.0583 53.0347L44.9511 53.0489L44.8863 53.0651L44.8175 53.1056L44.6576 53.1319L44.4714 53.1906L44.3054 53.2351L44.0848 53.2877L43.9148 53.3302L43.769 53.3404L43.6213 53.3707L43.4817 53.4152L43.3805 53.4416L43.2975 53.4436L43.172 53.478L43.0343 53.4841L43.006 53.4881L42.9089 53.5225L42.8036 53.5245L42.6781 53.563L42.4353 53.5893L42.3705 53.6095L42.2146 53.6176L42.077 53.644L41.9515 53.6561L41.826 53.6763H41.7309L41.6479 53.7027L41.4273 53.7229L41.3464 53.7209L41.2755 53.7452L41.231 53.7796L41.2229 53.8403L41.231 53.9051L41.2492 53.9435L41.3585 53.9536L41.4921 53.9354L41.6601 53.9212L41.822 53.8828L41.9009 53.8889L42.0305 53.8585L42.1458 53.8625L42.2835 53.8261L42.4879 53.8018L42.5972 53.7937L42.6984 53.7593L42.8603 53.7553L43.0263 53.7067L43.1558 53.6966L43.2712 53.6743L43.3683 53.6601L43.4736 53.6278L43.6193 53.6136L43.8196 53.563H43.8662L43.9714 53.5266L44.0585 53.5144L44.1617 53.48L44.2609 53.4699L44.4086 53.4173L44.526 53.3889L44.6495 53.3687L44.7952 53.3181L44.9268 53.2958L44.9753 53.2837L45.0543 53.2473L45.1656 53.227L45.281 53.1784L45.4955 53.1278L45.6412 53.059L45.6938 53.061L45.7728 53.0266L45.8659 52.9983L45.957 52.9457L46.0804 52.9153L46.1735 52.8607L46.2909 52.8202L46.3699 52.7858L46.4994 52.7392L46.5905 52.6967L46.6107 52.6866L46.6795 52.6461L46.7362 52.6219L46.8435 52.553L46.975 52.5004L47.0863 52.4417L47.0782 52.4235L47.0944 52.4093L47.062 52.3263L47.0094 52.2434L46.9649 52.2373L46.8617 52.3041L46.7483 52.3628L46.6977 52.4033L46.5803 52.4599L46.4488 52.5186L46.382 52.5308L46.3031 52.5895L46.1432 52.6563L46.0136 52.6866Z" fill="black"/>
<path d="M41.1318 35.9402C40.9578 35.9402 40.8181 36.0819 40.8181 36.2539C40.8181 36.4259 40.9598 36.5676 41.1318 36.5676C41.3039 36.5676 41.4455 36.4259 41.4455 36.2539C41.4455 36.0819 41.3039 35.9402 41.1318 35.9402Z" fill="#9E5218"/>
<path d="M43.5481 36.4483L43.5744 36.4726L43.5643 36.4827L43.5825 36.5009L43.5704 36.5171L43.5926 36.5373L43.5987 36.5657L43.5967 36.5819L43.6169 36.5981L43.6048 36.6183L43.6331 36.6446L43.625 36.6608L43.6311 36.679L43.6331 36.6912L43.6513 36.7094L43.6432 36.7276L43.6635 36.7579L43.6533 36.764L43.6716 36.7802L43.6695 36.7923L43.6857 36.8085L43.6776 36.8227L43.7019 36.845L43.706 36.8632L43.7019 36.8794L43.7201 36.9016L43.7141 36.9199L43.712 36.9259L43.7303 36.9401L43.7222 36.9543L43.7424 36.9745L43.7343 37.0028L43.7626 37.0271L43.7444 37.0332L43.7566 37.0453L43.7545 37.0595L43.7748 37.0757L43.7667 37.0919L43.791 37.1081L43.789 37.1263L43.791 37.1384L43.7869 37.1567L43.791 37.1729L43.795 37.1749L43.8072 37.187L43.8051 37.1951L43.8213 37.2154L43.8112 37.2336L43.8173 37.2518L43.8375 37.2538L43.8436 37.2558L43.9327 37.2639L44.0298 37.268L44.0541 37.2639L44.0379 37.2457L44.0338 37.2255L44.0217 37.2174L44.0177 37.1971L44.0116 37.1769L44.0237 37.1668L43.9994 37.1526L43.9934 37.1263L44.0035 37.1081L43.9751 37.0838L43.9671 37.0636L43.963 37.0433L43.961 37.0231L43.9488 37.0028L43.9468 36.9765L43.9347 36.9583L43.9468 36.9462V36.936L43.9225 36.9239L43.9306 36.9016L43.9104 36.8713L43.9003 36.847L43.8881 36.8146L43.876 36.7903L43.8881 36.7701L43.88 36.7478L43.8578 36.7256L43.8476 36.7114L43.8578 36.6992L43.8396 36.679L43.8517 36.6628V36.6588L43.8294 36.6426L43.8396 36.6284L43.8153 36.6082V36.5738L43.8011 36.5636L43.8072 36.5434L43.791 36.5232V36.5049L43.7809 36.4867L43.789 36.4746L43.7667 36.4604L43.7586 36.4301L43.7667 36.4179L43.7444 36.4058L43.712 36.3997L43.6513 36.3936L43.5886 36.3916H43.5481L43.5339 36.4058L43.5461 36.424L43.5481 36.4483Z" fill="black"/>
<path d="M16.8945 97.0662L15.5587 98.3919L14.5831 99.3593L21.1772 106L18.4286 100.922L19.5843 99.7742L19.0702 99.2581L16.8945 97.0662Z" fill="#5B2C16"/>
<path d="M58.9508 102.508L59.8414 105.146L68.8501 103.626L63.0312 102.97L62.7579 101.353L61.833 101.509L58.7869 102.023L58.9508 102.508Z" fill="#5B2C16"/>
<path d="M43.4755 66.7086L43.5402 66.7167L43.5828 66.7046L43.6313 66.5771L43.6637 66.405L43.7143 66.1945L43.7406 65.982L43.7771 65.8869L43.8013 65.7189L43.8499 65.5772L43.8722 65.393L43.9309 65.134L43.9693 64.9963L43.9835 64.8587L44.0462 64.6583L44.0746 64.4357L44.1231 64.2758L44.1333 64.2212C44.2001 64.3851 44.2669 64.549 44.3316 64.715C44.4328 64.97 44.528 65.2291 44.6271 65.4861C44.6777 65.6177 44.7364 65.7432 44.787 65.8727C44.8882 66.1338 44.9874 66.3949 45.0866 66.656C45.1958 66.9393 45.3092 67.2227 45.4144 67.506C45.465 67.6396 45.5015 67.7793 45.5541 67.9108C45.631 68.1011 45.718 68.2833 45.7929 68.4735C45.9285 68.8135 46.0601 69.1576 46.1876 69.5017C46.2868 69.7648 46.3738 70.032 46.475 70.291C46.6005 70.6149 46.7401 70.9326 46.8677 71.2524C46.9709 71.5095 47.068 71.7685 47.1692 72.0256C47.2724 72.2948 47.3777 72.5639 47.4809 72.8331C47.5862 73.1043 47.6853 73.3776 47.7906 73.6488C47.9039 73.9403 48.0233 74.2297 48.1347 74.5232C48.2723 74.8773 48.4039 75.2356 48.5415 75.5918C48.6245 75.8104 48.7176 76.0229 48.8006 76.2415C48.8795 76.452 48.9524 76.6665 49.0293 76.8791C49.0758 77.0106 49.1244 77.1422 49.179 77.2697C49.2398 77.4154 49.3126 77.555 49.3693 77.7028C49.4887 78.0165 49.598 78.3343 49.7174 78.648C49.8631 79.0265 50.017 79.3989 50.1647 79.7754C50.2963 80.1073 50.4258 80.4433 50.5553 80.7772C50.7253 81.2164 50.8974 81.6576 51.0674 82.0968C51.1989 82.4348 51.3345 82.7688 51.4621 83.1088C51.5693 83.3881 51.6645 83.6735 51.7697 83.9548C51.879 84.2463 51.9944 84.5357 52.1097 84.8272C52.2211 85.1085 52.3384 85.3858 52.4518 85.6671C52.5327 85.8655 52.6137 86.0658 52.6906 86.2682C52.7513 86.4261 52.7999 86.588 52.8626 86.7439C52.9598 86.9948 53.0691 87.2418 53.1642 87.4927C53.2654 87.7558 53.3565 88.023 53.4537 88.2882L53.5184 88.4582C53.5973 88.6484 53.6824 88.8367 53.7573 89.0289C53.8362 89.2333 53.903 89.4459 53.9819 89.6483C54.0791 89.8932 54.1904 90.134 54.2855 90.3809C54.4677 90.8505 54.6417 91.3241 54.8219 91.7957C54.8704 91.9252 54.9352 92.0507 54.9838 92.1823C55.0991 92.4838 55.2044 92.7874 55.3197 93.087C55.423 93.3521 55.5343 93.6152 55.6375 93.8804C55.7326 94.1253 55.8237 94.3742 55.9188 94.6212C56.0119 94.864 56.1111 95.1049 56.2042 95.3498C56.273 95.5299 56.3317 95.7161 56.4026 95.8962C56.4673 96.0602 56.5463 96.2201 56.611 96.384C56.777 96.807 56.9389 97.23 57.1008 97.6551C57.1595 97.8089 57.2081 97.9648 57.2688 98.1166C57.3235 98.2582 57.3842 98.3938 57.449 98.5315L57.5785 98.7804L57.6554 98.8128L57.6999 98.7501V98.6347C57.6291 98.4303 57.5603 98.2258 57.4834 98.0234C57.3862 97.7644 57.2789 97.5094 57.1777 97.2523C57.0543 96.9345 56.9389 96.6127 56.8134 96.295C56.69 95.9833 56.5564 95.6756 56.4309 95.3639C56.3722 95.2162 56.3297 95.0624 56.273 94.9146C56.1759 94.6677 56.0686 94.4228 55.9715 94.1739C55.8885 93.9553 55.8176 93.7286 55.7346 93.512C55.6294 93.2428 55.51 92.9757 55.4048 92.7065C55.2509 92.3179 55.1032 91.9252 54.9554 91.5326C54.8765 91.3241 54.8016 91.1116 54.7207 90.9031C54.6417 90.7048 54.5506 90.5125 54.4737 90.3121C54.3563 90.0025 54.2531 89.6867 54.1337 89.3771C54.0062 89.0492 53.8645 88.7294 53.735 88.4035C53.6378 88.1586 53.5548 87.9056 53.4617 87.6607C53.3767 87.434 53.2857 87.2094 53.1966 86.9847C53.1237 86.7985 53.0569 86.6103 52.9841 86.4261C52.9011 86.2156 52.808 86.0092 52.727 85.7987C52.6198 85.5214 52.5267 85.238 52.4174 84.9608C52.2656 84.5681 52.1057 84.1775 51.9519 83.7848L51.8608 83.5156C51.7778 83.3051 51.6867 83.0967 51.6037 82.8842C51.537 82.7162 51.4782 82.5441 51.4135 82.3761C51.3325 82.1717 51.2455 81.9714 51.1666 81.7669C51.0937 81.5787 51.033 81.3844 50.9601 81.1982C50.8427 80.8986 50.7173 80.6032 50.5978 80.3056C50.5068 80.0769 50.4177 79.8462 50.3307 79.6134C50.2416 79.3766 50.1566 79.1358 50.0635 78.899C49.9481 78.6035 49.8227 78.312 49.7093 78.0145C49.6101 77.7615 49.5211 77.5045 49.428 77.2474C49.3915 77.1482 49.3551 77.0491 49.3167 76.9499C49.2499 76.788 49.177 76.6281 49.1143 76.4641C49.0313 76.2496 48.9605 76.029 48.8775 75.8144C48.7844 75.5756 48.6791 75.3429 48.586 75.104C48.4261 74.683 48.2763 74.256 48.1144 73.835C47.995 73.5274 47.8614 73.2258 47.738 72.9202C47.6995 72.825 47.6813 72.7238 47.6469 72.6267C47.5841 72.4607 47.5113 72.2988 47.4485 72.1349C47.3757 71.9466 47.3109 71.7584 47.238 71.5722C47.1611 71.3779 47.0721 71.1877 46.9952 70.9913C46.9021 70.7485 46.8211 70.4995 46.726 70.2566C46.645 70.0502 46.5499 69.8478 46.4669 69.6413C46.3738 69.4045 46.2868 69.1617 46.1977 68.9228C46.135 68.7569 46.0682 68.5909 46.0054 68.4229C45.9042 68.1557 45.8071 67.8886 45.7059 67.6214C45.633 67.4291 45.5582 67.2369 45.4833 67.0446L45.4327 66.9171C45.3699 66.7633 45.3052 66.6115 45.2444 66.4576C45.1979 66.3402 45.1574 66.2168 45.1108 66.0994C45.0137 65.8585 44.9125 65.6197 44.8194 65.3768C44.7142 65.0996 44.619 64.8203 44.5138 64.543C44.4207 64.294 44.3215 64.0491 44.2264 63.8022H44.2203L44.2588 63.6787L44.3053 63.4136L44.3276 63.3569L44.3478 63.2132L44.3761 63.1019L44.3944 62.9623L44.4348 62.8408L44.4612 62.6384L44.4956 62.4846L44.5401 62.3287L44.5705 62.1304L44.619 61.9644L44.6372 61.8997L44.6453 61.7883L44.6878 61.6487L44.7081 61.4868C44.7303 61.3937 44.7647 61.3046 44.787 61.2115L44.8113 61.001L44.8457 60.9423L44.8619 60.831L44.8943 60.7075L44.9064 60.574L44.955 60.4161L44.9671 60.2724L45.0096 60.1166L45.0339 60.0052L45.0825 59.8312L45.1108 59.7037L45.1149 59.6733L45.127 59.5681L45.1493 59.4891L45.1736 59.3252L45.2282 59.145L45.2647 58.9811L45.2444 58.9771V58.9467L45.1635 58.9103L45.0663 58.9001L45.0279 58.9426L45.0036 59.1086L44.9631 59.2786L44.955 59.3677L44.9165 59.5417L44.8741 59.73L44.8396 59.813L44.8336 59.9445L44.783 60.1732L44.7283 60.3432L44.702 60.5638L44.6656 60.7359L44.6251 60.916L44.5826 61.0941L44.5462 61.2905L44.4895 61.5252L44.4632 61.671L44.4166 61.8066L44.3964 61.8936V61.9968L44.3336 62.2012L44.2912 62.4542L44.2466 62.6769C44.2264 62.774 44.2061 62.8712 44.1859 62.9703L44.1414 63.197L44.0827 63.3792L44.0422 63.5715L44.0159 63.7637L43.9916 63.8993L43.9572 64.0005L43.9329 64.1706L43.8762 64.3406L43.8681 64.377L43.856 64.5086L43.8135 64.6421L43.7953 64.8101C43.773 64.9154 43.7406 65.0166 43.7164 65.1198L43.7082 65.2089L43.6516 65.4052L43.6232 65.5853L43.5828 65.7472L43.5504 65.9112L43.5119 66.0286L43.5058 66.1439C43.4876 66.237 43.4654 66.3322 43.4431 66.4232L43.4107 66.5224L43.4067 66.6216L43.4229 66.6863L43.4795 66.7127L43.4755 66.7086Z" fill="black"/>
<path d="M42.7957 51.4904C42.5609 51.2374 41.8626 50.4481 41.2028 49.3268C40.4863 48.1104 39.8144 46.5033 39.8144 44.7749C39.8144 44.6028 39.8204 44.4308 39.8346 44.2588L39.5917 44.2385C39.5776 44.4187 39.5695 44.5968 39.5715 44.7749C39.5715 46.6875 40.3568 48.4302 41.14 49.6931C41.9213 50.9581 42.7026 51.7454 42.7066 51.7495L42.7916 51.8365L44.6132 50.023L44.5282 49.938L44.4432 49.851L42.7977 51.4924L42.7957 51.4904Z" fill="black"/>
<path d="M48.8268 46.0481L48.8187 46.0177L48.8126 45.9651L48.8025 45.9307L48.8005 45.9287L48.7965 45.9206L48.7884 45.9084L48.7803 45.8902L48.7762 45.868L48.7499 45.8234L48.7479 45.7688L48.7337 45.7222L48.8086 45.6494L48.8268 45.6109L48.8977 45.5522L48.9442 45.4854L48.9968 45.4328L49.0434 45.3741L49.0859 45.3417L49.1081 45.2891L49.1952 45.196L49.2316 45.1677L49.2478 45.1231L49.2458 45.0806L49.2073 45.0341L49.1608 44.9896L49.1264 44.9673L49.0717 44.9997L49.0252 45.0624L48.9563 45.1312L48.9078 45.2183L48.8673 45.2405L48.8268 45.3073L48.7701 45.3437L48.7276 45.4186L48.6467 45.5036L48.5981 45.5461L48.5698 45.6028L48.4949 45.6595L48.4423 45.7485L48.3836 45.7951L48.339 45.8497L48.3006 45.8882L48.2662 45.9469L48.2014 45.9995L48.1285 46.0967L48.1043 46.1088L48.0698 46.1655L48.0314 46.1999L47.999 46.2545L47.9504 46.2889L47.9019 46.3699L47.8553 46.4225L47.8007 46.4691L47.7501 46.546L47.6893 46.5925L47.6671 46.6148L47.6448 46.6614L47.5922 46.6998L47.5537 46.7666L47.4586 46.8496L47.41 46.9346L47.3777 46.9407L47.3493 46.9852L47.3068 47.0236L47.2785 47.0803L47.2198 47.1248L47.1914 47.1856L47.1368 47.2341L47.1044 47.2726L47.0437 47.3252L47.0053 47.3697L46.9972 47.3799L46.9729 47.4224L46.9445 47.4446L46.9041 47.5094L46.8373 47.56L46.7867 47.6167L46.8008 47.6308L46.7948 47.643L46.8535 47.7118L46.9243 47.7786L46.9567 47.7826L46.9992 47.7179L47.0518 47.6612L47.072 47.6248L47.1247 47.5661L47.1833 47.5013L47.2198 47.4831L47.2441 47.4244L47.3149 47.3495L47.3797 47.3009L47.4303 47.2119L47.4809 47.1532L47.5355 47.0904L47.5922 47.0317L47.6489 46.9609L47.7237 46.886L47.7642 46.8314L47.8168 46.7949L47.8452 46.7686L47.8614 46.72L47.9343 46.6593L48.0031 46.5642L48.0678 46.4873L48.1549 46.3841L48.2216 46.3051L48.2905 46.2545L48.3471 46.1877L48.3937 46.1129L48.4321 46.0623L48.4706 46.0359L48.5131 45.9692L48.5718 45.9287L48.5738 45.9347L48.588 45.9874L48.5819 46.0157L48.6123 46.0481L48.6305 46.1129L48.6285 46.1655L48.6669 46.2242L48.6831 46.2727L48.6973 46.3233L48.7054 46.378L48.7276 46.4326L48.7398 46.5035L48.756 46.544L48.7479 46.5865L48.7539 46.6128L48.7803 46.6371V46.6998L48.8106 46.7727L48.8288 46.8374L48.8511 46.9245L48.8693 46.9892L48.8632 47.0459L48.8774 47.1026L48.9057 47.1572L48.9199 47.1977L48.9138 47.2281L48.9361 47.2766L48.93 47.3293L48.9321 47.3414L48.9563 47.3778L48.9503 47.4203L48.9786 47.4669L48.9867 47.56L49.0049 47.5863L49.0029 47.647L49.0231 47.6996L49.0272 47.7462L49.0414 47.7948L49.0373 47.8312L49.0616 47.8636L49.0758 47.9486L49.0697 47.979L49.092 48.0073L49.1264 48.0215L49.1871 48.0235L49.2498 48.0174L49.2903 48.0093L49.3025 47.9688L49.2862 47.9162L49.2802 47.8656V47.8514L49.2478 47.7907L49.2559 47.7604L49.2336 47.7098L49.2417 47.6652L49.2154 47.6126L49.2033 47.5337V47.4932L49.177 47.4527L49.181 47.4143L49.185 47.392L49.1507 47.3272L49.1527 47.2766L49.1405 47.2321L49.1365 47.1957L49.1142 47.1552L49.1162 47.0985L49.0879 47.0216L49.094 47.0034L49.0737 46.9609L49.0697 46.9285L49.0495 46.888L49.0535 46.8496L49.0231 46.7929L49.013 46.7464L49.011 46.6998L48.9847 46.6411L48.9867 46.5905L48.9847 46.5703L48.9624 46.5399L48.9644 46.4974L48.9381 46.4509L48.9321 46.3658L48.8956 46.3092L48.9098 46.2869L48.8936 46.2566L48.8896 46.2201L48.8632 46.1837V46.1331L48.8491 46.1169L48.8329 46.0967L48.8268 46.0481Z" fill="black"/>
<path d="M19.1533 8.34155C15.8117 8.34155 13.1036 10.5315 13.1036 13.2335C13.1036 15.9355 15.8117 18.1234 19.1533 18.1234C22.4949 18.1234 25.2029 15.9335 25.2029 13.2335C25.2029 10.5335 22.4949 8.34155 19.1533 8.34155Z" fill="#E3F1E9"/>
<path d="M29.0181 16.1661C27.4961 15.4597 25.798 15.8848 25.2252 17.1153C24.6524 18.3479 25.4236 19.9206 26.9456 20.6269C28.4676 21.3333 30.1657 20.9083 30.7385 19.6757C31.3113 18.4431 30.5402 16.8725 29.0161 16.1661H29.0181Z" fill="#E3F1E9"/>
<path d="M35.7901 62.7235L35.9965 62.7053L36.2495 62.6425C36.3528 62.6162 36.456 62.596 36.5572 62.5656C36.6563 62.5332 36.7515 62.4907 36.8486 62.4543L36.9923 62.4199L37.1988 62.3329C37.1704 62.4543 37.1401 62.5757 37.1158 62.6972L36.9559 63.5351L36.7454 64.5673L36.5632 65.5874C36.5329 65.7473 36.4843 65.9052 36.454 66.0651L36.3062 66.8746C36.2576 67.1094 36.1929 67.3442 36.1463 67.581L35.9884 68.4635L35.7314 69.7325L35.5877 70.4105C35.5472 70.6271 35.5189 70.8457 35.4743 71.0602C35.4055 71.3942 35.3205 71.7261 35.2558 72.06L35.0635 73.1267C35.0129 73.3938 34.9461 73.657 34.8914 73.9241L34.7477 74.6568L34.6243 75.2579C34.5818 75.4866 34.5474 75.7174 34.5008 75.9461L34.3065 76.8427L34.1831 77.4944L33.8107 77.9073L33.6042 78.1137L33.1367 78.6359L32.7541 79.0427L32.3008 79.5467C32.1591 79.6985 32.0093 79.8422 31.8697 79.994L31.2078 80.7328L30.6897 81.2914L30.1493 81.8621L29.4935 82.5887C29.3033 82.7932 29.1069 82.9935 28.9126 83.1959L28.688 83.4347C28.5686 83.5683 28.4552 83.708 28.3318 83.8416L27.8379 84.3557C27.6578 84.5479 27.4918 84.7524 27.3117 84.9446L26.3523 85.9546C26.1216 86.2035 25.903 86.4626 25.6763 86.7156L25.4476 86.9342L25.0833 87.341L24.6583 87.7903C24.5125 87.9502 24.3769 88.1202 24.2292 88.2781L23.6706 88.859C23.5168 89.027 23.3731 89.2051 23.2172 89.3751L22.6748 89.9499L22.3003 90.3527L21.6952 90.9923L21.2621 91.4578L21.1669 91.563L20.8269 91.9435L20.5557 92.2289L20.0193 92.8239L19.3879 93.4817L18.8313 94.0829L18.8475 94.095L18.7564 94.2002L18.7746 94.3116L18.892 94.3298L19.0782 94.1699L19.6206 93.5667L20.1995 92.9454L20.4849 92.6215L21.0718 91.9901L21.7094 91.3019C21.8106 91.1946 21.9219 91.0975 22.021 90.9902L22.4319 90.5166L23.203 89.6868C23.3994 89.4763 23.6078 89.2759 23.8021 89.0634L24.5146 88.2639L25.0934 87.6365L25.6986 86.9828L26.3139 86.327L26.9656 85.6146L27.7711 84.7564L28.2549 84.2241L28.7426 83.7242C28.8418 83.621 28.941 83.5177 29.0361 83.4105C29.1434 83.289 29.2405 83.1595 29.3519 83.0401L30.0663 82.2912L30.9063 81.3683L31.6551 80.5546L32.6428 79.484L33.3998 78.6622L34.0434 77.9963L34.4017 77.6118L34.4927 77.1341L34.6607 76.2153L34.7842 75.5615L34.8995 75.0515L35.0493 74.2358C35.108 73.9525 35.1748 73.6671 35.2376 73.3858L35.276 73.2016C35.3124 72.9931 35.3428 72.7826 35.3833 72.5762C35.4319 72.3556 35.4804 72.1329 35.529 71.9123C35.5816 71.6451 35.616 71.376 35.6707 71.1088L35.9864 69.5847C36.0148 69.4431 36.0289 69.3014 36.0593 69.1597L36.2657 68.1882L36.4277 67.324L36.5916 66.5245L36.7454 65.7351L36.8729 65.1502L36.962 64.6098L37.2372 63.2376L37.3465 62.7437C37.3769 62.5919 37.3991 62.4381 37.4214 62.2843V62.2742L37.4315 62.2721L37.6724 62.1548L38.0245 61.9969L38.2128 61.9119L38.3808 61.8046C38.4718 61.7621 38.567 61.7237 38.656 61.671C38.7491 61.6184 38.8321 61.5455 38.9212 61.4828L39.1317 61.3614L39.3138 61.2318L39.4636 61.1266L39.6194 60.9869L39.8401 60.823C39.9372 60.738 40.0303 60.6489 40.1194 60.5558L40.1882 60.5032L40.3298 60.3494L40.4452 60.232L40.5727 60.0761L40.7023 59.9446L40.8763 59.7058L41.0099 59.5256L41.1536 59.3435L41.2993 59.0925L41.441 58.8901L41.4896 58.8071L41.5544 58.6594L41.6657 58.4813L41.7527 58.2647C41.8134 58.1432 41.8843 58.0259 41.9308 57.8963C41.9672 57.8032 41.9895 57.7061 42.0199 57.611L42.0684 57.53L42.1089 57.3762L42.1696 57.2062L42.2101 57.0199L42.283 56.7953L42.3133 56.5969L42.368 56.3723L42.3984 56.2144L42.455 55.9655L42.4793 55.7813V55.7408L42.4915 55.591L42.5097 55.4777L42.5218 55.2449L42.5562 54.9818L42.5724 54.745H42.5522L42.5502 54.7045L42.4631 54.6782L42.3639 54.6904L42.3315 54.7592V54.9899L42.3113 55.2308V55.3542L42.2769 55.5971L42.2425 55.8622L42.204 55.9837L42.1919 56.1638C42.1757 56.2711 42.1555 56.3763 42.1312 56.4816L42.0543 56.7163C42.03 56.8155 42.0219 56.9167 41.9976 57.0179L41.9247 57.2507L41.8478 57.4936L41.7507 57.7304L41.6535 57.9894L41.5058 58.291L41.4208 58.4792L41.3095 58.6452L41.2487 58.7525L41.1961 58.882L41.0241 59.1249C40.9634 59.2281 40.8925 59.3232 40.8278 59.4244L40.6355 59.6774C40.5464 59.7847 40.4614 59.898 40.3643 59.9972L40.1457 60.236L39.9413 60.4081L39.7368 60.5963L39.5425 60.7845L39.3927 60.908L39.2673 60.991L39.077 61.1408L38.8564 61.2662L38.8119 61.2946L38.6641 61.4099L38.486 61.497L38.2877 61.6305C38.1541 61.7034 38.0165 61.7641 37.8788 61.8269L37.7695 61.8916L37.5003 61.9969L37.4437 62.0232V62.003L37.3971 61.9321L37.3263 61.9625L37.2656 62.0637L37.2554 62.1062L37.0409 62.1811L36.8203 62.262L36.6503 62.3045L36.5005 62.3693C36.369 62.4078 36.2354 62.4422 36.1018 62.4705L35.954 62.4928L35.8225 62.5353L35.7415 62.5798L35.7314 62.6344V62.6405V62.6425L35.7516 62.7032L35.7921 62.7377L35.7901 62.7235Z" fill="black"/>
<path d="M52.998 48.7864L53.0243 48.7277L53.0607 48.6792L53.0911 48.6286L53.1235 48.5982L53.1315 48.5517L53.1882 48.4667L53.2165 48.4424L53.2226 48.4019L53.2125 48.3715L53.2105 48.3655L53.166 48.323L53.1133 48.2845L53.0789 48.2683L53.0708 48.2724L53.0364 48.2946L53.0081 48.3533L52.9615 48.414L52.9352 48.4909L52.9049 48.5112L52.8826 48.5719L52.8381 48.6043L52.8158 48.6691L52.7612 48.748L52.7288 48.7844L52.7146 48.837L52.6579 48.8876L52.6316 48.9666L52.5891 49.0091L52.5588 49.0556L52.5324 49.0921L52.5163 49.1427L52.4677 49.1912L52.4231 49.2783L52.4029 49.2884L52.3847 49.341L52.3584 49.3714L52.3402 49.4199L52.3058 49.4503L52.2795 49.5232L52.2471 49.5697L52.2086 49.6122L52.1783 49.679L52.1337 49.7235L52.1196 49.7418L52.1094 49.7843L52.071 49.8207L52.0507 49.8774L51.9819 49.9522L51.9556 50.0292L51.9293 50.0352L51.9131 50.0757L51.8828 50.1081L51.8686 50.1587L51.8261 50.1992L51.82 50.2255L51.8139 50.2538L51.7755 50.2983L51.7532 50.3307L51.7107 50.3793L51.6844 50.4178L51.6804 50.4299L51.6682 50.4663L51.648 50.4866L51.6237 50.5432L51.5751 50.5898L51.5427 50.6404L51.5569 50.6525V50.6647L51.6217 50.7254L51.7006 50.7821L51.731 50.7861L51.7532 50.7274L51.7896 50.6768L51.7998 50.6424L51.8342 50.5918L51.8726 50.5352L51.903 50.5169L51.9131 50.4663L51.9597 50.3975L52.0082 50.355L52.0346 50.2741L52.0669 50.2214L52.1013 50.1668L52.1418 50.1142L52.1762 50.0514L52.2289 49.9806L52.2511 49.934L52.2936 49.9016L52.3118 49.8753L52.3159 49.8328L52.3685 49.7782L52.411 49.6952L52.4515 49.6244L52.5082 49.5333L52.5507 49.4625L52.6013 49.4159L52.6397 49.3572L52.666 49.2884L52.6883 49.2459L52.7166 49.2196L52.7429 49.1609L52.7895 49.1184L52.7996 49.1083L52.8118 49.0577L52.8502 49.0253L52.8664 48.9625L52.9393 48.8735L52.9413 48.8613L52.9474 48.8391L52.998 48.7864Z" fill="black"/>
<path d="M55.121 50.365L55.1473 50.2941L55.1838 50.2375L55.2121 50.1747L55.2445 50.1363L55.2526 50.0877L55.3072 49.9845L55.3356 49.9521L55.3396 49.9076L55.3275 49.8691L55.2789 49.8327L55.2222 49.8003L55.1858 49.7861L55.1433 49.8246L55.115 49.8914L55.0684 49.9663L55.0441 50.0533L55.0138 50.0837L54.9915 50.1504L54.949 50.195L54.9267 50.2699L54.8721 50.363L54.8397 50.4115L54.8275 50.4702L54.7709 50.533L54.7446 50.6261L54.7021 50.6787L54.6757 50.7354L54.6474 50.7779L54.6312 50.8366L54.5826 50.8973L54.5402 51.0005L54.5199 51.0167L54.5037 51.0754L54.4774 51.1139L54.4592 51.1705L54.4248 51.209L54.4005 51.292L54.3681 51.3466L54.3297 51.4013L54.3013 51.4802L54.2568 51.5348L54.2426 51.5571L54.2325 51.6057L54.194 51.6502L54.1738 51.717L54.105 51.8121L54.0827 51.8991L54.0544 51.9093L54.0382 51.9558L54.0099 51.9983L53.9977 52.055L53.9532 52.1056L53.9471 52.136L53.9431 52.1683L53.9046 52.221L53.8824 52.2614L53.8398 52.3222L53.8135 52.3687L53.8115 52.3809L53.7973 52.4234L53.7791 52.4497L53.7549 52.5165L53.7063 52.5731L53.6739 52.6359L53.6901 52.646L53.688 52.6581L53.7609 52.7128L53.8439 52.7614L53.8763 52.7593L53.8985 52.6926L53.935 52.6318L53.9431 52.5934L53.9795 52.5306L54.0159 52.4618L54.0463 52.4375L54.0544 52.3788L54.1009 52.2959L54.1475 52.2412L54.1738 52.1521L54.2062 52.0874L54.2406 52.0206L54.2811 51.9579L54.3135 51.883L54.3661 51.798L54.3884 51.7413L54.4288 51.7008L54.447 51.6684L54.4511 51.6219L54.5037 51.5531L54.5442 51.4539L54.5847 51.3709L54.6393 51.2616L54.6798 51.1766L54.7324 51.1179L54.7689 51.0471L54.7931 50.9681L54.8154 50.9155L54.8458 50.8851L54.8701 50.8163L54.9186 50.7617L54.9267 50.7475L54.9389 50.6929L54.9753 50.6504L54.9915 50.5795L55.0644 50.4702L55.0664 50.4561L55.0704 50.4318L55.121 50.365Z" fill="black"/>
</svg>
